<svg xmlns="http://www.w3.org/2000/svg" xmlns:xlink="http://www.w3.org/1999/xlink" width="113" height="113" viewBox="0 0 113 113">
  <defs>
    <clipPath id="clip-path">
      <rect id="Rectangle_289" data-name="Rectangle 289" width="56.513" height="69.222" fill="none"/>
    </clipPath>
  </defs>
  <g id="Group_3991" data-name="Group 3991" transform="translate(-920 -2818)">
    <g id="Ellipse_4" data-name="Ellipse 4" transform="translate(920 2818)" fill="#fff" stroke="#e54727" stroke-width="1">
      <circle cx="56.5" cy="56.5" r="56.5" stroke="none"/>
      <circle cx="56.5" cy="56.5" r="56" fill="none"/>
    </g>
    <g id="Group_1828" data-name="Group 1828" transform="translate(948.54 2838)">
      <g id="Group_1827" data-name="Group 1827" transform="translate(0 0)" clip-path="url(#clip-path)">
        <path id="Path_1309" data-name="Path 1309" d="M53.377,52.529V14.938a1.656,1.656,0,0,0-.785-1.42,1.434,1.434,0,0,0-1.568,0l-.621.5-.163.135L47.416,16.4l-.325-.217v.014L45,14.8,43.32,13.681a1.721,1.721,0,0,0-1.73,0l-.419.243-3.514,2.271-3.15-2.041V14.14a3.806,3.806,0,0,0-1.662-.622,2.286,2.286,0,0,0-1.487.608v.027l-3.15,2.041-3.46-2.257a2.762,2.762,0,0,0-3.164.338c0,.013.014.026.014.04l-2.825,1.892L15,13.681c-.161-.163-.311-.163-.635-.163h-.622c-.163,0-.474.163-.635.163L9.337,16.195,6.512,14.3l-.405-.27-.271-.19-.257-.176a1.434,1.434,0,0,0-1.568,0,1.2,1.2,0,0,0-.946,1.257V52.678a1.483,1.483,0,0,0,1.568,1.568h40.89a1.568,1.568,0,0,0,0-3.136H6.188V17.925l2.2,1.568a1.721,1.721,0,0,0,1.73,0l3.771-2.515,3.772,2.515a2.181,2.181,0,0,0,.946.311,2.368,2.368,0,0,0,.946-.311l3.772-2.515L27.1,19.493a2.181,2.181,0,0,0,.946.311,2.373,2.373,0,0,0,.947-.311l3.771-2.515,3.771,2.515a1.721,1.721,0,0,0,1.73,0l3.772-2.515,3.771,2.515a1.721,1.721,0,0,0,1.73,0l2.2-1.568V53l2.676,10.692H3.524l1.1-4.407a1.622,1.622,0,0,0-1.1-1.892A1.62,1.62,0,0,0,1.633,58.49L.065,64.8a1.6,1.6,0,0,0,.311,1.42,1.188,1.188,0,0,0,1.094.635H54.945a1.424,1.424,0,0,0,1.257-.635,1.906,1.906,0,0,0,.311-1.257Z" transform="translate(0 2.365)" fill="#131931"/>
        <path id="Path_1310" data-name="Path 1310" d="M47.675,7.867H39.808v-6.3A1.483,1.483,0,0,0,38.24,0H16.22a1.483,1.483,0,0,0-1.568,1.568V9.435a9.449,9.449,0,0,0-9.124,7.232L8.353,18.56a6.362,6.362,0,0,1,6.286-5.975A6.519,6.519,0,0,1,20.6,16.639a2.762,2.762,0,0,1,3.163-.338l-.161-.108a9.843,9.843,0,0,0-5.826-6.136V3.149h12.6V16.491a2.284,2.284,0,0,1,1.488-.608,3.824,3.824,0,0,1,1.662.621V3.149h3.15V18.56l3.514-2.271-.365.216V11.017h6.286V18.56l.324.216,2.826-2.244v-7.1a1.487,1.487,0,0,0-1.582-1.568" transform="translate(0.984 0)" fill="#e54727"/>
      </g>
    </g>
  </g>
</svg>
