<svg xmlns="http://www.w3.org/2000/svg" xmlns:xlink="http://www.w3.org/1999/xlink" width="113" height="113" viewBox="0 0 113 113">
  <defs>
    <clipPath id="clip-path">
      <rect id="Rectangle_312" data-name="Rectangle 312" width="61.895" height="67.875" fill="none"/>
    </clipPath>
  </defs>
  <g id="Group_4000" data-name="Group 4000" transform="translate(-920 -3371)">
    <g id="Ellipse_14" data-name="Ellipse 14" transform="translate(920 3371)" fill="#fff" stroke="#e54727" stroke-width="1">
      <circle cx="56.5" cy="56.5" r="56.5" stroke="none"/>
      <circle cx="56.5" cy="56.5" r="56" fill="none"/>
    </g>
    <g id="Group_1850" data-name="Group 1850" transform="translate(945.553 3393.563)">
      <g id="Group_1849" data-name="Group 1849" transform="translate(0 0)" clip-path="url(#clip-path)">
        <path id="Path_1353" data-name="Path 1353" d="M33.215,18c.887-.727,1.756-1.49,2.626-2.235a1.668,1.668,0,0,0,.549-1.916,1.706,1.706,0,0,0-1.614-1.171c-1.154-.088-2.29-.195-3.442-.265a.709.709,0,0,1-.728-.532C30.2,10.83,29.719,9.8,29.311,8.771a1.724,1.724,0,0,0-1.686-1.259A1.743,1.743,0,0,0,25.957,8.79c-.425,1.047-.887,2.075-1.295,3.1a.688.688,0,0,1-.656.515c-1.154.071-2.289.177-3.442.265A1.712,1.712,0,0,0,18.9,13.845a1.66,1.66,0,0,0,.62,1.934c.887.764,1.775,1.544,2.662,2.29a.608.608,0,0,1,.231.727c-.32,1.278-.6,2.573-.87,3.69a1.718,1.718,0,0,0,.763,1.7,1.607,1.607,0,0,0,1.81.035c1.047-.622,2.094-1.242,3.122-1.88a.643.643,0,0,1,.816,0c1.03.656,2.077,1.278,3.123,1.88a1.7,1.7,0,0,0,2.537-1.863c-.265-1.135-.515-2.271-.816-3.406a.826.826,0,0,1,.32-.959m-.746-1.951c-.355.337-.746.622-1.1.958a1.689,1.689,0,0,0-.549,1.739c.265,1.118.515,2.218.8,3.478-1.047-.622-1.968-1.171-2.874-1.739a1.891,1.891,0,0,0-2.235.017c-.906.585-1.846,1.118-2.874,1.739.265-1.171.5-2.218.763-3.265a1.9,1.9,0,0,0-.675-2.128c-.833-.692-1.632-1.4-2.555-2.183,1.243-.107,2.343-.231,3.425-.3a1.867,1.867,0,0,0,1.739-1.312c.408-.994.833-1.987,1.295-3.087.444,1.064.87,2.022,1.26,3a1.976,1.976,0,0,0,1.88,1.419c1.047.053,2.111.177,3.246.267a15.826,15.826,0,0,1-1.543,1.4" transform="translate(8.307 3.321)" fill="#131931"/>
        <path id="Path_1354" data-name="Path 1354" d="M39.463,29.419a.97.97,0,0,0,.267-1.4.984.984,0,0,0-1.455-.177l-.373.267a13.428,13.428,0,0,1-11.479,2.2A13.778,13.778,0,0,1,18.686,8.679c.515-.709.515-1.295,0-1.686-.515-.373-1.064-.2-1.562.479a15.325,15.325,0,0,0-3.1,8.179C13.293,24.877,20.549,32.72,29.3,32.72a17.175,17.175,0,0,0,5.464-.8,15.026,15.026,0,0,0,4.7-2.5" transform="translate(6.175 3.006)" fill="#e54727"/>
        <path id="Path_1355" data-name="Path 1355" d="M20.115,7.165a2.994,2.994,0,0,0,.391-.248A13.519,13.519,0,0,1,30.85,5.231a13.779,13.779,0,0,1,8.587,20.83.951.951,0,0,0-.141.231,1,1,0,0,0,.265,1.455.978.978,0,0,0,1.419-.391,15.783,15.783,0,0,0,2.591-8.871c-.019-.355-.019-.94-.089-1.544A15.817,15.817,0,0,0,22.724,3.74a14.188,14.188,0,0,0-3.673,1.81.959.959,0,0,0-.373,1.367,1.015,1.015,0,0,0,1.438.248" transform="translate(8.187 1.29)" fill="#e54727"/>
        <path id="Path_1356" data-name="Path 1356" d="M31.178,39.522a19.688,19.688,0,0,0,4.276.568H36.5a18.873,18.873,0,0,0,5.837-1.119,1.469,1.469,0,0,1,.5-.265A19.952,19.952,0,0,0,54.208,28.042a19.354,19.354,0,0,0,1.686-8.25A19.283,19.283,0,0,0,53.019,9.643,19.178,19.178,0,0,0,39.5.346,19.335,19.335,0,0,0,22.749,5.013a19.293,19.293,0,0,0-6.671,12.952,19.15,19.15,0,0,0,1.579,10.042c.089.177.143.372.231.549a.771.771,0,0,1-.265,1.047c-.585.425-1.171.87-1.775,1.295a1.2,1.2,0,0,1-.887.213,3.923,3.923,0,0,0-2.821.709c-3.566,2.271-7.186,4.472-10.753,6.742A2.682,2.682,0,0,0,0,41.1a2.77,2.77,0,0,0,.549,1.472c.923,1.295,1.863,2.591,2.822,3.868a2.678,2.678,0,0,0,4.116.551c2.342-1.916,4.666-3.868,6.991-5.82.975-.816,1.934-1.615,2.91-2.413A3.232,3.232,0,0,0,18.829,36.4a.962.962,0,0,1,.5-.744c.6-.427,1.206-.835,1.791-1.278a.777.777,0,0,1,1.119.088,20,20,0,0,0,6.049,3.921,1.258,1.258,0,0,1,.639.444A16.02,16.02,0,0,0,31,39.5c.017-.019.088-.019.177.017M16.593,37.037c-3.442,2.857-6.867,5.713-10.309,8.57a.85.85,0,0,1-1.419-.16c-.976-1.312-1.934-2.626-2.891-3.956a.844.844,0,0,1,.265-1.348c3.8-2.378,7.611-4.756,11.408-7.134a.872.872,0,0,1,1.3.2c.639.851,1.242,1.72,1.88,2.573a.79.79,0,0,1,.177.549.874.874,0,0,1-.408.709m1.934-3.069c-.248.195-.408.265-.622-.071a7.994,7.994,0,0,0-.851-1.172c-.248-.283-.143-.425.124-.585q.718-.478,1.384-1.011c.284-.231.443-.265.656.089.319.5.692.975,1.064,1.49-.62.425-1.188.833-1.756,1.26m-.763-14.23A18.179,18.179,0,1,1,35.951,38.12,18.144,18.144,0,0,1,17.764,19.739" transform="translate(0 0)" fill="#e54727"/>
        <path id="Path_1357" data-name="Path 1357" d="M24.6,27.8h0Z" transform="translate(10.873 12.289)" fill="#fff"/>
        <path id="Path_1358" data-name="Path 1358" d="M59.008,46.345a16.347,16.347,0,0,0-4.222-9.262c-3.62-3.938-8.251-6.051-13.378-7.2a3.171,3.171,0,0,1-1.224-.5A2.011,2.011,0,0,1,39.4,28.3a1.024,1.024,0,0,1,.213-1.243,19.394,19.394,0,0,1-5.837,1.119,21.552,21.552,0,0,0,3.353-.373c.249-.053.355-.017.373.267a3.678,3.678,0,0,0,.656,1.827c.071.107.16.231.248.337.2.231.213.372-.017.6-1.6,1.544-3.177,3.087-4.756,4.649a1.2,1.2,0,0,1-.887.389,1.264,1.264,0,0,1-.94-.425c-1.543-1.526-3.1-3.034-4.666-4.542-.212-.195-.337-.336-.071-.639a3.37,3.37,0,0,0,.639-1.011,4.478,4.478,0,0,0,.3-1.278c.017-.231.053-.337.195-.355a18.105,18.105,0,0,1-2.075-.673,1.25,1.25,0,0,1,.071.851,2.481,2.481,0,0,1-.231.87,2.123,2.123,0,0,1-1.615,1.171,29.708,29.708,0,0,0-9.119,3.566,5.175,5.175,0,0,0-1.028.728.771.771,0,0,0,.87,1.259,14.308,14.308,0,0,0,1.259-.746,22.416,22.416,0,0,1,4.63-2.146c.8-.267.835-.249,1.066.532a3.2,3.2,0,0,0,.336.8c.959,1.614,1.882,3.263,2.929,4.825a2.892,2.892,0,0,0,4.169.959c.833-.461,1.686-.888,2.5-1.384a1.469,1.469,0,0,1,1.667.053c.906.549,1.846,1.064,2.8,1.526a2.829,2.829,0,0,0,3.6-.94,35.277,35.277,0,0,0,3.478-6.1c.195-.5.515-.461.9-.319a26.971,26.971,0,0,1,3.993,1.791A17.11,17.11,0,0,1,56.01,41.8a14.636,14.636,0,0,1,1.472,6.423c0,1.224.017,2.431,0,3.656a2.1,2.1,0,0,1-2.254,2.235q-2.128.026-4.258,0c-.763,0-.887-.124-.887-.887-.017-1.491,0-2.963,0-4.454,0-.816-.265-1.224-.8-1.242-.551-.017-.835.408-.835,1.26v4.116c0,1.154-.053,1.207-1.188,1.207H18.519c-.94,0-1.028-.089-1.028-1.03V49.041a3.044,3.044,0,0,0-.053-.8c-.107-.425-.337-.744-.816-.709a.775.775,0,0,0-.746.8c-.017.195-.017.391-.017.6v4.188c0,.887-.107,1.011-.994,1.011-1.508,0-3.017.017-4.525,0A2.11,2.11,0,0,1,7.963,52c-.177-3.513-.053-6.991,1.543-10.256A16.345,16.345,0,0,1,11.493,38.7c.568-.709.622-1.154.177-1.491-.408-.319-.851-.195-1.4.461A15.572,15.572,0,0,0,6.6,45.706a23.972,23.972,0,0,0-.177,6.938,3.523,3.523,0,0,0,2.237,2.838c.248.107.585.089.637.48H56.117c0-.32.283-.3.479-.373a3.657,3.657,0,0,0,2.537-3.6c-.035-1.934.089-3.778-.124-5.641M30.069,37.172c-.585.265-1.135.6-1.686.9-.177.089-.336.213-.513.177a1.043,1.043,0,0,1-.959-.461c-1.011-1.65-2.022-3.318-3.015-4.985a.72.72,0,0,1,.231-1.047.858.858,0,0,1,1.188.036q2.395,2.395,4.844,4.737c.3.319.337.443-.089.639m11.48-4.241c-.958,1.579-1.916,3.175-2.874,4.754a1.159,1.159,0,0,1-1.1.585,4.524,4.524,0,0,1-1.314-.656c-1.295-.673-1.276-.692-.248-1.7,1.367-1.348,2.769-2.679,4.117-4.045a.879.879,0,0,1,1.242-.107.792.792,0,0,1,.177,1.171" transform="translate(2.759 11.914)" fill="#131931"/>
        <path id="Path_1359" data-name="Path 1359" d="M25.363,27.8h0Z" transform="translate(11.031 12.289)" fill="#fff"/>
      </g>
    </g>
  </g>
</svg>
