<svg xmlns="http://www.w3.org/2000/svg" xmlns:xlink="http://www.w3.org/1999/xlink" width="113" height="113" viewBox="0 0 113 113">
  <defs>
    <clipPath id="clip-path">
      <rect id="Rectangle_292" data-name="Rectangle 292" width="64.509" height="64.526" fill="none"/>
    </clipPath>
  </defs>
  <g id="Group_4002" data-name="Group 4002" transform="translate(-1432 -3371)">
    <g id="Ellipse_13" data-name="Ellipse 13" transform="translate(1432 3371)" fill="#fff" stroke="#e54727" stroke-width="1">
      <circle cx="56.5" cy="56.5" r="56.5" stroke="none"/>
      <circle cx="56.5" cy="56.5" r="56" fill="none"/>
    </g>
    <g id="Group_1834" data-name="Group 1834" transform="translate(1457 3396)">
      <g id="Group_1833" data-name="Group 1833" transform="translate(0 0)" clip-path="url(#clip-path)">
        <path id="Path_1317" data-name="Path 1317" d="M22.695,1.176v39.1c0,1.11,0,1.11,1.11,1.11H55.546c.421,0,.84-.1,1.21.2q0-20.542.017-41.068c0-.437-.085-.521-.521-.521Q39.364.026,22.493.017a1.655,1.655,0,0,1,.2,1.158M33.836,4.235c-.017-.37.118-.437.454-.437,3.561.016,7.14.016,10.7,0,.37,0,.454.117.437.453-.016.958-.016,1.933,0,2.891.017.37-.117.454-.453.437-1.782-.016-3.563,0-5.361,0-1.765,0-3.529-.016-5.292.017-.421,0-.521-.118-.505-.521.034-.941.034-1.882.017-2.84m-7.579.2c0-.521.118-.672.638-.656.874.051,1.765.034,2.638,0,.4-.016.521.1.521.521-.017,2.184,0,4.369-.017,6.553,0,.4.1.521.521.521q9.074-.026,18.131,0c.4,0,.52-.1.52-.521-.016-2.184,0-4.369-.016-6.553,0-.421.1-.521.521-.521.907.034,1.814.034,2.705,0,.47-.016.587.118.571.589-.017,4.94-.017,9.863-.017,14.8V20.8q0,8.193.017,16.367c0,.521-.118.638-.638.638q-12.731-.024-25.441,0c-.521,0-.638-.117-.638-.638q0-16.357-.017-32.733" transform="translate(7.736 -0.001)" fill="#e54727"/>
        <path id="Path_1318" data-name="Path 1318" d="M26.265,58.149V16.225c0-1.059,0-1.059-1.025-1.059H9.426A9.322,9.322,0,0,0,.47,22.14c-.083.352-.016.824-.47,1.008V36.759c.2.1.152.336.2.487a5.634,5.634,0,0,0,6.788,4c.521-.134.573-.016.573.454-.017,5.864,0,11.745,0,17.61H26.449a1.732,1.732,0,0,1-.184-1.16M22.668,35.5v1.63c0,5.915-.017,11.829.016,17.762,0,.538-.134.672-.655.638a21.884,21.884,0,0,0-2.588,0c-.487.016-.571-.134-.571-.589.017-4.739.017-9.494.017-14.232,0-1.5-.017-2.974.016-4.47.017-.419-.117-.52-.52-.5-.909.034-1.816.034-2.705,0-.488-.016-.571.118-.571.589.016,4.654.016,9.326.016,13.98,0,1.58-.016,3.142.017,4.723,0,.419-.118.52-.521.5-.941-.034-1.882-.034-2.84,0-.37.016-.488-.1-.437-.454a2.826,2.826,0,0,0,0-.37q0-15.752.016-31.49c0-.571-.134-.739-.706-.706-.856.05-1.714.034-2.587,0-.421-.017-.521.1-.521.521q.026,6.175,0,12.333a3.757,3.757,0,0,1-.034.757,1.9,1.9,0,0,1-2.033,1.512,1.88,1.88,0,0,1-1.7-1.865C3.764,31.886,3.731,28,3.8,24.122a5.529,5.529,0,0,1,5.276-5.344c4.4-.083,8.822-.016,13.224-.034.538,0,.37.336.37.589Z" transform="translate(0 5.216)" fill="#131931"/>
        <path id="Path_1319" data-name="Path 1319" d="M13.177.327A8.065,8.065,0,0,0,6.691,8.661a8.146,8.146,0,0,0,6.519,7.428,8.048,8.048,0,0,0,9.529-8.3A8.136,8.136,0,0,0,16.37.361c-.235-.051-.571.05-.656-.336H13.7c-.034.336-.32.269-.521.3M14.74,3.806A4.4,4.4,0,1,1,10.3,8.157,4.4,4.4,0,0,1,14.74,3.806" transform="translate(2.299 0.008)" fill="#131931"/>
        <path id="Path_1320" data-name="Path 1320" d="M28.12,14.547c-.017.421.1.521.521.521,1.613-.034,3.225-.017,4.856-.017,4.4,0,8.822-.016,13.224.017.47,0,.6-.1.589-.573a22.734,22.734,0,0,1,0-2.638c.016-.47-.118-.587-.589-.571-2.99,0-5.982-.016-8.956-.016-3.041,0-6.083.016-9.124-.017-.4,0-.539.1-.521.521q.024,1.387,0,2.773" transform="translate(9.671 3.87)" fill="#e54727"/>
        <path id="Path_1321" data-name="Path 1321" d="M28.116,20.11c-.016.47.1.589.571.571,2.974-.016,5.966-.016,8.94-.016,3.041,0,6.083-.017,9.124.016.4,0,.538-.1.521-.52q-.05-1.387,0-2.774c.016-.419-.1-.52-.521-.52-1.579.016-3.142.016-4.721.016-4.454,0-8.906.017-13.359-.016-.47,0-.606.1-.589.571a17.613,17.613,0,0,1,.034,2.672" transform="translate(9.658 5.801)" fill="#e54727"/>
        <path id="Path_1322" data-name="Path 1322" d="M46.738,22.506c-3.008.016-6,.016-9.007.016-3.041,0-6.083,0-9.124-.016-.387,0-.5.085-.488.488.034.957.017,1.931,0,2.889,0,.32.085.421.421.421q9.15-.026,18.333,0c.32,0,.421-.085.421-.421-.017-.941-.034-1.882,0-2.84,0-.419-.118-.538-.555-.538" transform="translate(9.671 7.74)" fill="#e54727"/>
      </g>
    </g>
  </g>
</svg>
