<svg xmlns="http://www.w3.org/2000/svg" xmlns:xlink="http://www.w3.org/1999/xlink" width="113" height="113" viewBox="0 0 113 113">
  <defs>
    <clipPath id="clip-path">
      <rect id="Rectangle_290" data-name="Rectangle 290" width="58.642" height="62.467" fill="none"/>
    </clipPath>
  </defs>
  <g id="Group_3992" data-name="Group 3992" transform="translate(-1170 -2818)">
    <g id="Ellipse_5" data-name="Ellipse 5" transform="translate(1170 2818)" fill="#fff" stroke="#e54727" stroke-width="1">
      <circle cx="56.5" cy="56.5" r="56.5" stroke="none"/>
      <circle cx="56.5" cy="56.5" r="56" fill="none"/>
    </g>
    <g id="Group_1830" data-name="Group 1830" transform="translate(1197.2 2843.756)">
      <g id="Group_1829" data-name="Group 1829" transform="translate(0 0)" clip-path="url(#clip-path)">
        <path id="Path_1311" data-name="Path 1311" d="M12.687,37.126c-2.555-1.237-5.094-2.458-7.649-3.695a.918.918,0,0,0-1.384.39c-.228.5-.017.961.6,1.27.977.488,1.969.943,2.946,1.432,1.579.765,3.174,1.546,4.753,2.3.715.341,1.416-.049,1.416-.635a1.084,1.084,0,0,0-.684-1.058" transform="translate(0.432 4.035)" fill="#e54727"/>
        <path id="Path_1312" data-name="Path 1312" d="M8.815,39.149c-1.254-.619-2.523-1.221-3.776-1.823-.178-.081-.373-.146-.5-.2a.945.945,0,0,0-.96.716.915.915,0,0,0,.57,1.09c1.3.635,2.588,1.254,3.89,1.873.635.308,1.156.163,1.4-.342.26-.537.048-.993-.619-1.319" transform="translate(0.429 4.503)" fill="#e54727"/>
        <path id="Path_1313" data-name="Path 1313" d="M11.593,9.961q10.229,4.955,20.474,9.9c2,.977,4,1.953,6.022,2.9a.78.78,0,0,1,.521.814c-.017,3.353-.017,6.705-.017,10.058,0,1.189.57,1.531,1.628,1.026,2.066-.993,4.117-2,6.2-2.962a1.347,1.347,0,0,0,.862-1.384c-.016-3.369,0-6.754-.016-10.124v-.065a1.268,1.268,0,0,1,.016-.243c.017-.537,0-1.807-.78-2.3Q33.882,11.474,21.244,5.37a1.38,1.38,0,0,1-.375-.2l-2.2-1.139L8.956,8.723,11.4,9.879c.065.033.13.049.2.082m33.87,11.084c-.017,2.881,0,5.761-.017,8.643,0,.2.065.406-.179.52-1.579.749-3.157,1.514-4.736,2.278a.822.822,0,0,1-.081-.57c0-2.8,0-5.6-.017-8.4a.7.7,0,0,1,.472-.782c1.384-.635,2.75-1.3,4.1-1.969.359-.212.456-.163.456.277M18.3,6.282c.342-.179.586-.017.847.114,4.02,1.936,8.024,3.873,12.043,5.81,4.346,2.1,8.675,4.2,13.021,6.3l.619.309c-1.791.862-3.467,1.661-5.128,2.474-.277.147-.472,0-.667-.113q-11.6-5.591-23.209-11.2c-.831-.407-1.661-.814-2.555-1.237,1.709-.847,3.385-1.628,5.029-2.458" transform="translate(1.086 0.489)" fill="#e54727"/>
        <path id="Path_1314" data-name="Path 1314" d="M58.642,19.791V15.1a1.533,1.533,0,0,0-.96-1.562Q43.936,6.95,30.192.309C30.029.228,29.8.212,29.7,0h-.732a1.319,1.319,0,0,1-.651.375c-2.848,1.384-5.713,2.766-8.561,4.134l2.2,1.139a.934.934,0,0,1-.1-.13C24.283,4.346,26.708,3.19,29.118,2c.293-.146.455.017.667.131,5.159,2.506,10.3,4.98,15.462,7.47,3.433,1.661,6.852,3.3,10.367,5.013-.585.277-1.122.537-1.644.782-1.856.895-3.727,1.79-5.583,2.7a.67.67,0,0,1-.716,0c-.016-.016-.048-.016-.065-.033.782.489.814,1.758.782,2.3a.567.567,0,0,1,.342-.423c2.62-1.238,5.225-2.507,7.829-3.76a2.347,2.347,0,0,0,.228-.082V46.728a.707.707,0,0,1-.455.782Q43.513,53.661,30.7,59.863c-.131.065-.229.178-.407.13a1.269,1.269,0,0,1-.049-.651q0-14.917-.016-29.833a.874.874,0,0,1,.618-.944c1.806-.847,3.581-1.726,5.371-2.588a2.059,2.059,0,0,0,.326-.163.94.94,0,0,0,.455-1.237.9.9,0,0,0-1.254-.407c-1.122.52-2.229,1.074-3.336,1.611-.9.423-1.791.847-2.685,1.3a.778.778,0,0,1-.8,0c-.667-.342-1.334-.667-2.018-.977a.921.921,0,1,0-.8,1.644c.619.309,1.237.619,1.856.9a.649.649,0,0,1,.455.667c-.016,10.107,0,20.214-.016,30.321,0,.114-.017.244-.033.424-1.433-.684-2.8-1.351-4.2-2.018Q13.281,52.791,2.376,47.526c-.308-.147-.537-.277-.537-.733q.025-15.184.017-30.386v-.261c.244-.048.423.114.6.2l19.336,9.326a1.074,1.074,0,0,0,1.252,0,.88.88,0,0,0,.294-.927c-.082-.407-.424-.57-.766-.732-2.6-1.254-5.224-2.523-7.829-3.776-3.727-1.791-7.454-3.6-11.164-5.388-.147-.065-.277-.163-.489-.277,1.286-.618,2.572-1.237,3.841-1.855.862-.424,1.709-.831,2.571-1.238.732-.358,1.481-.667,2.181-1.057a.877.877,0,0,1,.749-.065L9.994,9.2c-1.563.749-3.125,1.5-4.688,2.263-1.464.7-2.93,1.416-4.394,2.116A1.435,1.435,0,0,0,0,15.038Q.1,31.2.049,47.363a1.48,1.48,0,0,0,.96,1.546Q14.73,55.5,28.434,62.125c.179.082.423.114.537.342H29.7c1.3-.8,2.718-1.384,4.1-2.051Q45.768,54.63,57.73,48.876a1.422,1.422,0,0,0,.912-1.464q-.025-13.793,0-27.62" transform="translate(0 0)" fill="#131931"/>
      </g>
    </g>
  </g>
</svg>
