<svg xmlns="http://www.w3.org/2000/svg" xmlns:xlink="http://www.w3.org/1999/xlink" width="113" height="113" viewBox="0 0 113 113">
  <defs>
    <clipPath id="clip-path">
      <rect id="Rectangle_311" data-name="Rectangle 311" width="66.188" height="62.467" fill="none"/>
    </clipPath>
  </defs>
  <g id="Group_3993" data-name="Group 3993" transform="translate(-1432 -2818)">
    <g id="Ellipse_6" data-name="Ellipse 6" transform="translate(1432 2818)" fill="#fff" stroke="#e54727" stroke-width="1">
      <circle cx="56.5" cy="56.5" r="56.5" stroke="none"/>
      <circle cx="56.5" cy="56.5" r="56" fill="none"/>
    </g>
    <g id="Group_1848" data-name="Group 1848" transform="translate(1456 2842.756)">
      <g id="Group_1847" data-name="Group 1847" transform="translate(0 0)" clip-path="url(#clip-path)">
        <path id="Path_1348" data-name="Path 1348" d="M36.891,4.918c.934-1.09,1.887-2.181,2.821-3.289A.935.935,0,0,0,39.644.243a.961.961,0,0,0-1.385.121c-.1.1-.191.226-.294.346C35.437,3.636,32.91,6.545,30.4,9.487a1.359,1.359,0,0,1-.848.52c1.038,0,2.06,0,2.977.017.121-.173.208-.277.294-.381q2.05-2.364,4.068-4.726" transform="translate(5.94 0.001)" fill="#e54727"/>
        <path id="Path_1349" data-name="Path 1349" d="M27.774,10.025a1.272,1.272,0,0,1-1.142-.519c-2.528-2.96-5.073-5.9-7.6-8.846-.086-.1-.173-.208-.259-.294A.979.979,0,0,0,17.388.227a.952.952,0,0,0-.052,1.436c1.28,1.506,2.579,3.012,3.877,4.518,1.074,1.247,2.164,2.51,3.306,3.843-.346.017-.57.035-.8.052-.8.018-1.593.018-2.389.035,1.16-.017,5.505-.086,9.694-.1-1.109-.018-2.181,0-3.255.017" transform="translate(3.424 0)" fill="#e54727"/>
        <path id="Path_1350" data-name="Path 1350" d="M.454,43.6c.191,2.475.346,4.95.727,7.409a6.571,6.571,0,0,0,6.111,5.557c.987.086,1.991.052,2.96.225a.927.927,0,0,1,.866.814c.121.605.294,1.212.416,1.835a1.27,1.27,0,0,0,.311.692.694.694,0,0,0,.831.191.733.733,0,0,0,.432-.8c-.052-.588-.241-1.143-.346-1.714-.052-.329-.052-.555.052-.675v-.035h.035a.848.848,0,0,1,.606-.156c1.35.017,2.718.1,4.068.173.243.018.467.052.71.052,6.837.191,13.676.364,20.513.243,1.922-.035,3.843-.1,5.765-.121a1.623,1.623,0,0,0,.64-.121.74.74,0,0,0,.5-.813.638.638,0,0,0-.71-.606c-1.574-.017-3.15-.068-4.726.035-.449.035-.9.086-1.35.086-2.3,0-4.621-.035-6.924,0-3.411.07-6.82-.086-10.231-.173-3.722-.086-7.461-.243-11.182-.519-1.074-.086-2.147-.1-3.22-.226a5.06,5.06,0,0,1-4.623-4.5c-.363-3.133-.605-6.267-.8-9.417-.241-3.895-.311-7.808-.208-11.7.086-3.323.243-6.629.588-9.936.139-1.42.243-2.839.45-4.242a4.975,4.975,0,0,1,4.847-4.379c.8-.035,1.593-.156,2.389-.139a1.432,1.432,0,0,0,.381-.052c.623-.121.9-.416.849-.866-.053-.484-.4-.675-1.074-.657-.969.017-1.938.121-2.909.173a6.68,6.68,0,0,0-6.058,5.747C.835,17.5.61,20.008.454,22.518c-.07,1.247-.121,2.493-.259,3.739-.018.226-.226,8.119-.191,8.466-.035.311.364,7.547.45,8.88" transform="translate(0 1.823)" fill="#131931"/>
        <path id="Path_1351" data-name="Path 1351" d="M59.145,47.49c.364-2.96.64-5.921.814-8.9a116.742,116.742,0,0,0-.831-21.707,4.449,4.449,0,0,0-4.121-3.81c-7.582-.519-15.164-.8-22.763-.778q-11.5-.027-22.971.8a4.466,4.466,0,0,0-4,3.792c-.468,3.6-.779,7.2-.918,10.836a117.961,117.961,0,0,0,.9,19.768,4.473,4.473,0,0,0,4.121,3.964c3.722.294,7.444.467,11.182.588a332.218,332.218,0,0,0,34.483-.588,4.469,4.469,0,0,0,4.1-3.964m-26.953,2.8q-11.3.025-22.573-.779a2.447,2.447,0,0,1-2.442-2.3A113.618,113.618,0,0,1,6.52,23.825c.174-2.2.382-4.379.676-6.56a2.506,2.506,0,0,1,2.371-2.251A325.671,325.671,0,0,1,43.2,14.408c3.878.121,7.755.312,11.633.606a2.477,2.477,0,0,1,2.372,2.233,113.625,113.625,0,0,1,.675,23.387c-.156,2.181-.364,4.345-.658,6.491a2.446,2.446,0,0,1-2.44,2.372q-11.3.83-22.591.8" transform="translate(0.858 2.472)" fill="#e54727"/>
        <path id="Path_1352" data-name="Path 1352" d="M62.945,15.254A6.849,6.849,0,0,0,56.661,9.23C50.17,8.814,43.7,8.5,37.186,8.417c-.294,0-.588-.018-.969-.035l.018-.018c-.936-.017-1.94-.017-2.978-.017a1.626,1.626,0,0,1-.294.017c-.259,0-.519-.017-.778-.017-4.172.017-8.534.086-9.694.1q-5.114.1-10.23.364c-.745.035-1.178.432-1.143,1.021s.5.952,1.247.918c4.345-.241,8.707-.346,13.069-.416q15.606-.232,31.178.849a4.821,4.821,0,0,1,4.344,4.206c.329,2.787.588,5.575.763,8.379a151.275,151.275,0,0,1-.763,27,4.785,4.785,0,0,1-4.292,4.172c-2.2.155-4.4.276-6.6.4-1.177.07-2.371.121-3.549.191a.978.978,0,0,0-.918.71.92.92,0,0,0,.294.986,1.161,1.161,0,0,0,.918.226c1.386-.07,2.753-.121,4.19-.191-.191.761-.364,1.471-.52,2.181a1,1,0,0,0,.71,1.316c.572.121,1.039-.208,1.195-.9.19-.761.381-1.506.519-2.267a.524.524,0,0,1,.588-.5c1.039-.052,2.06-.138,3.1-.208a6.622,6.622,0,0,0,6.162-5.436,106.429,106.429,0,0,0,1.022-11.719,150.188,150.188,0,0,0-.831-24.477" transform="translate(2.234 1.678)" fill="#131931"/>
      </g>
    </g>
  </g>
</svg>
