<svg xmlns="http://www.w3.org/2000/svg" xmlns:xlink="http://www.w3.org/1999/xlink" width="113" height="113" viewBox="0 0 113 113">
  <defs>
    <clipPath id="clip-path">
      <rect id="Rectangle_284" data-name="Rectangle 284" width="68.963" height="68.928" transform="translate(0 0)" fill="none"/>
    </clipPath>
  </defs>
  <g id="Group_3994" data-name="Group 3994" transform="translate(-920 -3001)">
    <g id="Ellipse_9" data-name="Ellipse 9" transform="translate(920 3001)" fill="#fff" stroke="#e54727" stroke-width="1">
      <circle cx="56.5" cy="56.5" r="56.5" stroke="none"/>
      <circle cx="56.5" cy="56.5" r="56" fill="none"/>
    </g>
    <g id="Group_1818" data-name="Group 1818" transform="translate(942.019 3023.036)">
      <g id="Group_1817" data-name="Group 1817" clip-path="url(#clip-path)">
        <path id="Path_1287" data-name="Path 1287" d="M5.817,22.325A1.336,1.336,0,0,0,4.5,23.661a1.386,1.386,0,0,0,1.319,1.353,1.413,1.413,0,0,0,1.37-1.387,1.4,1.4,0,0,0-1.37-1.3" fill="#e54727"/>
        <path id="Path_1288" data-name="Path 1288" d="M46.552,3.454a1.348,1.348,0,0,0-1.268,1.387,1.373,1.373,0,0,0,1.369,1.3A1.41,1.41,0,0,0,47.972,4.79a1.389,1.389,0,0,0-1.42-1.336" fill="#e54727"/>
        <path id="Path_1289" data-name="Path 1289" d="M64.121,45.018A1.385,1.385,0,0,0,62.836,46.4a1.344,1.344,0,0,0,2.688-.051,1.385,1.385,0,0,0-1.4-1.336" fill="#e54727"/>
        <path id="Path_1290" data-name="Path 1290" d="M68.433,51.325a5.8,5.8,0,0,0-.372-1.082,1.153,1.153,0,1,0-2.2.693c.017.085.034.152.05.22a11.3,11.3,0,0,1,.609,2.4,10.59,10.59,0,0,1-.1,3.72,11.239,11.239,0,0,1-21.763,1.2,10.845,10.845,0,0,1-.507-3.3v-.372a10.708,10.708,0,0,1,.254-2.1v-.017c.033-.136.067-.288.1-.423.034-.152.085-.3.135-.457a.305.305,0,0,0,.034-.118c.034-.118.085-.237.119-.355a1.527,1.527,0,0,1,.067-.169c.034-.085.068-.186.1-.271s.067-.152.1-.236c.017-.051.051-.119.068-.17A11.254,11.254,0,0,1,59.3,44.629a4.2,4.2,0,0,0,.49.084,1.077,1.077,0,0,0,1.184-.794,1.184,1.184,0,0,0-.592-1.37,2.9,2.9,0,0,0-.626-.254,13.388,13.388,0,0,0-13.274,2.6,12.228,12.228,0,0,0-2.012,2.165.807.807,0,0,1-1.2.27c-1.708-.862-3.365-1.809-5.056-2.688-1.793-.947-3.568-1.894-5.361-2.858-.219-.118-.439-.22-.659-.355-.761-.457-.778-.524-.474-1.336a16.266,16.266,0,0,0,0-11.481c-.287-.812-.287-.863.457-1.286,2.266-1.251,4.549-2.451,6.831-3.669,1.387-.744,2.774-1.488,4.16-2.215.778-.406.863-.372,1.387.338a13.566,13.566,0,0,0,19.006,2.621A13.248,13.248,0,0,0,68.94,13.042a12.931,12.931,0,0,0-3.331-8.353A13.4,13.4,0,0,0,54.787,0,12.915,12.915,0,0,0,50.644.85a1.794,1.794,0,0,0-.253.118A1.163,1.163,0,0,0,49.7,2.406a1.119,1.119,0,0,0,1.116.761A11.232,11.232,0,0,1,66.59,13.025c.017.287.017.592.017.9a10.7,10.7,0,0,1-1.133,4.549c-.085.169-.152.406-.338.49a11.216,11.216,0,0,1-9.69,5.7h-.1a11.207,11.207,0,0,1-9.774-5.716,1.275,1.275,0,0,1-.253-.355,10.442,10.442,0,0,1-1.184-5.648,11.034,11.034,0,0,1,.761-3.6.918.918,0,0,0,0-.3,1.145,1.145,0,0,0-.879-1.082,1.1,1.1,0,0,0-1.252.575,4.545,4.545,0,0,0-.389,1,13.527,13.527,0,0,0,.1,8.421c.3.947.321.963-.524,1.437-2.334,1.3-4.718,2.519-7.068,3.788-1.252.676-2.5,1.336-3.754,2.012-.863.456-.913.44-1.488-.338a16.245,16.245,0,0,0-18.787-5.766c-.473.169-.93.355-1.386.558a3,3,0,0,0-.761.422A1.135,1.135,0,0,0,8.32,21.6a1.063,1.063,0,0,0,1.234.524,13.914,13.914,0,0,1,19.26,5.716,14.06,14.06,0,0,1,1.573,7.119,12.92,12.92,0,0,1-1.37,5.461c-.1.186-.169.44-.372.508a13.9,13.9,0,0,1-12.192,7.2H16.1a13.611,13.611,0,0,1-4.329-.812A13.975,13.975,0,0,1,4.3,40.959a.939.939,0,0,1-.27-.355,14.829,14.829,0,0,1-1.37-4.565,15.182,15.182,0,0,1-.1-1.742v-.44a13.706,13.706,0,0,1,1.64-6.2.957.957,0,0,0,.051-.305A1.05,1.05,0,0,0,3.6,26.2a1.057,1.057,0,0,0-1.285.254,3.838,3.838,0,0,0-.71,1.218A17.115,17.115,0,0,0,.423,31.676c-.051.338.068.8-.423.947v1.623c.254.339.1.728.119,1.1v.676a15.542,15.542,0,0,0,4.937,10.2,16.273,16.273,0,0,0,18.837,2.841,14.83,14.83,0,0,0,5.868-5.039c.423-.626.727-.642,1.353-.3,3.635,1.995,7.3,3.94,10.957,5.884.372.2.507.338.338.812A13.72,13.72,0,0,0,53.367,68.776c.118.017.287-.034.338.152h1.082a.6.6,0,0,1,.812,0h1.082c.017-.338.3-.271.507-.305a13.244,13.244,0,0,0,7.626-3.72,13.419,13.419,0,0,0,3.974-7.863,12.773,12.773,0,0,0-.355-5.715" fill="#131931"/>
        <path id="Path_1291" data-name="Path 1291" d="M64.949,19.078a.245.245,0,0,1-.033-.1c-.237-.034-.322-.3-.423-.49a6.276,6.276,0,0,0-3.653-3.112c-.676-.22-.71-.321-.456-.981a7.249,7.249,0,0,0-.169-5.9,5.286,5.286,0,0,0-5.344-2.925,5.347,5.347,0,0,0-4.836,4.464,7.729,7.729,0,0,0,.423,4.5c.186.406.068.625-.338.761a6.483,6.483,0,0,0-3.94,3.365c-.118.236-.237.355-.355.372,0,.017-.017.017-.017.033,0-.016-.017-.016-.017-.033a.293.293,0,0,1-.186-.1,11.207,11.207,0,0,0,9.774,5.716H55.4a11.051,11.051,0,0,1-6.849-2.385.911.911,0,0,1-.423-.879,3.771,3.771,0,0,1,2.943-3.7c.169-.051.355-.085.524-.135a3.259,3.259,0,0,1,2.266,0,4.881,4.881,0,0,0,3.618-.17,1.177,1.177,0,0,1,.9-.05c.575.186,1.183.287,1.741.473A3.758,3.758,0,0,1,62.65,21.6a.851.851,0,0,1-.406.642,11.017,11.017,0,0,1-6.781,2.4,11.234,11.234,0,0,0,9.689-5.7.282.282,0,0,1-.169.051.274.274,0,0,1-.034.084M58.3,12.6a2.957,2.957,0,0,1-5.868-.271c-.017-.236,0-.49,0-.744-.017-1.775.626-2.857,1.945-3.348A2.951,2.951,0,0,1,58.3,10.522a6.155,6.155,0,0,1,0,2.08" fill="#e54727"/>
        <path id="Path_1292" data-name="Path 1292" d="M28.154,40.418a7.907,7.907,0,0,0-5.275-4.278c-.406-.118-.626-.2-.677-.338h-.034a.059.059,0,0,0,.017-.034c-.034-.152.051-.355.237-.693a8.928,8.928,0,0,0,.862-5.039A6.828,6.828,0,0,0,22.2,26.671a6.617,6.617,0,0,0-6.933-3.027,6.7,6.7,0,0,0-5.377,5.327,8.9,8.9,0,0,0,.829,6.273c.3.524.219.677-.491.863a8.067,8.067,0,0,0-4.7,3.179c-.287.405-.473.862-.727,1.285-.186.3-.321.422-.473.338A13.909,13.909,0,0,0,11.8,47.267,14.276,14.276,0,0,1,6.95,44.24a.865.865,0,0,1-.271-.778,5.206,5.206,0,0,1,3.839-4.819c.794-.237,1.606-.423,2.4-.643a1.328,1.328,0,0,1,.845.1,6.723,6.723,0,0,0,5.479,0,1.27,1.27,0,0,1,.964-.068c.9.271,1.826.457,2.7.761a5.131,5.131,0,0,1,3.416,4.786.831.831,0,0,1-.27.642,14.078,14.078,0,0,1-9.74,3.855h.169a13.917,13.917,0,0,0,12.191-7.2.148.148,0,0,1-.084.017c-.254.051-.338-.254-.44-.474m-7.8-6.831a4.236,4.236,0,0,1-4.684,2.35,4.321,4.321,0,0,1-3.4-4.3c-.017-.2,0-.405,0-.744a4.3,4.3,0,0,1,2.317-4.362,4.22,4.22,0,0,1,6.155,3.348,6.93,6.93,0,0,1-.389,3.7" fill="#e54727"/>
        <path id="Path_1293" data-name="Path 1293" d="M65.457,60.084c-.118.186-.2.456-.456.473a.129.129,0,0,0-.034.068c-.017-.017-.017-.051-.034-.068-.237-.034-.321-.27-.423-.456a6.257,6.257,0,0,0-3.686-3.162c-.66-.22-.693-.305-.423-1a7.443,7.443,0,0,0-.084-5.715,5.414,5.414,0,0,0-10.248,1.386,7.5,7.5,0,0,0,.423,4.43c.22.474.034.694-.423.846a6.373,6.373,0,0,0-3.787,3.247c-.322.608-.592.591-.913-.034a10.431,10.431,0,0,1-.677-1.64,11.239,11.239,0,0,0,21.763-1.2,12.994,12.994,0,0,1-.761,2.384,3.5,3.5,0,0,1-.237.44M52.437,53.1c0-1.741.676-2.857,1.978-3.314a2.96,2.96,0,0,1,3.923,2.6,10.756,10.756,0,0,1,.017,1.285,2.959,2.959,0,1,1-5.918-.017V53.1m10.23,10.129c-.017.3-.2.423-.406.575a11.065,11.065,0,0,1-6.781,2.4,11.245,11.245,0,0,1-7-2.435.854.854,0,0,1-.355-.8A3.761,3.761,0,0,1,51.1,59.221c.186-.05.389-.1.592-.152a2.991,2.991,0,0,1,2.13.017,4.864,4.864,0,0,0,3.551-.118,1.547,1.547,0,0,1,1.1-.051c.592.186,1.218.321,1.81.524a3.738,3.738,0,0,1,2.384,3.788" fill="#e54727"/>
      </g>
    </g>
  </g>
</svg>
