<svg xmlns="http://www.w3.org/2000/svg" xmlns:xlink="http://www.w3.org/1999/xlink" width="113" height="113" viewBox="0 0 113 113">
  <defs>
    <clipPath id="clip-path">
      <rect id="Rectangle_306" data-name="Rectangle 306" width="61.157" height="56.91" fill="none"/>
    </clipPath>
  </defs>
  <g id="Group_3995" data-name="Group 3995" transform="translate(-1170 -3001)">
    <g id="Ellipse_10" data-name="Ellipse 10" transform="translate(1170 3001)" fill="#fff" stroke="#e54727" stroke-width="1">
      <circle cx="56.5" cy="56.5" r="56.5" stroke="none"/>
      <circle cx="56.5" cy="56.5" r="56" fill="none"/>
    </g>
    <g id="Group_1838" data-name="Group 1838" transform="translate(1196.855 3030)">
      <g id="Group_1837" data-name="Group 1837" transform="translate(0 0)" clip-path="url(#clip-path)">
        <path id="Path_1328" data-name="Path 1328" d="M56.492,21.243,50.76,2.123A2.954,2.954,0,0,0,48,0H12.959A2.935,2.935,0,0,0,10.2,2.123L4.466,21.243A5.224,5.224,0,0,0,0,26.337V43.323A4.846,4.846,0,0,0,2.123,47.36v8.7a.913.913,0,0,0,.857.847H9.35a.911.911,0,0,0,.847-.847V48.417H50.969v7.646a.911.911,0,0,0,.847.847h6.37a.9.9,0,0,0,.847-.847v-8.7a4.822,4.822,0,0,0,2.123-4.037V26.337a5.624,5.624,0,0,0-4.665-5.094M11.683,2.552A1.339,1.339,0,0,1,12.959,1.5H48a1.328,1.328,0,0,1,1.266,1.057L49.9,4.247H11.045Zm-1.067,3.19H50.331l4.675,15.5H6.161ZM8.493,55.216H3.609V48a2.756,2.756,0,0,0,1.276.209H8.493Zm48.846,0H52.454V48.208h3.4A2.756,2.756,0,0,0,57.13,48v7.217Zm2.123-11.254a3.633,3.633,0,0,1-3.4,2.761H5.1a3.405,3.405,0,0,1-3.4-2.761V26.128a3.353,3.353,0,0,1,3.4-3.4H56.063a3.354,3.354,0,0,1,3.4,3.4Z" transform="translate(0 -0.001)" fill="#131931"/>
        <path id="Path_1329" data-name="Path 1329" d="M48.931,30.826a5.094,5.094,0,1,1,5.094-5.094,5.162,5.162,0,0,1-5.094,5.094m0-8.493a3.4,3.4,0,1,0,3.4,3.4,3.353,3.353,0,0,0-3.4-3.4M10.7,30.826a5.162,5.162,0,0,1-5.094-5.094A4.984,4.984,0,0,1,10.7,20.848a5.179,5.179,0,0,1,5.1,5.1,4.991,4.991,0,0,1-5.1,4.875m0-8.493a3.36,3.36,0,0,0-3.4,3.4,3.542,3.542,0,0,0,3.4,3.609,3.351,3.351,0,0,0,3.4-3.389,3.544,3.544,0,0,0-3.4-3.619M42.561,11.717a.779.779,0,0,1-.638-.209l-6.37-8.493a.947.947,0,0,1,0-1.067c.419-.209.847-.209,1.057.219l6.37,8.493c.219.419.219.847-.209,1.057ZM44.684,7.9c-.219,0-.429-.209-.638-.209L39.8,1.947a.915.915,0,0,1,0-1.057c.419-.209.847-.209,1.057.209L45.1,6.832c.219.429.219.857-.209,1.067ZM59.547,37.206H.085V35.721H59.547Zm-19.11-8.5H19.2V27.218H40.438Zm0-4.247H19.2V22.971H40.438ZM58.062,11.079H56.577V4.709h1.485Zm-55.216,0H1.361V4.709H2.846Z" transform="translate(0.762 6.755)" fill="#e54727"/>
      </g>
    </g>
  </g>
</svg>
