<svg xmlns="http://www.w3.org/2000/svg" xmlns:xlink="http://www.w3.org/1999/xlink" width="113" height="113" viewBox="0 0 113 113">
  <defs>
    <clipPath id="clip-path">
      <rect id="Rectangle_283" data-name="Rectangle 283" width="35.314" height="74.757" fill="none"/>
    </clipPath>
  </defs>
  <g id="Group_3996" data-name="Group 3996" transform="translate(-1432 -3001)">
    <g id="Ellipse_11" data-name="Ellipse 11" transform="translate(1432 3001)" fill="#fff" stroke="#e54727" stroke-width="1">
      <circle cx="56.5" cy="56.5" r="56.5" stroke="none"/>
      <circle cx="56.5" cy="56.5" r="56" fill="none"/>
    </g>
    <g id="Group_1816" data-name="Group 1816" transform="translate(1470.844 3020.122)">
      <g id="Group_1815" data-name="Group 1815" clip-path="url(#clip-path)">
        <path id="Path_1277" data-name="Path 1277" d="M148.788,125.475c-.029.058-.058.117-.088.19.029-.073.058-.131.088-.19" transform="translate(-126.992 -107.157)" fill="#e54727"/>
        <path id="Path_1278" data-name="Path 1278" d="M16.424,160.277V146.992a15.964,15.964,0,0,0-3.11-5.431,16.444,16.444,0,0,0,2.7.234,1.266,1.266,0,0,0,.409-.073V135.5a15.964,15.964,0,0,0-3.11-5.431,16.442,16.442,0,0,0,2.7.234,1.267,1.267,0,0,0,.409-.073v-6.219a15.964,15.964,0,0,0-3.11-5.431,16.444,16.444,0,0,0,2.7.234,1.266,1.266,0,0,0,.409-.073v-6.219a16.057,16.057,0,0,0-15.2-10.949A1.224,1.224,0,0,0,0,102.8a15.992,15.992,0,0,0,3.927,10.5,16.444,16.444,0,0,0-2.7-.234A1.224,1.224,0,0,0,0,114.291a15.992,15.992,0,0,0,3.927,10.5,16.444,16.444,0,0,0-2.7-.234A1.224,1.224,0,0,0,0,125.78a15.992,15.992,0,0,0,3.927,10.5,16.442,16.442,0,0,0-2.7-.234A1.224,1.224,0,0,0,0,137.269a16.031,16.031,0,0,0,16.015,16.015,1.267,1.267,0,0,0,.409-.073v7.066A1.224,1.224,0,0,0,17.65,161.5a1.234,1.234,0,0,1-1.226-1.226m-13.9-56.205a13.586,13.586,0,0,1,12.2,12.2,13.6,13.6,0,0,1-12.2-12.2m0,11.489a13.586,13.586,0,0,1,12.2,12.2,13.573,13.573,0,0,1-12.2-12.2m0,11.5a13.586,13.586,0,0,1,12.2,12.2,13.586,13.586,0,0,1-12.2-12.2m0,11.5a13.586,13.586,0,0,1,12.2,12.2,13.6,13.6,0,0,1-12.2-12.2" transform="translate(0 -86.746)" fill="#e54727"/>
        <path id="Path_1279" data-name="Path 1279" d="M144.6,115.417a1.226,1.226,0,1,0,0-2.453,14.827,14.827,0,0,0-2.686.234,15.956,15.956,0,0,0,3.007-5.153,1.233,1.233,0,0,0-2.321-.832,13.615,13.615,0,0,1-11.489,8.978A13.581,13.581,0,0,1,144.6,103.928a1.226,1.226,0,1,0,0-2.453,16.057,16.057,0,0,0-15.2,10.949v6.219a1.267,1.267,0,0,0,.409.073,16.583,16.583,0,0,0,2.7-.234,15.963,15.963,0,0,0-3.11,5.431V153.14a1.267,1.267,0,0,0,.409.073,16.063,16.063,0,0,0,15.11-10.672,1.233,1.233,0,0,0-2.321-.832,13.615,13.615,0,0,1-11.489,8.978A13.581,13.581,0,0,1,144.6,138.425a1.226,1.226,0,1,0,0-2.453,14.827,14.827,0,0,0-2.686.234,15.956,15.956,0,0,0,3.007-5.153,1.233,1.233,0,1,0-2.321-.832,13.615,13.615,0,0,1-11.489,8.978A13.581,13.581,0,0,1,144.6,126.935a1.226,1.226,0,1,0,0-2.453,14.828,14.828,0,0,0-2.686.234,15.956,15.956,0,0,0,3.007-5.153,1.233,1.233,0,0,0-2.321-.832,13.615,13.615,0,0,1-11.489,8.978A13.583,13.583,0,0,1,144.6,115.417M132.51,141.476a15.964,15.964,0,0,0-3.11,5.431v-5.27a1.267,1.267,0,0,0,.409.073,16.443,16.443,0,0,0,2.7-.234m0-11.5a15.963,15.963,0,0,0-3.11,5.431v-5.27a1.267,1.267,0,0,0,.409.073,16.443,16.443,0,0,0,2.7-.234" transform="translate(-110.509 -86.661)" fill="#e54727"/>
        <path id="Path_1280" data-name="Path 1280" d="M112.5,303.045v0Z" transform="translate(-96.076 -254.303)" fill="#131931"/>
        <path id="Path_1281" data-name="Path 1281" d="M112.5,224.26v0Z" transform="translate(-96.076 -187.007)" fill="#131931"/>
        <path id="Path_1282" data-name="Path 1282" d="M122.226,462.426A1.224,1.224,0,0,1,121,463.652a1.234,1.234,0,0,0,1.226-1.226v0Z" transform="translate(-103.335 -388.896)" fill="#131931"/>
        <path id="Path_1283" data-name="Path 1283" d="M112.5,381.845v0Z" transform="translate(-96.076 -321.6)" fill="#131931"/>
        <path id="Path_1284" data-name="Path 1284" d="M115.053,165.087V155.9a15.473,15.473,0,0,1-1.226,1.314,17.049,17.049,0,0,1-1.226-1.343V206.62a1.226,1.226,0,1,0,2.453,0V165.087Z" transform="translate(-96.162 -133.119)" fill="#131931"/>
        <path id="Path_1285" data-name="Path 1285" d="M148.615,126.675c0,.015-.015.029-.015.044,0-.015.015-.029.015-.044" transform="translate(-126.906 -108.182)" fill="#131931"/>
        <path id="Path_1286" data-name="Path 1286" d="M92.727,5.7a1.235,1.235,0,1,0-2.292.92,13.55,13.55,0,0,1-2.117,13.694A13.587,13.587,0,0,1,89.18,2.1,1.228,1.228,0,0,0,87.442.361,15.978,15.978,0,0,0,82.771,11.31a12.992,12.992,0,0,0,.876,5.65,15.971,15.971,0,0,0,2.175,4.161,17.71,17.71,0,0,0,1.27,1.635c.38.438.788.891,1.226,1.343a15.473,15.473,0,0,0,1.226-1.314,20.066,20.066,0,0,0,1.708-2.321,15.75,15.75,0,0,0,1.08-1.927c0-.015.015-.029.015-.044.029-.058.058-.117.088-.19a14.161,14.161,0,0,0,1.416-6.029A15.881,15.881,0,0,0,92.727,5.7" transform="translate(-70.654)" fill="#e54727"/>
      </g>
    </g>
  </g>
</svg>
