<svg xmlns="http://www.w3.org/2000/svg" xmlns:xlink="http://www.w3.org/1999/xlink" width="113" height="113" viewBox="0 0 113 113">
  <defs>
    <clipPath id="clip-path">
      <rect id="Rectangle_285" data-name="Rectangle 285" width="60.393" height="59.494" fill="none"/>
    </clipPath>
  </defs>
  <g id="Group_3999" data-name="Group 3999" transform="translate(-1432 -3184)">
    <g id="Ellipse_12" data-name="Ellipse 12" transform="translate(1432 3184)" fill="#fff" stroke="#e54727" stroke-width="1">
      <circle cx="56.5" cy="56.5" r="56.5" stroke="none"/>
      <circle cx="56.5" cy="56.5" r="56" fill="none"/>
    </g>
    <g id="Group_1820" data-name="Group 1820" transform="translate(1455 3207)">
      <g id="Group_1819" data-name="Group 1819" transform="translate(0 0)" clip-path="url(#clip-path)">
        <path id="Path_1294" data-name="Path 1294" d="M14.083,48.218a14.67,14.67,0,0,0-1.689-.016v-.032h-.418c-1.447,0-1.431,0-1.431,1.463,0,.355.049.5.45.483.532-.032,1.095.049,1.625-.016a2.531,2.531,0,0,1,2.412,1c.579.691.628.659,1.27.016.724-.725.724-.725.016-1.448a3.978,3.978,0,0,0-2.235-1.447" transform="translate(0.827 3.775)" fill="#131931"/>
        <path id="Path_1295" data-name="Path 1295" d="M22.172,50.674l.081-.081c.787-.787.787-.787,0-1.576a5.39,5.39,0,0,1-.467-.6,1.261,1.261,0,0,0-.273.161c-.548.547-1.111,1.093-1.657,1.656-.145.146,0,.242.081.339,1.077,1.254,1.077,1.254,2.235.1" transform="translate(1.551 3.795)" fill="#131931"/>
        <path id="Path_1296" data-name="Path 1296" d="M9.142,50.2c-.884-.9-.884-.9-1.785,0-1.174,1.174-1.174,1.174.128,2.219.161.128.242.145.386,0,.5-.514,1.013-1.013,1.528-1.528a1.58,1.58,0,0,1,.161-.177c-.081-.24-.274-.354-.418-.514" transform="translate(0.509 3.882)" fill="#131931"/>
        <path id="Path_1297" data-name="Path 1297" d="M35.88,50.143a.472.472,0,0,1-.128-.4c0-3.651,0-7.318-.016-10.969,0-.258.08-.338.338-.338q2.557.024,5.115,0c.386,0,.37.193.386.435a15.771,15.771,0,0,0,1.415,5.613,2.561,2.561,0,0,0,4.792,0A15.519,15.519,0,0,0,49.2,38.917c.016-.37.112-.5.514-.5,1.625.032,3.249.016,4.889,0,.37,0,.467.081.467.467-.016,1.881-.016,3.779-.016,6.063-.081,1.77.161,3.94-.129,6.1a11.989,11.989,0,0,1-2.943,6.4.629.629,0,0,1-.418.242c.756-.016,1.818-.016,2.767.032l-.016-.016H54.28c0-.016.016-.016.016-.032-.065-.128,0-.321.161-.6a15.937,15.937,0,0,0,1.656-3.409,13.628,13.628,0,0,0,.691-4.326V38.611a1.79,1.79,0,0,0-1.945-1.963c-1.593-.015-3.168,0-4.761,0-.9,0-1-.1-1-1.013q0-10.011-.015-20.007a1.375,1.375,0,0,1,.675-1.287,11.1,11.1,0,0,0,5.115-9.57c.016-.949.016-1.882,0-2.831A1.764,1.764,0,0,0,52.961.012C47.943,0,42.909,0,37.89.012a1.761,1.761,0,0,0-1.945,1.963,33.341,33.341,0,0,0,.1,4.39,10.962,10.962,0,0,0,4.986,7.962,1.392,1.392,0,0,1,.707,1.27c-.016,6.69,0,13.381-.016,20.072,0,.868-.113.98-.965.98H36.106c-1.447,0-2.091.66-2.107,2.107V49.484a.576.576,0,0,1-.338.6,7.5,7.5,0,0,1,2.219.064M43.456,23.38v-10.6c0-1.061.289-1.335,1.366-1.335.483,0,.965-.016,1.448,0a.976.976,0,0,1,1.045,1.061v.306q0,10.59.016,21.2c0,.514-.145.627-.628.61-.917-.047-1.849-.032-2.766,0-.4.016-.482-.128-.482-.5.016-3.587,0-7.173,0-10.744m2.638,20.169c-.146.305-.274.659-.692.659-.45.016-.579-.354-.724-.691A13.878,13.878,0,0,1,43.456,37.5c0-.981,0-.981,1.3-.981.724,0,1.447.016,2.171,0,.258,0,.386.032.386.354a14.231,14.231,0,0,1-1.222,6.675M39.129,1.8c4.487,0,8.958,0,13.445-.016.45,0,.563.1.563.563-.032,1.382,0,1.382-1.4,1.382H45.353c-2.4,0-4.776-.016-7.172.016-.386,0-.5-.1-.5-.5C37.666,1.8,37.65,1.8,39.129,1.8m2.38,10.791a9.455,9.455,0,0,1-3.747-6.627c-.032-.24.032-.321.274-.305h.24q7.117,0,14.217-.016c.5,0,.579.128.515.6a9.468,9.468,0,0,1-3.635,6.288c-.193-.08-.112-.24-.112-.37a2.924,2.924,0,0,0-2.879-2.638c-.547-.015-1.077,0-1.624,0a2.967,2.967,0,0,0-3.249,3.072" transform="translate(2.638 0)" fill="#131931"/>
        <path id="Path_1298" data-name="Path 1298" d="M58.43,56.692c-.354-.016-.691-.016-1.045-.032-.225,0-.37-.049-.435-.145-.949-.049-2.01-.049-2.766-.032-.049,0-.1.016-.146.016h-.161c-.675-.016-1.335-.016-2.01,0a.512.512,0,0,1-.547-.354c-.29-.6-.579-1.191-.884-1.77a2.875,2.875,0,0,0-2.815-1.7,1.169,1.169,0,0,1-1.093-.531,3.646,3.646,0,0,0-2.751-1.4,2.443,2.443,0,0,0-.6,0,3.8,3.8,0,0,1-2.959-.885,4.3,4.3,0,0,0-1.287-.756,1.748,1.748,0,0,0-.225-.064.37.37,0,0,1-.193-.1,6.161,6.161,0,0,0-2.235-.016.769.769,0,0,1-.354.065h-.049c-.37,0-.74.016-1.11,0a3.957,3.957,0,0,0-2.589.821c-.273.208-.547.4-.82.61a2.146,2.146,0,0,1-2.991-.209c-1.271-1.238-2.477-2.508-3.764-3.731A4.235,4.235,0,0,0,19.9,45.45a5.032,5.032,0,0,0-1.239.74,1.1,1.1,0,0,1-.417.193.175.175,0,0,1-.193.032,1.05,1.05,0,0,1-1.062-.9,3.133,3.133,0,0,1-.031-.548V40.03c0-.933.1-1.014,1.045-1.03a35.792,35.792,0,0,0,4.15-.112,9.734,9.734,0,0,0,8.3-9.5V28.176c0-.37-.161-.5-.531-.435-2.38.37-4.776.611-7.156,1.078a10.683,10.683,0,0,0-1.544.5c-.628.225-.788.112-.66-.547a12.514,12.514,0,0,0-.209-5.725,12.243,12.243,0,0,0-1.254-2.991c-.8-1.367-1.737-2.654-2.605-3.989-.177-.258-.354-.483-.611-.081a36.221,36.221,0,0,0-3.457,5.71,12.822,12.822,0,0,0-.9,4.583c0,.193,0,.4-.016.6a.644.644,0,0,1-.129.338v.065c-.016,0-.031-.016-.047-.016a.479.479,0,0,1-.451.016c-2.67-.917-5.485-.965-8.235-1.447-.707-.129-.724-.065-.756.659a9.708,9.708,0,0,0,1.9,6.578,9.525,9.525,0,0,0,7.929,3.973c.948,0,1.882-.016,2.83,0,.692.016.837.128.837.8q.024,3.282,0,6.562c0,.66-.112.74-.74.708a5.483,5.483,0,0,0-2.589.45,1.782,1.782,0,0,1-1.287.081c-.579-.161-1.158-.306-1.753-.435a3.926,3.926,0,0,0-3.973,1.3c-.4.451-.772.933-1.142,1.4A5.2,5.2,0,0,1,2.3,49.454a.554.554,0,0,0-.193.146A8.456,8.456,0,0,0,0,54.489a3.872,3.872,0,0,0,3.683,3.762c.178.016.355,0,.548,0H56.806c.145-.145.37-.112.563-.128.659-.016,1.319,0,1.978,0,.9,0,.9,0,.933-.884a1.218,1.218,0,0,1,.112-.628,11.506,11.506,0,0,1-1.962.081M24.478,30.251c1.287-.161,2.59-.338,3.877-.547.386-.065.386.081.354.37a7.991,7.991,0,0,1-7.672,7.141c-.821.016-1.641,0-2.622,0a15.9,15.9,0,0,1,4.422-2.75c.386-.162.451-.29.29-.676-.563-1.351-.548-1.367-1.882-.724a19.35,19.35,0,0,0-3.265,2.01c-.193-.209,0-.338.049-.45a7.972,7.972,0,0,1,6.449-4.375M5.259,32.116A7.8,7.8,0,0,1,3.7,28.144c-.016-.209-.112-.434.29-.37,1.689.274,3.377.515,5.066.772a4.992,4.992,0,0,1,.691.177c1.223.418,2.38.9,2.589,2.4a3.2,3.2,0,0,0,.242.611c-.177.161-.29,0-.418-.064-.611-.29-1.222-.579-1.833-.918-.386-.208-.611-.177-.74.274-.128.435-.5.933-.386,1.27.081.29.724.386,1.126.579A15.576,15.576,0,0,1,13.9,35.221c-3.41.338-6.45-.242-8.637-3.1m9.972-6v6.241c-2.412-3.3-3.04-8.734.981-13.591,3.409,4.793,3.811,10.116,1.029,13.461-.177-.145-.081-.338-.081-.5,0-2.187-.015-4.374,0-6.562,0-.386-.08-.5-.482-.5-1.447,0-1.447-.016-1.447,1.447M30.719,56.5H4.085a2.18,2.18,0,0,1-2.364-2.235,2.266,2.266,0,0,1,.242-.917c.321-.66.659-1.319,1-2a1.061,1.061,0,0,1,1.062-.643c.724.016,1.447-.016,2.171.016.29,0,.4-.081.354-.37-.016-.177,0-.354,0-.547,0-.981,0-.981-1.013-1.046,1.157-1.64,1.769-2.315,4-1.608.081.209-.112.273-.209.386-.547.579-.547.579-.016,1.11.821.82.821.836,1.657-.032a4.524,4.524,0,0,1,2.7-1.673A3.727,3.727,0,0,1,16.92,47.99q1.11,1.063,2.171,2.172c.225.224.386.257.563,0a.2.2,0,0,1,.081-.081c.305-.338.836-.643.868-1.013.032-.29-.514-.66-.836-.949-.29-.258-.193-.4.047-.611a2.547,2.547,0,0,1,3.491.128q1.833,1.786,3.618,3.619A4.123,4.123,0,0,0,30.3,52.638a2.24,2.24,0,0,1,2.445,1.528c.321.772.74,1.5,1.158,2.333H30.719m12.175-.547a.805.805,0,0,1-.852.547c-1.8-.032-3.619-.032-5.421,0a.731.731,0,0,1-.8-.514c-.354-.8-.788-1.577-1.174-2.365a4.93,4.93,0,0,0-1.64-2.2,2.219,2.219,0,0,1,1.64-.707q1.326.024,2.654,0a2.361,2.361,0,0,1,1.463.45c.29.209.611.386.9.611a4.447,4.447,0,0,0,2.928.884,2.8,2.8,0,0,1,2.171.435c-1.03.724-1.335,1.866-1.866,2.863m1.866.514c.563-.724.466-1.866,1.721-1.9,2.01-.032,2.2.081,2.8,1.9Z" transform="translate(0 1.236)" fill="#e54727"/>
      </g>
    </g>
  </g>
</svg>
