<svg id="Group_1842" data-name="Group 1842" xmlns="http://www.w3.org/2000/svg" xmlns:xlink="http://www.w3.org/1999/xlink" width="97.105" height="92.477" viewBox="0 0 97.105 92.477">
  <defs>
    <clipPath id="clip-path">
      <rect id="Rectangle_308" data-name="Rectangle 308" width="97.105" height="92.477" fill="#131931"/>
    </clipPath>
  </defs>
  <g id="Group_1841" data-name="Group 1841" transform="translate(0 0)" clip-path="url(#clip-path)">
    <path id="Path_1334" data-name="Path 1334" d="M72.818,22.867a1.393,1.393,0,0,0-1.285-1.1A26.707,26.707,0,0,0,58.7,23.451a12.258,12.258,0,0,0-7.737,10.121,18.89,18.89,0,0,0,.911,8.532,4.022,4.022,0,0,1-.841,2.923.716.716,0,0,1-.234.116.7.7,0,0,1-.094.187c0-.07-.023-.117-.023-.187-.211-.046-.281-.373-.327-.584a20.183,20.183,0,0,1-.281-2.665,57.969,57.969,0,0,0-4.067-16.573,28.507,28.507,0,0,0-1.31-2.688,2.67,2.67,0,0,1-.094-2.548,16.008,16.008,0,0,0,1.357-8.158c-.444-4.044-2.829-6.709-6.219-8.579A27.273,27.273,0,0,0,29.456.4a52.041,52.041,0,0,0-6.334-.4c-1.964.023-2.385.444-2.408,2.361a38.463,38.463,0,0,0,.608,8.812,17.574,17.574,0,0,0,4.417,8.813A13.555,13.555,0,0,0,35,23.918a22.416,22.416,0,0,0,5.727-.491c1.145-.211,1.285-.164,1.8.889a49.95,49.95,0,0,1,4.347,14.3,92.689,92.689,0,0,1,.935,17.438q-.035,1.228-.139,2.455c-.094,1.028-.187,2.08-.3,3.109-.117.911-.234,1.192-.819,1.215,1.309.07,2.968.094,4.419.117-.865-.047-.842-.281-.8-1.519.047-.912.117-1.8.211-2.689a49.174,49.174,0,0,1,3.249-12.715c.981-2.455,1.168-2.174,3.062-1.589a12.2,12.2,0,0,0,5.8.374,9.706,9.706,0,0,0,6.381-4.278,19.529,19.529,0,0,0,2.875-6.779,43,43,0,0,0,1.123-9.63,2.544,2.544,0,0,0-.047-1.262M42.173,18.051A26.7,26.7,0,0,0,36.4,12.465a23.633,23.633,0,0,0-3.74-2.127,1.643,1.643,0,0,0-2.313.608,1.59,1.59,0,0,0,.934,2.267,21.934,21.934,0,0,1,8.392,6.849c.094.117.187.257.327.444-6.919,1.543-12.926-.585-15.217-7.947a30.264,30.264,0,0,1-1.168-8.93c0-.4.023-.655.537-.632,4.816.07,9.538.608,13.908,2.759,5.143,2.524,6.2,7.105,4.114,12.294m25.2,19.4c-1.94,4.044-5.587,5.47-10.238,4-.211-.07-.421-.164-.7-.257a27.652,27.652,0,0,1,4.114-5.423,22.609,22.609,0,0,1,3.2-2.758,1.6,1.6,0,0,0,.585-2.315c-.561-.819-1.449-.911-2.455-.281a24.64,24.64,0,0,0-5.983,5.774c-.608.794-1.193,1.636-1.87,2.571-.491-3.109-.374-5.983,1.168-8.672a10.131,10.131,0,0,1,6.1-4.488,26.792,26.792,0,0,1,8.064-1.028c.468,0,.584.139.584.584a29.659,29.659,0,0,1-2.571,12.3" transform="translate(2.357 0)" fill="#131931"/>
    <path id="Path_1335" data-name="Path 1335" d="M95.3,40.72a17.894,17.894,0,0,0-4.138.584,14.209,14.209,0,0,0-6.849,4.606c-4.113,4.815-8.321,9.583-12.459,14.375-.63.725-.864.748-1.5-.023A7.226,7.226,0,0,0,64.4,57.62H53.038c-1.45-.023-3.086-.047-4.372-.117-.187,0-.421,0-.724-.023l-.608-.07h-.023a15.188,15.188,0,0,1-1.847-.327,15.736,15.736,0,0,1-2.9-1l-.14-.07c-.7-.327-1.4-.678-2.081-1.076a60.88,60.88,0,0,0-16.432-6.9c-7.387-1.846-13.768.14-19.519,4.84a22.124,22.124,0,0,0-3.647,3.6c-.187.233-.351.537-.747.49V73.539c2.22,1.449,4.815,1.1,7.222,1.4a65.215,65.215,0,0,1,17.789,5c5.1,2.2,10.121,4.581,15.311,6.545a22.963,22.963,0,0,0,6.4,1.285,26.078,26.078,0,0,0,12.062-2.127c3.319-1.356,6.662-2.664,9.981-4,1.426-.561,2.923-.819,4.372-1.309A19.99,19.99,0,0,0,84.828,70.195c2.407-4.792,4.394-9.771,6.568-14.679,1.777-4,3.53-8.017,5.283-12.015a2.535,2.535,0,0,0,.187-.444c.63-1.426-.023-2.43-1.566-2.337M89.69,52.267c-2.408,5.447-4.722,10.917-7.247,16.292-2.407,5.143-6.592,8.206-12.062,9.584-3.6.911-6.919,2.594-10.379,3.9-2.922,1.122-5.773,2.384-8.952,2.758A22.645,22.645,0,0,1,39.27,82.982c-5.938-2.525-11.759-5.283-17.789-7.6a60.725,60.725,0,0,0-15.9-3.552c-2.407-.234-2.407-.187-2.407-2.6,0-3.436.023-6.849-.023-10.285a2.116,2.116,0,0,1,.63-1.589,23.228,23.228,0,0,1,10.683-6.615,19.543,19.543,0,0,1,10.683.585A56.705,56.705,0,0,1,38.8,57.386a21.863,21.863,0,0,0,11.664,3.132c4.815-.023,9.654,0,14.47,0A4.019,4.019,0,0,1,68.3,66.666a4.143,4.143,0,0,1-3.81,1.892q-9.993-.035-19.985,0A30.25,30.25,0,0,0,35.6,69.822c-.585.187-.748.326-.538.934.748,2.221.725,2.244,2.992,1.683a27.343,27.343,0,0,1,6.312-.7c6.685.023,13.394.023,20.079,0A7.255,7.255,0,0,0,71.388,67.6a4.155,4.155,0,0,0,.56-1.8,4.219,4.219,0,0,1,1.31-2.828C77.862,57.69,82.42,52.36,87.049,47.1a10.207,10.207,0,0,1,6.311-3.389c-1.239,3.015-2.455,5.8-3.67,8.555" transform="translate(0 4.635)" fill="#131931"/>
  </g>
</svg>
