<svg xmlns="http://www.w3.org/2000/svg" xmlns:xlink="http://www.w3.org/1999/xlink" width="65.004" height="60.744" viewBox="0 0 65.004 60.744">
  <defs>
    <clipPath id="clip-path">
      <rect id="Rectangle_310" data-name="Rectangle 310" width="65.004" height="60.744" transform="translate(0 0)" fill="none"/>
    </clipPath>
  </defs>
  <g id="Group_1846" data-name="Group 1846" transform="translate(0 0)">
    <g id="Group_1845" data-name="Group 1845" clip-path="url(#clip-path)">
      <path id="Path_1340" data-name="Path 1340" d="M33.37,21.84A11.637,11.637,0,0,0,29.3,15c-.265-.23-.531-.442-.814-.689a3.383,3.383,0,0,0,2.83-3.661V3.572A3.271,3.271,0,0,0,27.8.018Q16.765-.009,5.713,0A3.248,3.248,0,0,0,2.194,3.5v7.339A3.438,3.438,0,0,0,2.3,11.884a3.39,3.39,0,0,0,3.483,2.44c-.654.513-1.255.937-1.786,1.415a10.8,10.8,0,0,0-4,8.612C.107,34.784.036,45.218.036,55.633c0,.266,0,.531.018.8a4.627,4.627,0,0,0,4.527,4.3q12.441,0,24.881.018a3.613,3.613,0,0,0,3.165-1.7,5.169,5.169,0,0,0,.849-3.059c-.017-10.875,0-21.733-.017-32.609a10.862,10.862,0,0,0-.089-1.538M26.916,7.074c0-1.627.017-3.254-.018-4.9,0-.442.071-.6.566-.6,1.715.018,2.281.548,2.281,2.246,0,2.264-.035,4.545.018,6.808.035,1.769-1.132,2.211-2.565,2.087-.406-.035-.247-.354-.265-.548-.017-1.7-.017-3.395-.017-5.093m-4.209-5.5a20.86,20.86,0,0,0,2.122,0c.424-.017.513.142.513.531-.018,3.377-.018,6.737,0,10.115,0,.354-.089.513-.478.495q-1.088-.052-2.175,0c-.389.018-.477-.141-.477-.495.017-1.7,0-3.4,0-5.093,0-1.68.017-3.342,0-5.022,0-.372.07-.548.5-.531m-4.881.018c.8.018,1.592.018,2.37,0,.371-.018.424.141.424.46-.018,1.7,0,3.395,0,5.093,0,1.68-.018,3.342.018,5.022,0,.477-.142.6-.584.583-.725-.035-1.45-.017-2.175,0-.336.018-.46-.07-.46-.442.018-3.43.018-6.879,0-10.309,0-.354.106-.425.407-.407M12.857,7.145c0-1.645.018-3.307,0-4.952,0-.442.088-.636.566-.6a17.385,17.385,0,0,0,1.91,0c.424-.018.495.141.495.53-.018,3.378-.018,6.738,0,10.116,0,.424-.142.512-.531.495a16.9,16.9,0,0,0-1.91,0c-.459.035-.548-.142-.548-.566.036-1.68.018-3.36.018-5.022M8.029,12.1c.036-1.68.018-3.342.018-5.022,0-1.627.018-3.254-.018-4.9-.017-.512.159-.618.637-.6a20.86,20.86,0,0,0,2.122,0c.424-.017.513.124.513.531-.018,3.342-.018,6.7,0,10.044,0,.478-.159.6-.6.566a18.7,18.7,0,0,0-1.981,0c-.513.035-.707-.071-.69-.619M3.768,10.575c0-2.316.035-4.615-.018-6.932-.018-1.574.919-2.175,2.44-2.051.389.035.248.3.248.477.017,1.716,0,3.431,0,5.146,0,1.645-.018,3.307,0,4.952,0,.389-.053.583-.531.566-1.5-.018-2.122-.6-2.139-2.158M9.815,28.7c0-.583.2-.672.708-.672,3.466.018,6.914.018,10.38.018s6.914,0,10.38-.018c.443,0,.6.089.6.566-.018,6.419-.018,12.821,0,19.24,0,.477-.159.566-.6.566-6.949-.018-13.881-.018-20.831,0-.531,0-.637-.159-.637-.655q.027-9.522,0-19.045M31.867,26.19c0,.195-.088.265-.283.265H9.568c-1.185,0-1.326.142-1.326,1.344V48.631c0,1.22.123,1.344,1.379,1.344q10.743,0,21.5-.018c.566,0,.8.088.778.743-.053,1.821-.017,3.66-.017,5.482a3.459,3.459,0,0,1-.619,1.98,2.025,2.025,0,0,1-1.769.955c-8.311-.018-16.622,0-24.934-.018a3,3,0,0,1-2.918-2.97c-.017-1.769,0-3.519,0-5.288V39.471c0-5.04.089-10.1-.035-15.138a9.159,9.159,0,0,1,3.413-7.392,13.711,13.711,0,0,1,1.91-1.414A7.911,7.911,0,0,1,11.3,14.271c4,.053,7.975.089,11.972,0a7,7,0,0,1,4.88,1.822A9.861,9.861,0,0,1,31.8,21.964a33.68,33.68,0,0,1,.071,4.226" fill="#131931"/>
      <path id="Path_1341" data-name="Path 1341" d="M53.689,37.7c1.786-3.926-1.079-8.24-5.747-8.311a5.5,5.5,0,0,0-4.881,3.077c-1.945,3.8-3.838,7.657-5.641,11.547a5.941,5.941,0,0,0,10.645,5.252c1.946-3.819,3.855-7.674,5.624-11.565m-11.53.124c.778-1.5,1.468-3.042,2.246-4.545a4.359,4.359,0,0,1,8.205,2.087,4.47,4.47,0,0,1-.477,1.963c-.69,1.415-1.4,2.847-2.069,4.279-.16.354-.3.442-.672.248q-3.475-1.723-6.985-3.413c-.283-.141-.443-.248-.248-.619m4.527,10.628a4.131,4.131,0,0,1-3.5,2.281,4.4,4.4,0,0,1-4.368-5.977c.689-1.644,1.538-3.2,2.3-4.81.123-.283.265-.265.495-.141l7.162,3.5c.283.141.336.248.194.548-.76,1.521-1.468,3.077-2.281,4.6" fill="#e54727"/>
      <path id="Path_1342" data-name="Path 1342" d="M59.824,36.995a5.885,5.885,0,0,0-6.048,3.147c-1.892,3.767-3.713,7.569-5.552,11.371a5.456,5.456,0,0,0-.531,2.44A10.3,10.3,0,0,0,47.8,55a5.987,5.987,0,0,0,5.04,4.845,5.9,5.9,0,0,0,6.137-3.218c1.856-3.714,3.66-7.463,5.464-11.194a5.733,5.733,0,0,0,.442-3.678,6.016,6.016,0,0,0-5.058-4.757m-.053,14.43c-.76,1.52-1.467,3.059-2.246,4.544A4.087,4.087,0,0,1,54.006,58.3c-3.448-.053-5.552-3.077-4.4-5.907.672-1.662,1.556-3.254,2.317-4.881.141-.282.265-.247.513-.141q3.581,1.75,7.161,3.484c.283.159.3.283.177.566m3.148-6.455c-.69,1.4-1.4,2.794-2.051,4.209-.195.406-.354.424-.725.247-2.3-1.149-4.616-2.281-6.932-3.4-.319-.159-.46-.248-.248-.654.76-1.486,1.45-3.007,2.228-4.492a4.368,4.368,0,0,1,8.117,1.008,6.872,6.872,0,0,1,.142,1.043,5.505,5.505,0,0,1-.531,2.034" fill="#e54727"/>
      <path id="Path_1343" data-name="Path 1343" d="M5.553,30.151a.723.723,0,0,0-.8-.566.712.712,0,0,0-.707.654,4.1,4.1,0,0,0-.018.655V48.931c0,.212,0,.442.018.654a.712.712,0,0,0,.707.655.722.722,0,0,0,.8-.548,3.266,3.266,0,0,0,.053-.725V30.858a3.18,3.18,0,0,0-.053-.707" fill="#e54727"/>
      <path id="Path_1344" data-name="Path 1344" d="M4.722,28.524c.531,0,.8-.336.8-1.043,0-.725-.283-1.114-.814-1.1-.513.018-.778.372-.778,1.079.018.707.265,1.061.8,1.061" fill="#e54727"/>
      <path id="Path_1345" data-name="Path 1345" d="M14.661,41.309c1.008,0,2.033.018,3.041-.018.478-.017.655.089.637.6-.053,1.078-.018,2.157-.018,3.236,0,.849.372,1.22,1.2,1.238,1.008.017,2.033.017,3.041,0a1.086,1.086,0,0,0,1.221-1.221c.017-1.131.017-2.245,0-3.377,0-.371.088-.5.477-.478,1.1.018,2.211.018,3.307,0,.919-.017,1.291-.371,1.309-1.273q.026-1.485,0-2.971c-.018-.866-.39-1.238-1.274-1.238-1.1-.017-2.21-.017-3.307,0-.406.018-.512-.088-.512-.512.035-1.15.017-2.3,0-3.431a1.041,1.041,0,0,0-1.1-1.132c-1.1-.017-2.21-.017-3.307,0a1,1,0,0,0-1.043,1.044c-.018.6,0,1.184,0,1.786,0,.566-.018,1.149,0,1.715.018.407-.088.53-.513.53-1.1-.035-2.21-.017-3.307,0-.9,0-1.291.39-1.291,1.291-.017.92,0,1.857,0,2.777,0,1.061.354,1.432,1.433,1.432M16.606,37.4h1.981c.955-.018,1.326-.371,1.326-1.309q.027-1.617,0-3.236c0-.371.053-.583.5-.53.584.07,1.362-.248,1.7.124.283.318.088,1.078.088,1.662v2.051c.018.867.371,1.238,1.256,1.238,1.1.018,2.21.018,3.306,0,.407-.018.513.106.531.513.035,1.8.035,1.8-1.733,1.8h-.531c-.548,0-1.1-.018-1.644,0a1.049,1.049,0,0,0-1.167,1.2c-.018,1.15-.018,2.3,0,3.431,0,.353-.089.46-.442.442-.584-.036-1.362.194-1.733-.106-.389-.3-.106-1.114-.124-1.7-.018-.654,0-1.326,0-1.981-.018-.919-.371-1.29-1.291-1.29-1.1,0-2.211-.018-3.307,0-.407.017-.53-.089-.53-.513,0-1.8-.018-1.8,1.821-1.8" fill="#e54727"/>
      <path id="Path_1346" data-name="Path 1346" d="M43.874,37.154a.745.745,0,0,0,.867.053c.265-.141.353-.442.477-.69.637-1.273,1.079-2.723,2.67-3.253a.627.627,0,0,0,.283-.849.839.839,0,0,0-.743-.566,3.552,3.552,0,0,0-1.149.46c-1.556.937-2.016,2.6-2.723,4.085a.652.652,0,0,0,.318.76" fill="#131931"/>
      <path id="Path_1347" data-name="Path 1347" d="M57.791,39.541a4.363,4.363,0,0,0-1.344.813,10.156,10.156,0,0,0-2.069,3.555c-.23.477.23.99.867.99.247,0,.477-.212.636-.53.265-.531.531-1.061.778-1.61a3.11,3.11,0,0,1,1.769-1.768.753.753,0,0,0,.53-1.043.828.828,0,0,0-1.167-.407" fill="#131931"/>
    </g>
  </g>
</svg>
