<svg xmlns="http://www.w3.org/2000/svg" width="341.17" height="217.55" viewBox="0 0 341.17 217.55">
  <g id="Group_1810" data-name="Group 1810" transform="translate(0 -27.363)">
    <g id="Group_2396" data-name="Group 2396">
      <path id="Path_1173" data-name="Path 1173" d="M266.055,105.781a.75.75,0,0,1,.217.666l-1.753,10.221,9.18-4.826a.759.759,0,0,1,.35-.086.749.749,0,0,1,.349.086l9.18,4.826-1.752-10.221a.75.75,0,0,1,.217-.666l7.425-7.239L279.2,97.051a.751.751,0,0,1-.568-.411l-4.588-9.3-4.589,9.3a.754.754,0,0,1-.568.411l-10.262,1.492Z" transform="translate(0.807 0.272)" fill="#e54727"/>
      <path id="Path_1174" data-name="Path 1174" d="M218.987,80.083a.753.753,0,0,1,.752.752v37.57h9.019V80.836a.753.753,0,0,1,.752-.752h5.754L224.249,62.321,213.234,80.083Z" transform="translate(0.665 0.194)" fill="#e54727"/>
      <path id="Path_1175" data-name="Path 1175" d="M223.5,166.915h-8.614l-1.5,6.319H223.5Z" transform="translate(0.666 0.521)" fill="#e54727"/>
      <path id="Path_1176" data-name="Path 1176" d="M196.885,242.7h26.663V227.671H200.455Z" transform="translate(0.614 0.71)" fill="#e54727"/>
      <path id="Path_1177" data-name="Path 1177" d="M223.522,192.366H208.844l-3.85,16.2h18.529Z" transform="translate(0.639 0.6)" fill="#e54727"/>
      <path id="Path_1178" data-name="Path 1178" d="M223.509,174.714H213.037l-3.849,16.2h14.322Z" transform="translate(0.653 0.545)" fill="#e54727"/>
      <path id="Path_1179" data-name="Path 1179" d="M196.888,185.356a.74.74,0,0,1-.295.773.808.808,0,0,1-.551.132H168.458v18.381a.735.735,0,0,1-.265.836l-.124.085a.754.754,0,0,1-.424.131H140.028v18.574a.755.755,0,0,1-.326.621.878.878,0,0,1-.457.153H111.6v17.843h84.007l18.049-75.972H196.888Z" transform="translate(0.348 0.521)" fill="#e54727"/>
      <path id="Path_1180" data-name="Path 1180" d="M223.536,210.019H204.65l-3.849,16.2h22.735Z" transform="translate(0.626 0.655)" fill="#e54727"/>
      <path id="Path_1181" data-name="Path 1181" d="M100.934,199A36.2,36.2,0,0,1,64.78,235.157v7.767a43.922,43.922,0,1,0,0-87.844v7.768A36.2,36.2,0,0,1,100.934,199" transform="translate(0.202 0.484)" fill="#e54727"/>
      <path id="Path_1182" data-name="Path 1182" d="M64.864,162.847V155.08A43.692,43.692,0,0,0,37.738,164.5l5.274,5.727a35.963,35.963,0,0,1,21.852-7.376" transform="translate(0.118 0.484)" fill="#e54727"/>
      <path id="Path_1183" data-name="Path 1183" d="M28.762,198.958a35.994,35.994,0,0,1,8.925-23.745L32.4,169.467a43.9,43.9,0,0,0,32.521,73.412v-7.767a36.2,36.2,0,0,1-36.154-36.154" transform="translate(0.065 0.529)" fill="#e54727"/>
      <path id="Path_1185" data-name="Path 1185" d="M82.391,198.945a17.63,17.63,0,0,1-17.611,17.61v7.767a25.377,25.377,0,1,0,0-50.755v7.768a17.63,17.63,0,0,1,17.611,17.61" transform="translate(0.202 0.541)" fill="#e54727"/>
      <path id="Path_1186" data-name="Path 1186" d="M64.859,224.292v-7.767a17.594,17.594,0,0,1-14.518-27.556l-5.354-5.811a25.357,25.357,0,0,0,19.872,41.134" transform="translate(0.123 0.571)" fill="#e54727"/>
      <path id="Path_1187" data-name="Path 1187" d="M64.825,173.567a25.23,25.23,0,0,0-14.507,4.573l5.341,5.8a17.473,17.473,0,0,1,9.167-2.6Z" transform="translate(0.157 0.541)" fill="#e54727"/>
      <path id="Path_1189" data-name="Path 1189" d="M71.613,198.886a6.841,6.841,0,0,0-6.833-6.833v1.78l1.744,1.893a3.66,3.66,0,0,1-1.744,6.036v3.957a6.84,6.84,0,0,0,6.833-6.832" transform="translate(0.202 0.599)" fill="#e54727"/>
      <path id="Path_1190" data-name="Path 1190" d="M63.3,192.221l1.485,1.612v-1.78a6.83,6.83,0,0,0-1.485.168" transform="translate(0.197 0.599)" fill="#e54727"/>
      <path id="Path_1191" data-name="Path 1191" d="M64.8,205.7v-3.958a3.634,3.634,0,0,1-.961.143c-.051,0-.1,0-.154,0a3.657,3.657,0,0,1-2.558-1.184l-3.005-3.263A6.826,6.826,0,0,0,64.8,205.7" transform="translate(0.181 0.616)" fill="#e54727"/>
      <path id="Path_1193" data-name="Path 1193" d="M22.245,163.316a.752.752,0,0,1,0,1.5l-7.806.041,2.062,2.24,13.848.141L16.323,152.01l-13.847-.141L4.1,153.634l9.275-.049h0a.752.752,0,0,1,0,1.5l-7.9.042,1.54,1.672,9.364-.049h0a.752.752,0,0,1,0,1.5L8.4,158.3l1.578,1.712,9.3-.049h0a.752.752,0,0,1,0,1.5l-7.931.042,1.706,1.853,9.178-.049Z" transform="translate(0.008 0.474)" fill="#e54727"/>
      <path id="Path_1194" data-name="Path 1194" d="M30.858,151.91c-.02,0-.041,0-.061,0a.751.751,0,0,1-.689-.811l.725-8.977L29.246,140.4l-.622,7.694a.753.753,0,0,1-.749.692c-.02,0-.041,0-.061,0a.751.751,0,0,1-.689-.811l.733-9.079-1.717-1.865-.635,7.86a.752.752,0,0,1-.749.691c-.021,0-.041,0-.062,0a.751.751,0,0,1-.688-.811l.746-9.246-2.074-2.252-1,13.812,14.031,15.233,1-13.813-1.55-1.682-.617,7.641a.753.753,0,0,1-.749.692c-.021,0-.041,0-.062,0a.751.751,0,0,1-.688-.811l.728-9.027-1.55-1.682-.613,7.593a.752.752,0,0,1-.749.691" transform="translate(0.068 0.416)" fill="#e54727"/>
      <path id="Path_1201" data-name="Path 1201" d="M148.62,144.775a.753.753,0,0,0,1.027-.275c6.714-11.632,8.479-28.425,8.551-29.135a.753.753,0,0,0-.673-.825.763.763,0,0,0-.824.673c-.018.171-1.808,17.185-8.357,28.534a.753.753,0,0,0,.276,1.027" transform="translate(0.462 0.357)"/>
      <path id="Path_1202" data-name="Path 1202" d="M144.018,151.734a.921.921,0,0,0,.6-.3l2.273-3.059a.752.752,0,0,0-1.207-.9l-2.274,3.059a.757.757,0,0,0,.6,1.2" transform="translate(0.447 0.459)"/>
      <path id="Path_1203" data-name="Path 1203" d="M340.418,243.215H303.74a19.112,19.112,0,0,0,10.835-11.68l25.527,1.743a.756.756,0,0,0,.8-.75V190.86a.755.755,0,0,0-.8-.75l-24.943,1.7a19.085,19.085,0,0,0-11.573-13.95.517.517,0,0,0-.169-.061c-.49-.193-.984-.372-1.493-.524-8.377-3.253-9.669-11.2-9.717-17.522v-5.742a4.086,4.086,0,0,0-.526-2.7c-2.985-7.334-14.3-5.416-14.378,2.7v25.4a7.264,7.264,0,0,0,.117,1.282c.078,1.748.189,3.236.311,4.494h-15.07l-11.038-46.462a.867.867,0,0,0-.312-.445.913.913,0,0,0-.419-.133H221.509a.794.794,0,0,0-.732.579l-6.418,27.013H196.484a.752.752,0,0,0-.752.752v18.6H168.054a.753.753,0,0,0-.752.752v18.68H156.392V192.689c0-3.218-2.165-5.837-4.825-5.837H141.4v-6.085a.753.753,0,0,0-.752-.752H134.3v-7.231a80.045,80.045,0,0,0,12.517-12.966c9.772,1.779,18.106,1.756,30.116-9.5,12.079-11.711,18.147-28.316,18.04-49.353-.19-3.2,1.177-5.363-1.871-7.249-2.629-1.9-5.153-1.2-7.744.688l-.1.067A44.347,44.347,0,0,1,174.006,99.5a55.689,55.689,0,0,1-8.732,1.586A68.739,68.739,0,0,0,165,94.073c6.078-.159,5.386-8.745-.71-8.091L132.821,74.5a5.373,5.373,0,0,0-1.08-.046,6.977,6.977,0,1,0-8.633,0,5.717,5.717,0,0,0-1.08.046L90.557,85.982c-6.1-.651-6.784,7.932-.709,8.091a68.643,68.643,0,0,0-.275,7.014A55.7,55.7,0,0,1,80.841,99.5a44.309,44.309,0,0,1-11.252-5.026l-.1-.067c-2.583-1.881-5.123-2.6-7.745-.688-3.045,1.884-1.681,4.044-1.87,7.249-.107,21.037,5.961,37.642,18.039,49.352,12.021,11.26,20.34,11.27,30.117,9.5a80.044,80.044,0,0,0,12.517,12.966v7.231H114.2a.753.753,0,0,0-.752.752v6.085h-4.78c-8.318-30.385-46.408-43.3-71.435-23.485L38.3,148.5a.757.757,0,0,0-.2-.564l-5.774-6.268a.743.743,0,0,0-.258-.28l-9.4-10.2a.758.758,0,0,0-1.3.456l-1.019,14.136a3.71,3.71,0,1,0-5.418,4.991L.759,150.628A.752.752,0,0,0,.2,151.89l15.429,16.751a.751.751,0,0,0,.546.243l14.963.152c-22.719,24.882-10.073,65.952,22.253,74.179H15.012a.752.752,0,0,0,0,1.5H340.419a.752.752,0,0,0,0-1.5M290.7,152.885V159h-2.32v-6.118a1.16,1.16,0,0,1,2.32,0m-11.894,1.129c-.074-5.447,7.105-7.777,10.486-3.769a2.659,2.659,0,0,0-2.417,2.64v6.87a.753.753,0,0,0,.752.752h3.08c.17,8.438,3.032,15.991,12.275,18.735a17.543,17.543,0,0,1,11.035,16.266v5.139a.752.752,0,0,0,1.5,0c-.032-1.59.1-5.827-.138-7.343l24.014-1.64v40.059l-24.417-1.668c.811-2.7.479-7.928.542-10.776a.753.753,0,0,0-.752-.752.777.777,0,0,0-.752.752v6.346A17.545,17.545,0,0,1,296.5,243.15h-8.262c5.688-3.957,3.668-13.122-3.152-14.345a8.025,8.025,0,0,0-1.938-14.226c5.642-3.128,5.065-11.8-.807-14.224a7.885,7.885,0,0,0,.774-.434c3.31,4.722,8.967,8.415,15.389,8.339a.752.752,0,1,0,.013-1.5A17.629,17.629,0,0,1,284.294,199c5.1-4.662,1.879-13.5-5.047-13.789-.694-3.659-.378-26.99-.438-31.2m-17.232,76.151h22.005a6.493,6.493,0,0,1,0,12.986c-5.445-.008-16.609.006-22.005,0-8.586-.3-8.6-12.68,0-12.986m-22.29-19.683h5.893a8.015,8.015,0,0,0,6.026,5.054,8.066,8.066,0,0,0-2.129,11.149h-5.94Zm-10.022,16.2h-3.6v-16.2h7.448ZM213.69,175.066h10.472v16.2H209.84Zm23.989,16.2h-2.955l-3.849-16.2h10.653Zm4.207-17.707H230.517l-3.85-16.2h19.067Zm-8.708,17.707h-7.511v-16.2h3.662Zm-23.695,1.5h14.679v16.2H205.633Zm-4.207,17.708h18.886v16.2H201.426Zm28.2-1.5h-7.805v-16.2h7.868l1.894,7.969Zm1.61-16.2h2.24l-1.12,4.715Zm3.786,0h8.011a7.959,7.959,0,0,0,3.736,7.18,8.007,8.007,0,0,0-5.835,9.023H238.93l-1.956-8.235Zm40.26,8.41c8.586.3,8.6,12.68,0,12.985-1.566,0-25.914,0-26.467,0-8.586-.3-8.6-12.68,0-12.985h26.466Zm-29.948,20.983a6.5,6.5,0,0,1,6.492-6.493h24.958a6.493,6.493,0,1,1,0,12.986H255.671a6.5,6.5,0,0,1-6.492-6.493m29.639-35.474c8.587.3,8.6,12.68,0,12.986H254.855c-8.587-.3-8.6-12.681,0-12.986Zm-23.964-1.5a8,8,0,0,0-7.756,6.081h-7.874l3.85-16.2h15.639l2.4,10.121Zm-11.424-11.626,3.849-16.2h7.225l3.849,16.2Zm4.207-17.708,3.255-13.7,3.255,13.7Zm2.3-16.2-3.849,16.2H226.31l-3.849-16.2Zm-28.432,2.5,3.255,13.7h-6.51ZM217.9,157.358h7.224l3.849,16.2h-3.3V166.49a.753.753,0,0,0-.752-.752h-9.008Zm-2.349,9.885h8.614v6.319H214.047ZM132.8,180.015h-10.75V173.17H132.8ZM165.252,102.6a57.876,57.876,0,0,0,9.167-1.657,46.089,46.089,0,0,0,11.753-5.272c.783-.506,2.371-1.568,3.372-1.6a4.562,4.562,0,0,1,2.689.873c1.429,1.018,1.429,1.018,1.32,3.088-.039.747-.089,1.678-.082,2.943.105,20.611-5.81,36.85-17.584,48.264-11.449,10.652-18.779,10.69-28.06,9.26,1.437-1.923,2.883-4.025,4.278-6.293,22.9,1.871,37.862-27.334,35.5-49.94a.752.752,0,0,0-.744-.009,52.827,52.827,0,0,1-10.912,4.535,66.027,66.027,0,0,1-11.013,1.938c.184-2.269.28-4.313.32-6.127m-.454,7.652c6.64-.379,16.348-2.976,21.668-6.078.412,21.459-12.016,47.37-33.493,46.58,6.835-10.595,10.943-29.495,11.825-40.5m-42.85-41.281c.23-7.238,10.725-7.237,10.954,0-.23,7.239-10.725,7.237-10.954,0m.471,6.982H132.43L159.9,85.982H94.946ZM89.649,92.568a2.541,2.541,0,0,1,0-5.082H165.2a2.541,2.541,0,0,1,0,5.082H89.649Zm73.84,1.5a81.5,81.5,0,0,1-.037,14.337l-72.021.4a82.349,82.349,0,0,1-.071-14.736ZM90.05,110.256c.883,11.009,4.99,29.9,11.825,40.5-21.455.8-33.91-25.112-33.494-46.581,5.332,3.106,15.023,5.7,21.669,6.079m10.532,48.9c-5.305,0-12.559-1.128-21.623-9.916-11.773-11.414-17.688-27.653-17.583-48.264.007-1.265-.043-2.2-.082-2.943-.109-2.069-.109-2.069,1.319-3.088a4.57,4.57,0,0,1,2.691-.873c1.042.043,2.625,1.129,3.443,1.649a46.145,46.145,0,0,0,11.681,5.225A57.876,57.876,0,0,0,89.6,102.6c.04,1.813.135,3.858.32,6.127A66.02,66.02,0,0,1,78.9,106.793a52.872,52.872,0,0,1-10.911-4.535.755.755,0,0,0-.744.009c-2.364,22.6,12.589,51.806,35.5,49.939,1.4,2.269,2.841,4.372,4.279,6.294a31.031,31.031,0,0,1-6.439.656M96.049,133.54a130.025,130.025,0,0,1-4.484-23.227l71.756-.4c-2.517,30.777-15.865,50.3-30.027,61.75H121.554c-2.013-1.585-19.034-15.516-25.505-38.125M114.2,188.357h37.372c1.634,0,3,1.549,3.27,3.58H109.8q-.3-1.815-.734-3.58Zm-91.451-54.87,2.075,2.253-.746,9.246a.752.752,0,1,0,1.5.121l.634-7.86,1.718,1.865-.733,9.079a.752.752,0,0,0,1.5.121l.621-7.694,1.587,1.723-.724,8.977a.752.752,0,0,0,1.5.121l.613-7.592,1.55,1.682-.729,9.027a.752.752,0,0,0,1.5.121l.617-7.642,1.551,1.683-1,13.812L21.749,147.3ZM15.82,146.3a2.178,2.178,0,0,1,3.078.127l1.523,1.653h0l45.2,49.071a2.192,2.192,0,0,1-1.69,3.652,2.165,2.165,0,0,1-1.513-.7L15.694,149.377a2.188,2.188,0,0,1,.126-3.078m50.905,49.832-3.228-3.5a6.853,6.853,0,0,1,8.317,6.665C71.261,209.3,56.737,207.75,58.3,197.86l3.005,3.263c3.368,3.483,8.625-1.341,5.417-4.992m-1.743,11.5a8.335,8.335,0,1,0-2.628-16.245l-5.5-5.973c10.409-6.364,24.409,1.618,24.234,13.88A16.124,16.124,0,0,1,64.982,215.4c-12.618.182-20.522-14.547-13.469-24.91l5.6,6.078a8.37,8.37,0,0,0,7.87,11.064m-17.61-8.337c.967,23.362,34.257,23.355,35.22,0,.195-13.551-15.412-22.257-26.777-15.007l-5.34-5.8c16.385-11.754,40.08.49,39.884,20.8A25.4,25.4,0,0,1,64.982,224.67c-21.12.1-33.028-24.848-19.872-41.134l5.353,5.812a17.5,17.5,0,0,0-3.091,9.945m-9.273,0c1.477,35.661,52.294,35.652,53.765,0,.121-21.685-24.977-34.532-42.417-21.92l-5.3-5.75c22.366-17.154,55.629-.752,55.481,27.67a34.688,34.688,0,0,1-34.65,34.649c-29.535.114-45.513-35.306-26.2-57.281l5.3,5.755A26.755,26.755,0,0,0,38.1,199.293M16.513,167.382l-2.062-2.24,7.806-.041a.752.752,0,0,0-.008-1.5l-9.178.049-1.706-1.853,7.931-.042a.752.752,0,0,0-.008-1.5l-9.3.049-1.578-1.712,7.993-.042a.752.752,0,0,0-.008-1.5l-9.364.049-1.54-1.672,7.9-.042a.752.752,0,0,0-.008-1.5l-9.275.049-1.626-1.765,13.847.14,14.031,15.233Zm4.547,31.911a43.749,43.749,0,0,1,11.4-29.491l5.291,5.746c-20.306,22.894-3.669,60.02,27.23,59.9a36.2,36.2,0,0,0,36.154-36.153c.15-29.727-34.691-46.821-58.006-28.779l-5.274-5.727c28.218-22.6,71.225-1.954,71.049,34.506-2.412,58.265-85.44,58.254-87.844,0m77.4,33.753c-1.281-.02-2.875-.1-3.943.722a45.978,45.978,0,0,0,3.943-3.8Zm-1.623,1.5h13.608v3.58H93.564c.274-2.031,1.636-3.58,3.269-3.58m-20.259,8.664a45.323,45.323,0,0,0,17.106-8.739,6.256,6.256,0,0,0-1.626,3.655H89.737a.753.753,0,0,0-.752.752v4.331Zm33.867-18.6v2.9H105.49v-7.7a44.992,44.992,0,0,0,4.911-20.843h38.956v5.547h-9.733a.743.743,0,0,0-.726.621.734.734,0,0,0-.35-.1h-22.77a.752.752,0,1,0,0,1.5h22.77a.737.737,0,0,0,.324-.08v5.36H110.981a.752.752,0,1,0,0,1.5h27.891v5.418a.738.738,0,0,0-.324-.081h-22.77a.752.752,0,1,0,0,1.5h22.77a.737.737,0,0,0,.324-.08v3.776H111.194a.753.753,0,0,0-.752.752m85.511,18.6H111.946V225.371h27.647a.878.878,0,0,0,.457-.153.754.754,0,0,0,.326-.62V206.023h27.615a.84.84,0,0,0,.815-1.052V186.59h27.585a.756.756,0,0,0,.846-.907V167.242H214Zm28.209,0H197.5l3.57-15.027h23.092Zm1.5-1.384V228.188h3.241Zm1.218,1.384,9.317-39.22,9.318,39.22Zm20.181,0-3.57-15.027h6.931a8.7,8.7,0,0,0,6.5,1.976,8.034,8.034,0,0,0,.086,13.051Z" transform="translate(0 0.193)"/>
      <path id="Path_1204" data-name="Path 1204" d="M266.018,156.406a3.706,3.706,0,0,0,0-7.412,3.706,3.706,0,0,0,0,7.412m0-5.907a2.2,2.2,0,0,1,0,4.4,2.2,2.2,0,0,1,0-4.4" transform="translate(0.818 0.465)"/>
      <path id="Path_1205" data-name="Path 1205" d="M204.853,136.041a3.706,3.706,0,0,0,0-7.412,3.706,3.706,0,0,0,0,7.412m0-5.907a2.2,2.2,0,0,1,0,4.4,2.2,2.2,0,0,1,0-4.4" transform="translate(0.628 0.401)"/>
      <path id="Path_1206" data-name="Path 1206" d="M33.764,111.482a3.706,3.706,0,0,0,0-7.412,3.706,3.706,0,0,0,0,7.412m0-5.907a2.2,2.2,0,0,1,0,4.4,2.2,2.2,0,0,1,0-4.4" transform="translate(0.094 0.325)"/>
      <path id="Path_1207" data-name="Path 1207" d="M207.8,56.219a3.706,3.706,0,0,0,0-7.412,3.706,3.706,0,0,0,0,7.412m0-5.907a2.2,2.2,0,0,1,0,4.4,2.2,2.2,0,0,1,0-4.4" transform="translate(0.637 0.152)"/>
      <path id="Path_1208" data-name="Path 1208" d="M246.511,34.69a3.706,3.706,0,0,0,0-7.412,3.706,3.706,0,0,0,0,7.412m0-5.907a2.2,2.2,0,0,1,0,4.4,2.2,2.2,0,0,1,0-4.4" transform="translate(0.758 0.085)"/>
      <path id="Path_1209" data-name="Path 1209" d="M247.4,83.865a3.706,3.706,0,0,0,7.411,0,3.706,3.706,0,0,0-7.411,0m3.706-2.2a2.2,2.2,0,0,1,0,4.4,2.2,2.2,0,0,1,0-4.4" transform="translate(0.772 0.25)"/>
      <path id="Path_1210" data-name="Path 1210" d="M79.613,48.48a3.706,3.706,0,0,0,0-7.412,3.706,3.706,0,0,0,0,7.412m0-5.907a2.2,2.2,0,0,1,0,4.4,2.2,2.2,0,0,1,0-4.4" transform="translate(0.237 0.128)"/>
      <path id="Path_1211" data-name="Path 1211" d="M181.835,160.205l-3.089-3.089a.752.752,0,0,0-1.064,1.063l3.089,3.09a.753.753,0,0,0,1.064-1.064" transform="translate(0.554 0.489)"/>
      <path id="Path_1212" data-name="Path 1212" d="M185.522,163.893a.753.753,0,0,0-1.064,1.064l3.09,3.089a.745.745,0,0,0,.532.221.757.757,0,0,0,.532-1.284l-3.089-3.09" transform="translate(0.575 0.511)"/>
      <path id="Path_1213" data-name="Path 1213" d="M180.771,163.893l-3.089,3.09a.752.752,0,0,0,1.063,1.063l3.09-3.089a.753.753,0,0,0-1.064-1.064" transform="translate(0.554 0.511)"/>
      <path id="Path_1214" data-name="Path 1214" d="M188.612,157.116a.754.754,0,0,0-1.065,0l-3.089,3.089a.753.753,0,1,0,1.064,1.064l3.09-3.089a.753.753,0,0,0,0-1.064" transform="translate(0.575 0.489)"/>
      <path id="Path_1215" data-name="Path 1215" d="M301.077,146.707l3.089,3.091a.753.753,0,0,0,1.064-1.064l-3.09-3.09a.752.752,0,0,0-1.063,1.063" transform="translate(0.938 0.454)"/>
      <path id="Path_1216" data-name="Path 1216" d="M310.941,156.574A.752.752,0,0,0,312,155.509l-3.089-3.089a.752.752,0,1,0-1.063,1.064Z" transform="translate(0.96 0.475)"/>
      <path id="Path_1217" data-name="Path 1217" d="M304.165,152.421l-3.089,3.089a.753.753,0,0,0,1.064,1.064l3.088-3.089a.752.752,0,0,0-1.063-1.064" transform="translate(0.938 0.475)"/>
      <path id="Path_1218" data-name="Path 1218" d="M308.385,150.017a.746.746,0,0,0,.532-.221l3.089-3.089a.752.752,0,0,0-1.063-1.064l-3.089,3.09a.757.757,0,0,0,.532,1.284" transform="translate(0.96 0.454)"/>
      <path id="Path_1219" data-name="Path 1219" d="M95.531,64.522A.753.753,0,0,0,96.6,63.457l-3.09-3.089a.752.752,0,0,0-1.063,1.064l3.089,3.089" transform="translate(0.288 0.188)"/>
      <path id="Path_1220" data-name="Path 1220" d="M102.308,71.3a.752.752,0,0,0,1.063-1.064l-3.089-3.089a.752.752,0,0,0-1.063,1.063Z" transform="translate(0.309 0.209)"/>
      <path id="Path_1221" data-name="Path 1221" d="M92.975,71.518a.75.75,0,0,0,.532-.221l3.088-3.089a.752.752,0,0,0-1.063-1.064l-3.089,3.09a.757.757,0,0,0,.533,1.284" transform="translate(0.288 0.209)"/>
      <path id="Path_1222" data-name="Path 1222" d="M99.751,64.742a.746.746,0,0,0,.532-.221l3.089-3.089a.752.752,0,0,0-1.063-1.064l-3.089,3.09a.757.757,0,0,0,.532,1.284" transform="translate(0.309 0.188)"/>
      <path id="Path_1223" data-name="Path 1223" d="M242.283,57.085a.753.753,0,0,0,1.064-1.064l-3.091-3.089A.752.752,0,0,0,239.194,54l3.09,3.089" transform="translate(0.745 0.164)"/>
      <path id="Path_1224" data-name="Path 1224" d="M249.592,64.081a.757.757,0,0,0,.532-1.284l-3.09-3.09a.752.752,0,0,0-1.063,1.064l3.09,3.089a.746.746,0,0,0,.532.221" transform="translate(0.767 0.186)"/>
      <path id="Path_1225" data-name="Path 1225" d="M239.725,64.081a.746.746,0,0,0,.532-.221l3.09-3.089a.752.752,0,0,0-1.063-1.064l-3.09,3.09a.757.757,0,0,0,.532,1.284" transform="translate(0.745 0.186)"/>
      <path id="Path_1226" data-name="Path 1226" d="M249.06,52.932l-3.09,3.09a.752.752,0,0,0,1.063,1.063L250.125,54a.753.753,0,0,0-1.064-1.064" transform="translate(0.767 0.164)"/>
      <path id="Path_1227" data-name="Path 1227" d="M292.823,77.808a.752.752,0,0,0,1.063-1.064L290.8,73.655a.752.752,0,1,0-1.063,1.064Z" transform="translate(0.903 0.229)"/>
      <path id="Path_1228" data-name="Path 1228" d="M299.6,84.585a.752.752,0,0,0,1.063-1.064l-3.089-3.089a.752.752,0,0,0-1.063,1.064Z" transform="translate(0.924 0.25)"/>
      <path id="Path_1229" data-name="Path 1229" d="M289.735,84.585a.751.751,0,0,0,1.063,0l3.09-3.089a.753.753,0,1,0-1.064-1.064l-3.089,3.089a.752.752,0,0,0,0,1.064" transform="translate(0.903 0.25)"/>
      <path id="Path_1230" data-name="Path 1230" d="M297.043,78.028a.746.746,0,0,0,.532-.221l3.089-3.089a.752.752,0,0,0-1.063-1.063l-3.089,3.089a.757.757,0,0,0,.532,1.284" transform="translate(0.924 0.229)"/>
      <path id="Path_1231" data-name="Path 1231" d="M44.459,129.171a.753.753,0,0,0,1.064-1.064l-3.089-3.089a.753.753,0,0,0-1.064,1.064Z" transform="translate(0.128 0.389)"/>
      <path id="Path_1232" data-name="Path 1232" d="M51.235,135.947a.753.753,0,0,0,1.064-1.064l-3.09-3.089a.752.752,0,0,0-1.063,1.064Z" transform="translate(0.149 0.41)"/>
      <path id="Path_1233" data-name="Path 1233" d="M41.9,136.167a.746.746,0,0,0,.532-.221l3.089-3.089a.752.752,0,0,0-1.063-1.063l-3.089,3.089a.757.757,0,0,0,.532,1.284" transform="translate(0.128 0.41)"/>
      <path id="Path_1234" data-name="Path 1234" d="M48.679,129.39a.746.746,0,0,0,.532-.221l3.089-3.089a.752.752,0,0,0-1.063-1.063l-3.089,3.089a.757.757,0,0,0,.532,1.284" transform="translate(0.15 0.389)"/>
      <path id="Path_1235" data-name="Path 1235" d="M268.24,132.017a.753.753,0,0,0-.752-.752h-5.016a.752.752,0,1,0,0,1.5h5.016a.753.753,0,0,0,.752-.752" transform="translate(0.816 0.409)"/>
      <path id="Path_1236" data-name="Path 1236" d="M272.472,131.265a.752.752,0,0,0,0,1.5h5.016a.752.752,0,1,0,0-1.5Z" transform="translate(0.848 0.409)"/>
      <path id="Path_1237" data-name="Path 1237" d="M282.472,131.265a.752.752,0,0,0,0,1.5h5.016a.752.752,0,1,0,0-1.5Z" transform="translate(0.879 0.409)"/>
      <path id="Path_1238" data-name="Path 1238" d="M292.472,132.77h5.016a.752.752,0,0,0,0-1.5h-5.016a.752.752,0,0,0,0,1.5" transform="translate(0.91 0.409)"/>
      <path id="Path_1239" data-name="Path 1239" d="M258.828,44.176h5.016a.752.752,0,0,0,0-1.5h-5.016a.752.752,0,0,0,0,1.5" transform="translate(0.805 0.133)"/>
      <path id="Path_1240" data-name="Path 1240" d="M278.828,44.176h5.016a.752.752,0,0,0,0-1.5h-5.016a.752.752,0,0,0,0,1.5" transform="translate(0.867 0.133)"/>
      <path id="Path_1241" data-name="Path 1241" d="M288.828,44.176h5.016a.752.752,0,0,0,0-1.5h-5.016a.752.752,0,0,0,0,1.5" transform="translate(0.899 0.133)"/>
      <path id="Path_1242" data-name="Path 1242" d="M268.828,44.176h5.016a.752.752,0,0,0,0-1.5h-5.016a.752.752,0,0,0,0,1.5" transform="translate(0.836 0.133)"/>
      <path id="Path_1243" data-name="Path 1243" d="M153.106,172.168a.752.752,0,0,0,0,1.5h8.66a.752.752,0,0,0,0-1.5Z" transform="translate(0.475 0.537)"/>
      <path id="Path_1244" data-name="Path 1244" d="M308.729,168.727a.753.753,0,0,0,.752.752h8.659a.752.752,0,1,0,0-1.5h-8.659a.753.753,0,0,0-.752.752" transform="translate(0.963 0.524)"/>
      <path id="Path_1245" data-name="Path 1245" d="M241.714,115.29a.753.753,0,0,0,.752.752h8.66a.752.752,0,1,0,0-1.5h-8.66a.753.753,0,0,0-.752.752" transform="translate(0.754 0.357)"/>
      <path id="Path_1246" data-name="Path 1246" d="M269.685,64.815a.752.752,0,0,0,0,1.5h8.659a.752.752,0,0,0,0-1.5Z" transform="translate(0.839 0.202)"/>
      <path id="Path_1247" data-name="Path 1247" d="M184.99,80.16a.752.752,0,0,0,0,1.5h8.66a.752.752,0,0,0,0-1.5Z" transform="translate(0.575 0.25)"/>
      <path id="Path_1248" data-name="Path 1248" d="M72.344,81.665H81a.752.752,0,0,0,0-1.5h-8.66a.752.752,0,0,0,0,1.5" transform="translate(0.223 0.25)"/>
      <path id="Path_1249" data-name="Path 1249" d="M112.373,28.783h8.66a.752.752,0,0,0,0-1.5h-8.66a.752.752,0,0,0,0,1.5" transform="translate(0.348 0.085)"/>
      <path id="Path_1250" data-name="Path 1250" d="M264.729,106.589l-1.945,11.334a.753.753,0,0,0,1.091.793l10.18-5.352,10.178,5.352a.753.753,0,0,0,1.091-.793l-1.943-11.334,8.233-8.026a.752.752,0,0,0-.417-1.283l-11.378-1.654-5.089-10.312a.752.752,0,0,0-1.349,0l-5.089,10.312-11.379,1.654a.752.752,0,0,0-.417,1.283Zm4.169-9.531a.753.753,0,0,0,.567-.411l4.59-9.3,4.588,9.3a.753.753,0,0,0,.567.411l10.263,1.492-7.426,7.239a.753.753,0,0,0-.216.666l1.752,10.221-9.18-4.826a.751.751,0,0,0-.7,0l-9.18,4.826,1.753-10.221a.75.75,0,0,0-.217-.666l-7.426-7.239Z" transform="translate(0.799 0.265)"/>
      <path id="Path_1251" data-name="Path 1251" d="M211.231,81.208a.749.749,0,0,0,.657.386h6.353v37.57a.753.753,0,0,0,.752.752h10.524a.753.753,0,0,0,.752-.752V81.595h6.353a.758.758,0,0,0,.64-1.149L224.9,60.5a.753.753,0,0,0-1.28,0L211.248,80.446a.752.752,0,0,0-.017.762m13.024-18.881L235.27,80.09h-5.753a.753.753,0,0,0-.752.752v37.57h-9.019V80.842a.753.753,0,0,0-.752-.752H213.24Z" transform="translate(0.659 0.188)"/>
      <path id="Path_1252" data-name="Path 1252" d="M263.805,197.474a.753.753,0,0,0,.752-.752v-8.593a.752.752,0,1,0-1.5,0v8.593a.753.753,0,0,0,.752.752" transform="translate(0.821 0.584)"/>
      <path id="Path_1253" data-name="Path 1253" d="M261.845,212.014a.753.753,0,0,0,.752-.752v-8.593a.752.752,0,1,0-1.5,0v8.593a.753.753,0,0,0,.752.752" transform="translate(0.814 0.63)"/>
      <path id="Path_1254" data-name="Path 1254" d="M265.18,226.732a.753.753,0,0,0,.752-.752v-8.593a.752.752,0,1,0-1.5,0v8.593a.753.753,0,0,0,.752.752" transform="translate(0.825 0.676)"/>
      <path id="Path_1255" data-name="Path 1255" d="M269.265,241.45a.753.753,0,0,0,.752-.752v-8.593a.752.752,0,1,0-1.5,0V240.7a.753.753,0,0,0,.752.752" transform="translate(0.838 0.722)"/>
      <path id="Path_1256" data-name="Path 1256" d="M278.362,197.474a.753.753,0,0,0,.752-.752v-8.593a.752.752,0,0,0-1.5,0v8.593a.753.753,0,0,0,.752.752" transform="translate(0.866 0.584)"/>
      <path id="Path_1257" data-name="Path 1257" d="M276.4,212.014a.753.753,0,0,0,.752-.752v-8.593a.752.752,0,1,0-1.5,0v8.593a.753.753,0,0,0,.752.752" transform="translate(0.86 0.63)"/>
      <path id="Path_1258" data-name="Path 1258" d="M279.736,226.732a.753.753,0,0,0,.752-.752v-8.593a.752.752,0,1,0-1.5,0v8.593a.753.753,0,0,0,.752.752" transform="translate(0.87 0.676)"/>
      <path id="Path_1259" data-name="Path 1259" d="M283.821,241.45a.753.753,0,0,0,.752-.752v-8.593a.752.752,0,0,0-1.5,0V240.7a.753.753,0,0,0,.752.752" transform="translate(0.883 0.722)"/>
      <path id="Path_1260" data-name="Path 1260" d="M300.215,182.052c.065.019,6.625,1.985,8.787,8.67a.753.753,0,0,0,1.432-.463,15.478,15.478,0,0,0-9.8-9.652.752.752,0,0,0-.417,1.445" transform="translate(0.935 0.563)"/>
      <path id="Path_1261" data-name="Path 1261" d="M309.6,193.719V196.1a.752.752,0,0,0,1.5,0v-2.385a.752.752,0,0,0-1.5,0" transform="translate(0.966 0.602)"/>
      <path id="Path_1262" data-name="Path 1262" d="M317.657,227.652c.085,0,13.637.927,13.71.926a.753.753,0,0,0,.05-1.5l-13.658-.924a.752.752,0,0,0-.1,1.5" transform="translate(0.989 0.705)"/>
      <path id="Path_1263" data-name="Path 1263" d="M172.187,66.583a.753.753,0,0,0,.752.752h5.016a.752.752,0,0,0,0-1.5h-5.016a.753.753,0,0,0-.752.752" transform="translate(0.537 0.205)"/>
      <path id="Path_1264" data-name="Path 1264" d="M171.754,49.054c.122.781-.7,1.982.351,2.336a.756.756,0,0,0,.921-.535,6.985,6.985,0,0,0-.782-5.421.752.752,0,1,0-1.277.8,5.337,5.337,0,0,1,.787,2.824" transform="translate(0.533 0.141)"/>
      <path id="Path_1265" data-name="Path 1265" d="M182.939,67.336h5.016a.752.752,0,0,0,0-1.5h-5.016a.752.752,0,0,0,0,1.5" transform="translate(0.568 0.205)"/>
      <path id="Path_1266" data-name="Path 1266" d="M192.939,67.336h5.016a.752.752,0,0,0,0-1.5h-5.016a.752.752,0,0,0,0,1.5" transform="translate(0.6 0.205)"/>
      <path id="Path_1267" data-name="Path 1267" d="M152.473,44.176h5.016a.752.752,0,0,0,0-1.5h-5.016a.752.752,0,0,0,0,1.5" transform="translate(0.473 0.133)"/>
      <path id="Path_1268" data-name="Path 1268" d="M149.954,63.232c1.238-.105.5-1.483.571-2.259v-.678a5.452,5.452,0,0,1,.546-2.388.752.752,0,1,0-1.349-.664,7.592,7.592,0,0,0-.7,3.731c.082.757-.1,2.178.934,2.259" transform="translate(0.465 0.177)"/>
      <path id="Path_1269" data-name="Path 1269" d="M142.473,44.176h5.016a.752.752,0,0,0,0-1.5h-5.016a.752.752,0,0,0,0,1.5" transform="translate(0.442 0.133)"/>
      <path id="Path_1270" data-name="Path 1270" d="M132.473,44.176h5.016a.752.752,0,0,0,0-1.5h-5.016a.752.752,0,0,0,0,1.5" transform="translate(0.411 0.133)"/>
      <path id="Path_1271" data-name="Path 1271" d="M122.474,44.176h5.016a.752.752,0,0,0,0-1.5h-5.016a.752.752,0,0,0,0,1.5" transform="translate(0.38 0.133)"/>
      <path id="Path_1272" data-name="Path 1272" d="M154.141,53.953a.753.753,0,0,0,.09,1.5c.151-.066,4.71-.022,5.016-.034a.752.752,0,0,0,0-1.5c-.436.013-4.8-.038-5.106.04" transform="translate(0.479 0.168)"/>
      <path id="Path_1273" data-name="Path 1273" d="M154.791,65.832a3.759,3.759,0,0,1-1.5-.311.754.754,0,0,0-.988.4c-.361,1.293,1.63,1.355,2.491,1.42h3.164a.752.752,0,0,0,0-1.5Z" transform="translate(0.475 0.204)"/>
      <path id="Path_1274" data-name="Path 1274" d="M162.473,44.176h5.016a.752.752,0,0,0,0-1.5h-5.016a.752.752,0,0,0,0,1.5" transform="translate(0.505 0.133)"/>
      <path id="Path_1275" data-name="Path 1275" d="M162.939,65.831a.752.752,0,0,0,0,1.5h5.016a.752.752,0,0,0,0-1.5Z" transform="translate(0.506 0.205)"/>
      <path id="Path_1276" data-name="Path 1276" d="M164.23,53.914a.752.752,0,0,0,0,1.5c1.351-.06,4.01.221,5.253-.386a.752.752,0,0,0-.562-1.4c-.93.468-3.667.219-4.692.277" transform="translate(0.51 0.167)"/>
    </g>
  </g>
</svg>
