<svg xmlns="http://www.w3.org/2000/svg" xmlns:xlink="http://www.w3.org/1999/xlink" width="150" height="150" viewBox="0 0 150 150">
  <defs>
    <clipPath id="clip-path">
      <rect id="Rectangle_308" data-name="Rectangle 308" width="94.329" height="92.477" fill="#131931"/>
    </clipPath>
  </defs>
  <g id="Group_3987" data-name="Group 3987" transform="translate(-709 -5224)">
    <g id="Ellipse_17" data-name="Ellipse 17" transform="translate(709 5224)" fill="none" stroke="#e54727" stroke-width="1">
      <circle cx="75" cy="75" r="75" stroke="none"/>
      <circle cx="75" cy="75" r="74.5" fill="none"/>
    </g>
    <g id="Group_1841" data-name="Group 1841" transform="translate(735.447 5251)" clip-path="url(#clip-path)">
      <path id="Path_1334" data-name="Path 1334" d="M71.328,22.867a1.365,1.365,0,0,0-1.249-1.1,25.261,25.261,0,0,0-12.467,1.683A12.212,12.212,0,0,0,50.1,33.572a19.413,19.413,0,0,0,.885,8.532,4.106,4.106,0,0,1-.817,2.923.687.687,0,0,1-.227.116.709.709,0,0,1-.091.187c0-.07-.023-.117-.023-.187-.2-.046-.273-.373-.318-.584a20.757,20.757,0,0,1-.273-2.665,59.372,59.372,0,0,0-3.95-16.573,28.871,28.871,0,0,0-1.272-2.688,2.739,2.739,0,0,1-.091-2.548,16.427,16.427,0,0,0,1.318-8.158C44.806,7.883,42.49,5.218,39.2,3.348A25.923,25.923,0,0,0,29.206.4a49.129,49.129,0,0,0-6.153-.4c-1.908.023-2.317.444-2.339,2.361a39.571,39.571,0,0,0,.591,8.812A17.773,17.773,0,0,0,25.6,19.991a12.985,12.985,0,0,0,8.992,3.927,21.172,21.172,0,0,0,5.564-.491c1.112-.211,1.249-.164,1.748.889a51.039,51.039,0,0,1,4.223,14.3,95.381,95.381,0,0,1,.908,17.438Q47,57.287,46.9,58.514c-.091,1.028-.182,2.08-.3,3.109-.114.911-.227,1.192-.8,1.215,1.271.07,2.884.094,4.292.117-.841-.047-.818-.281-.773-1.519.045-.912.114-1.8.2-2.689a50.348,50.348,0,0,1,3.156-12.715c.953-2.455,1.135-2.174,2.974-1.589a11.527,11.527,0,0,0,5.632.374,9.422,9.422,0,0,0,6.2-4.278,19.838,19.838,0,0,0,2.793-6.779,44.2,44.2,0,0,0,1.091-9.63,2.616,2.616,0,0,0-.045-1.262M41.559,18.051a26.3,26.3,0,0,0-5.609-5.586,22.793,22.793,0,0,0-3.633-2.127,1.573,1.573,0,0,0-2.247.608,1.606,1.606,0,0,0,.908,2.267,21.447,21.447,0,0,1,8.152,6.849c.091.117.182.257.318.444-6.721,1.543-12.557-.585-14.782-7.947a31.1,31.1,0,0,1-1.135-8.93c0-.4.023-.655.522-.632,4.679.07,9.265.608,13.511,2.759,5,2.524,6.018,7.105,4,12.294m24.478,19.4c-1.885,4.044-5.427,5.47-9.946,4-.2-.07-.409-.164-.682-.257a27.589,27.589,0,0,1,4-5.423,22.154,22.154,0,0,1,3.111-2.758,1.628,1.628,0,0,0,.568-2.315c-.545-.819-1.408-.911-2.385-.281a24.263,24.263,0,0,0-5.812,5.774c-.591.794-1.159,1.636-1.817,2.571-.477-3.109-.364-5.983,1.135-8.672A9.867,9.867,0,0,1,60.134,25.6a25.327,25.327,0,0,1,7.834-1.028c.454,0,.567.139.567.584a30.405,30.405,0,0,1-2.5,12.3" transform="translate(1.698 0)" fill="#131931"/>
      <path id="Path_1335" data-name="Path 1335" d="M92.576,40.72a16.918,16.918,0,0,0-4.02.584A13.79,13.79,0,0,0,81.9,45.909c-4,4.815-8.084,9.583-12.1,14.375-.612.725-.84.748-1.453-.023a6.933,6.933,0,0,0-5.79-2.641H51.522c-1.409-.023-3-.047-4.247-.117-.182,0-.409,0-.7-.023l-.591-.07h-.023a14.372,14.372,0,0,1-1.794-.327,14.994,14.994,0,0,1-2.815-1l-.136-.07c-.682-.327-1.362-.678-2.021-1.076a58.234,58.234,0,0,0-15.963-6.9c-7.176-1.846-13.374.14-18.961,4.84a21.807,21.807,0,0,0-3.542,3.6c-.182.233-.341.537-.726.49V73.539c2.156,1.449,4.677,1.1,7.016,1.4a61.96,61.96,0,0,1,17.28,5c4.95,2.2,9.832,4.581,14.873,6.545a21.75,21.75,0,0,0,6.221,1.285,24.694,24.694,0,0,0,11.717-2.127c3.224-1.356,6.471-2.664,9.7-4,1.385-.561,2.839-.819,4.247-1.309A19.6,19.6,0,0,0,82.4,70.195c2.338-4.792,4.268-9.771,6.381-14.679,1.726-4,3.429-8.017,5.132-12.015a2.577,2.577,0,0,0,.182-.444c.612-1.426-.023-2.43-1.521-2.337m-5.45,11.547c-2.339,5.447-4.587,10.917-7.039,16.292A16.822,16.822,0,0,1,68.37,78.143c-3.5.911-6.721,2.594-10.082,3.9-2.838,1.122-5.608,2.384-8.7,2.758a21.435,21.435,0,0,1-11.444-1.823c-5.768-2.525-11.423-5.283-17.28-7.6A57.561,57.561,0,0,0,5.426,71.832c-2.338-.234-2.338-.187-2.338-2.6,0-3.436.023-6.849-.023-10.285a2.149,2.149,0,0,1,.612-1.589,22.476,22.476,0,0,1,10.377-6.615c3.52-.959,6.949-.444,10.377.585a54.309,54.309,0,0,1,13.261,6.054,20.776,20.776,0,0,0,11.331,3.132c4.677-.023,9.378,0,14.056,0a3.666,3.666,0,0,1,3.428,2.174,3.9,3.9,0,0,1-.158,3.974,3.989,3.989,0,0,1-3.7,1.892q-9.707-.035-19.414,0a28.605,28.605,0,0,0-8.652,1.263c-.568.187-.727.326-.523.934.727,2.221.7,2.244,2.906,1.683a25.835,25.835,0,0,1,6.132-.7c6.494.023,13.011.023,19.505,0A7.023,7.023,0,0,0,69.347,67.6a4.243,4.243,0,0,0,.544-1.8,4.273,4.273,0,0,1,1.272-2.828c4.473-5.283,8.9-10.613,13.4-15.872a9.837,9.837,0,0,1,6.131-3.389c-1.2,3.015-2.385,5.8-3.565,8.555" transform="translate(0 4.635)" fill="#131931"/>
    </g>
  </g>
</svg>
