<svg xmlns="http://www.w3.org/2000/svg" xmlns:xlink="http://www.w3.org/1999/xlink" width="150" height="150" viewBox="0 0 150 150">
  <defs>
    <clipPath id="clip-path">
      <rect id="Rectangle_313" data-name="Rectangle 313" width="91.552" height="91.491" fill="#131931"/>
    </clipPath>
  </defs>
  <g id="Group_3990" data-name="Group 3990" transform="translate(-709 -5038)">
    <g id="Ellipse_16" data-name="Ellipse 16" transform="translate(709 5038)" fill="none" stroke="#e54727" stroke-width="1">
      <circle cx="75" cy="75" r="75" stroke="none"/>
      <circle cx="75" cy="75" r="74.5" fill="none"/>
    </g>
    <g id="Group_1851" data-name="Group 1851" transform="translate(738.225 5067.255)" clip-path="url(#clip-path)">
      <path id="Path_1360" data-name="Path 1360" d="M31.59.224C29.8,1.411,30.47,3.18,30.606,4.771a1.333,1.333,0,0,0,1.388,1.164A1.5,1.5,0,0,0,33.449,4.7a8.915,8.915,0,0,0,0-3.18,1.52,1.52,0,0,0-.627-.941C32.643.426,32.307.358,32.351,0h-.716a.208.208,0,0,1-.045.224" transform="translate(13.805 0)" fill="#131931"/>
      <path id="Path_1361" data-name="Path 1361" d="M57.4,53.376c1.635,0,2.284-.694,2.307-2.351,0-1.926.022-3.875-.023-5.8-.022-.605.157-.739.739-.717q3.528.035,7.055,0c1.5,0,2.195-.672,2.218-2.15.022-.918.022-1.859,0-2.777a8.365,8.365,0,0,0-4.883-7.793,22.817,22.817,0,0,0-4.009-1.165c-.246-.067-.649.045-.739-.358s.246-.56.493-.761a7.507,7.507,0,0,0,2.777-4.838,26.586,26.586,0,0,0,.022-6.406,7.841,7.841,0,0,0-7.725-7.009A8.133,8.133,0,0,0,50.3,13.131a6.75,6.75,0,0,0-.47-.895,10.045,10.045,0,0,0-9.228-5.555,9.97,9.97,0,0,0-9.2,5.577c-.381.672-.56.873-1.276.358a7.948,7.948,0,0,0-11.914,4.009c-.807,2.6-.493,5.241-.381,7.884a5.946,5.946,0,0,0,.313,1.389,7.784,7.784,0,0,0,2.621,3.74.7.7,0,0,1,.358.672c-.067.336-.336.269-.56.336-.717.179-1.433.358-2.172.515a8.416,8.416,0,0,0-6.339,5.329A14.049,14.049,0,0,0,11.6,43.1c.09.963.807,1.434,1.949,1.434q3.528.033,7.055,0c.649,0,.918.089.9.851-.067,1.881-.023,3.761-.023,5.62,0,1.77.65,2.419,2.419,2.419h9.564a4.737,4.737,0,0,0,.963-.112,1.729,1.729,0,0,0-.179-3.4,10.275,10.275,0,0,0-1.434-.045c-.493.045-.672-.134-.649-.649.045-1.008.045-2.016,0-3.046a1.789,1.789,0,0,0-1.725-1.814,1.818,1.818,0,0,0-1.814,1.814c-.022.291,0,.6,0,.9-.022.895.314,2.15-.134,2.575-.627.583-1.859.112-2.822.2-.493.045-.583-.179-.583-.627.023-1.344-.044-2.688.023-4.032A7.431,7.431,0,0,1,31.065,37.9c1.322-.336,2.665-.582,3.987-.963.582-.157.761.023.963.515.918,2.15,1.881,4.3,2.822,6.451a1.939,1.939,0,0,0,1.769,1.411A1.886,1.886,0,0,0,42.443,43.9c.941-2.173,1.9-4.345,2.844-6.518.179-.425.336-.56.851-.425,1.367.38,2.777.627,4.166,1.007a7.291,7.291,0,0,1,5.644,5.689,29.44,29.44,0,0,1,.2,5.8c0,.4-.224.426-.515.426-.807,0-1.613-.045-2.419,0-.538.022-.65-.18-.627-.672.044-.807,0-1.613,0-2.419,0-1.546-.628-2.4-1.77-2.419S49,45.224,49,46.747c0,.806-.022,1.613,0,2.419.022.537-.112.761-.672.717a7.76,7.76,0,0,0-1.612.044,1.685,1.685,0,0,0-1.5,1.792c.045,1.075.829,1.725,2.173,1.725,3.337-.068,6.673-.068,10.01-.068m-5.644-36.57a4.487,4.487,0,0,1,4.726-1.949,4.344,4.344,0,0,1,3.359,4.009A16.854,16.854,0,0,1,52,17.7c-.56-.246-.515-.47-.246-.895m.649,4.86a18.758,18.758,0,0,0,6.675.784c.739-.023.873.223.828.895a4.434,4.434,0,0,1-4.3,4.368,4.351,4.351,0,0,1-4.524-4.1c-.022-.313-.045-.649-.045-.985.045-1.389.045-1.389,1.366-.963M33.82,16.715a6.563,6.563,0,0,1,3.74-5.756,6.538,6.538,0,0,1,6.7.291,6.78,6.78,0,0,1,3.136,4.7c-.986-.582-1.815-1.075-2.666-1.567a1.836,1.836,0,0,0-2.753.4c-2.128,2.352-4.883,2.732-7.817,2.575-.537-.067-.358-.4-.336-.649M21.7,17.433a4.243,4.243,0,0,1,3.629-2.621A4.3,4.3,0,0,1,29.5,16.849c.268.4.268.605-.247.851a14.44,14.44,0,0,1-6.137,1.21h-.448c-1.5,0-1.59-.112-.963-1.478m-.4,5.508c.045-.6.4-.47.717-.47a21.032,21.032,0,0,0,6.361-.672c.56-.179,1.12-.358,1.791-.582A17.527,17.527,0,0,1,30.1,23.9a4.386,4.386,0,0,1-4.972,3.785,4.556,4.556,0,0,1-3.83-4.748M29.23,34.676a10.608,10.608,0,0,0-6.518,5.577,1.047,1.047,0,0,1-1.142.694q-2.856-.068-5.711,0c-.65.023-.762-.2-.762-.806,0-3.225,1.322-4.883,4.435-5.644,1.232-.291,2.486-.582,3.718-.9a1.706,1.706,0,0,0,1.456-1.769c0-.471.156-.627.6-.583a3.927,3.927,0,0,0,.9,0c.359-.044.538.045.538.471a1.857,1.857,0,0,0,1.724,1.926c.7.157,1.389.336,2.106.515a3.813,3.813,0,0,1-1.344.515m1.456-4.143c-.516-.135-.493-.471-.18-.784.336-.358.762-.672,1.12-1.03.2-.2.336-.157.493.067a24.109,24.109,0,0,0,2.374,2.665c-1.277-.314-2.553-.605-3.807-.918m12.048,3.046a3.161,3.161,0,0,1-.179,1.12c-.627,1.366-1.232,2.753-1.926,4.367-.739-1.68-1.456-3.18-2.038-4.7-.381-1.008-.09-1.277.94-1.187a7.639,7.639,0,0,0,2.665-.09c.4-.09.56.045.538.493m1.993-5.331A6.829,6.829,0,0,1,33.82,23.434c-.067-.65,0-1.3-.067-1.971-.045-.493.134-.605.605-.582a19.97,19.97,0,0,0,3.828-.157,10.716,10.716,0,0,0,5.04-2.307.861.861,0,0,1,1.232-.067,13.612,13.612,0,0,0,2.081,1.209,1.4,1.4,0,0,1,.964,1.658,4.9,4.9,0,0,0,0,.828,6.906,6.906,0,0,1-2.778,6.2m4.524,2.576c-.873.269-1.769.448-2.641.672a13.819,13.819,0,0,0,2.374-2.486c.268-.381.492-.605.828-.09.314.493,1.255.627,1.075,1.277s-1.052.448-1.635.627m1.725,3.561c-.112-.022-.2-.112-.381-.179.851-.2,1.613-.4,2.4-.605a1.775,1.775,0,0,0,1.5-1.747c.023-.537.2-.649.672-.582a3.247,3.247,0,0,0,.806,0c.426-.067.56.089.56.515a1.736,1.736,0,0,0,1.5,1.814c1.389.336,2.777.672,4.143,1.03a5.131,5.131,0,0,1,3.987,5.891c-.045.4-.246.4-.515.4H59.307a.589.589,0,0,1-.628-.358,10.993,10.993,0,0,0-7.7-6.182" transform="translate(5.192 3.037)" fill="#131931"/>
      <path id="Path_1362" data-name="Path 1362" d="M26.411,7.536a1.523,1.523,0,0,0,1.9-.157,1.461,1.461,0,0,0,.627-1.724,6.551,6.551,0,0,0-3.248-3.248.872.872,0,0,0-.313-.067,1.76,1.76,0,0,0-1.546,2.62,9.379,9.379,0,0,0,2.576,2.576" transform="translate(10.721 1.064)" fill="#131931"/>
      <path id="Path_1363" data-name="Path 1363" d="M36.532,7.531a1.479,1.479,0,0,0,1.747,0,11.55,11.55,0,0,0,2.508-2.508,1.549,1.549,0,0,0,0-1.77A1.651,1.651,0,0,0,39.242,2.4c-1.1.023-3.561,2.486-3.583,3.584a1.711,1.711,0,0,0,.873,1.545" transform="translate(16.209 1.091)" fill="#131931"/>
      <path id="Path_1364" data-name="Path 1364" d="M.448,55.3c.538,4.1,2.777,7.369,5.174,10.548a14.336,14.336,0,0,0,1.119,1.5,1.434,1.434,0,0,0,2.016.224,1.438,1.438,0,0,0,.381-1.993,33,33,0,0,0-1.926-2.8c-1.568-2.263-3.136-4.5-3.561-7.324A20.592,20.592,0,0,1,3.36,52.34c.022-8.78,0-17.581,0-26.359a10.048,10.048,0,0,1,.022-1.165,2.638,2.638,0,0,1,2.307-2.262A2.539,2.539,0,0,1,8.465,24.3a4.713,4.713,0,0,1,.179,1.68c0,6.919.023,13.817,0,20.737a13,13,0,0,0,3.92,9.473c2.6,2.665,5.06,5.465,7.681,8.084a5.377,5.377,0,0,0,.515.493,1.45,1.45,0,0,0,1.814,0,1.406,1.406,0,0,0,.493-1.68,1.852,1.852,0,0,0-.583-.9c-2.172-2.217-4.188-4.545-6.383-6.74-.694-.7-1.343-1.456-1.948-2.195a3.143,3.143,0,0,1,.134-4.166,2.985,2.985,0,0,1,3.92-.358C20.4,50.19,22.6,51.6,24.724,53.124a23.117,23.117,0,0,1,9.519,15c.806,4.009,1.679,8,2.508,11.983a5.27,5.27,0,0,0,.47,1.523,1.327,1.327,0,0,0,1.479.739,1.455,1.455,0,0,0,1.231-1.344,3.636,3.636,0,0,0-.067-.986c-1.03-4.948-1.926-9.943-3.2-14.848a24.994,24.994,0,0,0-7.055-12.026,54.568,54.568,0,0,0-7.593-5.62c-.739-.493-1.478-1.008-2.24-1.478a5.906,5.906,0,0,0-6.65-.045c-.2.134-.4.269-.605.38q-.336.236-.538.135c-.022,0-.022.022-.044.022v-.045a.576.576,0,0,1-.2-.47,8.555,8.555,0,0,1-.022-1.075V25.487A5.732,5.732,0,0,0,.65,23.046c-.135.4-.045.985-.65,1.142V53.145A.793.793,0,0,1,0,54.22v.537c.4.045.426.314.448.538" transform="translate(0 8.801)" fill="#131931"/>
      <path id="Path_1365" data-name="Path 1365" d="M75.522,25.71v-.358a6.046,6.046,0,0,0-6-6.137,5.941,5.941,0,0,0-5.958,6.137c-.022,4.388,0,8.756,0,13.146v8.173c-2.934-2.441-5.889-2.127-8.017-.716-2.688,1.814-5.465,3.494-8,5.508A25.26,25.26,0,0,0,38.7,64.857c-1.366,5.084-2.218,10.279-3.36,15.408a2.227,2.227,0,0,0,.045,1.321,1.724,1.724,0,0,0,1.747,1.142c.9-.022,1.5-.649,1.747-1.747.851-4.054,1.747-8.084,2.508-12.138a24.007,24.007,0,0,1,6.2-12.608c3.024-3.091,6.785-5.2,10.369-7.548a2.5,2.5,0,0,1,3.315.874,2.959,2.959,0,0,1-.314,3.919c-2.643,2.822-5.308,5.644-7.951,8.465a5.807,5.807,0,0,0-.672.829,1.745,1.745,0,0,0,1.568,2.665,2.112,2.112,0,0,0,1.5-.851c2.665-2.822,5.308-5.644,7.972-8.465A13.2,13.2,0,0,0,67.146,46.6c-.045-7.031-.023-14.064,0-21.1a2.476,2.476,0,0,1,2.417-2.753,2.441,2.441,0,0,1,2.4,2.732c0,9.047.022,18.118,0,27.165a13,13,0,0,1-2.15,7.526c-2.262,3.313-4.592,6.583-6.921,9.853q-3.358,4.737-6.719,9.473a1.94,1.94,0,0,0-.246,2.464c.806,1.1,2.195.985,3.113-.314q6.585-9.271,13.168-18.566a17.6,17.6,0,0,0,3.315-10.525V25.71" transform="translate(16.03 8.734)" fill="#131931"/>
      <path id="Path_1366" data-name="Path 1366" d="M12.381,58.34a1.523,1.523,0,0,0-1.881-.314,1.686,1.686,0,0,0-1.031,1.613,1.272,1.272,0,0,0,.157.694,34.69,34.69,0,0,0,3.091,4.345,1.619,1.619,0,0,0,2.195.179,1.655,1.655,0,0,0,.605-2.127,27.068,27.068,0,0,0-3.136-4.39" transform="translate(4.304 26.291)" fill="#131931"/>
      <path id="Path_1367" data-name="Path 1367" d="M8.638,54.289a1.722,1.722,0,0,0-1.725,1.769,1.8,1.8,0,0,0,1.747,1.77,1.835,1.835,0,0,0,1.792-1.837,1.742,1.742,0,0,0-1.814-1.7" transform="translate(3.142 24.676)" fill="#131931"/>
      <path id="Path_1368" data-name="Path 1368" d="M32.046,36.336a1.758,1.758,0,1,0,.022,3.516,1.849,1.849,0,0,0,1.747-1.791,1.779,1.779,0,0,0-1.769-1.725" transform="translate(13.752 16.516)" fill="#131931"/>
    </g>
  </g>
</svg>
