<svg id="Group_1826" data-name="Group 1826" xmlns="http://www.w3.org/2000/svg" xmlns:xlink="http://www.w3.org/1999/xlink" width="65.053" height="64.975" viewBox="0 0 65.053 64.975">
  <defs>
    <clipPath id="clip-path">
      <rect id="Rectangle_288" data-name="Rectangle 288" width="65.053" height="64.975" fill="none"/>
    </clipPath>
  </defs>
  <g id="Group_1825" data-name="Group 1825" transform="translate(0 0)" clip-path="url(#clip-path)">
    <path id="Path_1305" data-name="Path 1305" d="M38.821,7.205A13.672,13.672,0,1,0,52.466,20.9a13.711,13.711,0,0,0-13.645-13.7m1.014,20.231c.052,1.474,0,2.963.026,4.452,0,.408-.1.526-.526.539-1.607.054-1.607.066-1.607-1.553,0-1.173-.04-2.331.013-3.5a1.448,1.448,0,0,0-.987-1.555,5.606,5.606,0,0,1-1.461-9.154c.078-.079.144-.211.355-.171,0,1.317.013,2.648-.013,3.978a1.56,1.56,0,0,0,.5,1.252c.607.593,1.173,1.225,1.778,1.83a1.092,1.092,0,0,0,1.765.013c.013-.013.027-.026.04-.04a5.218,5.218,0,0,0,2.239-5.387,10.677,10.677,0,0,1-.013-1.726A5.58,5.58,0,0,1,40.9,25.789a1.533,1.533,0,0,0-1.067,1.646M50.346,21.1a11.587,11.587,0,0,1-7.784,10.708c-.526.184-.645.092-.632-.448.04-1,.04-1.989,0-2.989a1.046,1.046,0,0,1,.567-1.054,7.387,7.387,0,0,0,3.6-7.283,7.38,7.38,0,0,0-4.36-6.256c-1.041-.526-2-.079-1.9,1.212.065.777.013,1.567.013,2.357a14.153,14.153,0,0,0,.013,1.976,2.011,2.011,0,0,1-.856,1.91.878.878,0,0,1-.236.158c-.277-.263-.54-.54-.817-.8-.395-.369-.211-.843-.224-1.265-.027-1.463,0-2.924-.013-4.386,0-1.251-.685-1.7-1.818-1.159a7.308,7.308,0,0,0-4.426,6.336,7.4,7.4,0,0,0,3.648,7.257.878.878,0,0,1,.527.883c-.04,1.054-.027,2.12,0,3.187.013.461-.066.593-.553.422a11.342,11.342,0,0,1-7.573-8.39A11.559,11.559,0,1,1,50.346,21.1" transform="translate(4.131 1.185)" fill="#e54727"/>
    <path id="Path_1306" data-name="Path 1306" d="M60.6,17.846c-.935.027-1.87,0-2.792.014-.342.013-.527-.066-.619-.435a15.553,15.553,0,0,0-1.751-4.254.509.509,0,0,1,.1-.751c.725-.685,1.423-1.4,2.122-2.108a1.077,1.077,0,0,0,0-1.764q-2.075-2.094-4.176-4.176a1.085,1.085,0,0,0-1.765,0c-.724.711-1.449,1.436-2.146,2.16a.439.439,0,0,1-.646.092,16.109,16.109,0,0,0-4.32-1.791.514.514,0,0,1-.447-.619c.026-.935-.014-1.87.013-2.791A1.454,1.454,0,0,0,43.455,0H36.447c-.737,1.133-.395,2.41-.434,3.635C35.961,4.807,36,4.821,34.907,5.15a19.567,19.567,0,0,0-3.4,1.409c-.87.461-1,.422-1.713-.29-.539-.54-1.067-1.093-1.62-1.62C27.5,4,27.083,3.99,26.438,4.636q-1.975,1.937-3.911,3.912c-.645.658-.632,1.079.013,1.738.606.632,1.212,1.238,1.844,1.843a.911.911,0,0,1,.211,1.239,17.624,17.624,0,0,0-1.634,3.924.863.863,0,0,1-.922.7c-.843,0-1.7-.014-2.542.013-1.067.027-1.4.369-1.409,1.436v6.348c.2.342.566.487,1.185.487.948.014,1.91.027,2.857-.013.4-.013.54.106.632.5a15.433,15.433,0,0,0,1.752,4.2.491.491,0,0,1-.092.751C23.7,32.4,23,33.112,22.3,33.823a1.065,1.065,0,0,0-.026,1.751q2.075,2.094,4.188,4.188a1.09,1.09,0,0,0,1.764.013c.725-.711,1.45-1.436,2.16-2.16a.439.439,0,0,1,.646-.092,15.981,15.981,0,0,0,4.385,1.8c.317.078.4.236.382.539-.013,1.014-.013,2.042,0,3.057.014.856.4,1.238,1.252,1.238,1.975.013,3.951.013,5.913,0a1.094,1.094,0,0,0,1.239-1.212c.013-1,.013-1.989,0-2.989-.014-.369.065-.554.474-.659a15.635,15.635,0,0,0,4.2-1.738c.277-.171.422-.184.5-.106l2.476,2.253c.027.013.054.026.079.04.738.474,1.252.144,1.778-.4,1.173-1.2,2.371-2.371,3.556-3.556.87-.883.87-1.211-.013-2.108-.553-.553-1.106-1.119-1.659-1.672a.917.917,0,0,1-.211-1.2,19.216,19.216,0,0,0,1.7-4.176.756.756,0,0,1,.789-.606c.488-.014.975,0,1.463-.014a4.4,4.4,0,0,0,2.74-.447V18.57a1.536,1.536,0,0,0-1.475-.724m-.672,5.914c0,.355-.132.422-.448.409-.908-.014-1.817-.014-2.739,0-.9,0-1.173.224-1.357,1.079a16.273,16.273,0,0,1-2.266,5.48,1.145,1.145,0,0,0,.2,1.738c.737.737,1.475,1.461,2.252,2.238-.935.936-1.857,1.832-2.766,2.753-.225.225-.33.133-.5-.038-.672-.686-1.344-1.358-2.016-2.028a1.091,1.091,0,0,0-1.633-.171A15.972,15.972,0,0,1,43.192,37.5c-.935.2-1.133.475-1.133,1.45,0,.9-.013,1.778.013,2.674.014.342-.1.422-.434.422-1.119-.014-2.252-.027-3.372,0-.355,0-.422-.119-.422-.435.027-.948.014-1.91,0-2.857a1.029,1.029,0,0,0-.961-1.2,16.359,16.359,0,0,1-5.7-2.371,1.073,1.073,0,0,0-1.541.184c-.764.764-1.528,1.541-2.266,2.279-1-1.014-1.989-2-2.976-3.016.724-.711,1.475-1.463,2.225-2.214a1.093,1.093,0,0,0,.185-1.633A16.243,16.243,0,0,1,24.5,25.248c-.184-.869-.46-1.079-1.369-1.079s-1.818-.014-2.74.013c-.328.013-.434-.092-.422-.422.014-1.119.027-2.252,0-3.372-.013-.342.106-.422.422-.422.935.027,1.871.014,2.806,0,.8,0,1.119-.249,1.29-1.027a16.431,16.431,0,0,1,2.318-5.6,1.1,1.1,0,0,0-.185-1.634c-.658-.658-1.317-1.33-1.988-1.975-.225-.211-.277-.356-.027-.593.829-.791,1.633-1.607,2.423-2.423.211-.211.33-.238.54,0,.658.685,1.344,1.357,2.014,2.027a1.1,1.1,0,0,0,1.634.172,16.194,16.194,0,0,1,5.532-2.293c.829-.171,1.067-.474,1.067-1.317,0-.908.013-1.83,0-2.739,0-.33.04-.5.434-.488,1.12.027,2.252.027,3.372,0,.355,0,.422.119.408.434-.013.909-.013,1.818,0,2.74,0,.87.25,1.173,1.093,1.357a16.046,16.046,0,0,1,5.426,2.239c.778.514,1.146.461,1.832-.224.631-.632,1.263-1.252,1.883-1.9.211-.224.342-.277.593-.027.791.83,1.607,1.634,2.423,2.423.225.225.211.344,0,.554-.685.658-1.357,1.343-2.028,2.014a1.078,1.078,0,0,0-.2,1.58A16.125,16.125,0,0,1,55.4,18.992a1.094,1.094,0,0,0,1.173.949c.948,0,1.91.013,2.857,0,.317,0,.5.026.488.434-.014,1.133-.014,2.266.013,3.385" transform="translate(2.974 0)" fill="#e54727"/>
    <path id="Path_1307" data-name="Path 1307" d="M6.785,49H48.023c1.04,0,1.382-.342,1.382-1.357V44.267c0-1.633,0-1.62-1.62-1.607-.422,0-.487.146-.474.515.027,1.053-.013,2.12.013,3.187.014.395-.079.54-.514.54q-19.48-.021-38.945,0c-.435,0-.515-.133-.515-.54q.021-11.044,0-22.088c0-.447.146-.514.54-.514,2.819.013,5.637.013,8.469.013,1.555,0,1.528,0,1.555-1.553.013-.488-.146-.593-.607-.593-3.517.013-7.046.013-10.562.013-1.146,0-1.461.317-1.461,1.475v24.38c-.014,1.2.289,1.5,1.5,1.5" transform="translate(0.869 3.556)" fill="#131931"/>
    <path id="Path_1308" data-name="Path 1308" d="M56.412,53.157c-.013-.948-.316-1.265-1.225-1.357-.869-.079-.935-.132-.935-1V33.809l-1.856.079c-.014,4.452-.014,12.749.013,17.215,0,.526-.2.566-.619.566q-11.814-.019-23.6-.013-11.736,0-23.484.013c-.566,0-.685-.144-.685-.685q.021-14.679.014-29.345c0-1.212.289-1.5,1.488-1.5,4.517,0,11.8,0,16.318-.013V18.188H5.1a3.051,3.051,0,0,0-2.938,3.043c.04,9.615.014,19.216.014,28.831v.7c-.014.9-.066.949-.975,1.041-.883.092-1.185.422-1.185,1.317C0,54.409-.012,55.7.015,57a5.139,5.139,0,0,0,4.846,4.978h.2q23.134,0,46.268-.013A4.888,4.888,0,0,0,55.938,59a5.056,5.056,0,0,0,.474-2.16c.014-1.225.014-2.463,0-3.688M16.636,54c.079-.409.356-.224.54-.224q4.583-.021,9.154-.014h1.91c3.648,0,7.3.014,10.932-.013.5,0,.632.132.619.619-.04,1.171-.33,1.488-1.541,1.488H18.164c-1.265,0-1.764-.619-1.528-1.857m37.853.382c-.04.764,0,1.528-.013,2.292a3.146,3.146,0,0,1-3.412,3.4H5.389A3.158,3.158,0,0,1,2,57.608a16.261,16.261,0,0,1-.079-2.661c-.014-1.159,0-1.159,1.133-1.159,3.621,0,7.257.013,10.878-.013.515,0,.659.144.619.632a3.3,3.3,0,0,0,3.609,3.609q10.057-.1,20.1,0a3.3,3.3,0,0,0,3.582-3.623c-.052-.526.158-.618.632-.618,3.794.013,7.587.026,11.393,0,.5-.027.659.1.619.605" transform="translate(0 2.991)" fill="#131931"/>
  </g>
</svg>
