<svg xmlns="http://www.w3.org/2000/svg" xmlns:xlink="http://www.w3.org/1999/xlink" width="150" height="150" viewBox="0 0 150 150">
  <defs>
    <clipPath id="clip-path">
      <rect id="Rectangle_307" data-name="Rectangle 307" width="104.102" height="72.806" fill="#131931"/>
    </clipPath>
  </defs>
  <g id="Group_3989" data-name="Group 3989" transform="translate(-709 -4825)">
    <g id="Ellipse_16" data-name="Ellipse 16" transform="translate(709 4825)" fill="none" stroke="#e54727" stroke-width="1">
      <circle cx="75" cy="75" r="75" stroke="none"/>
      <circle cx="75" cy="75" r="74.5" fill="none"/>
    </g>
    <g id="Group_1839" data-name="Group 1839" transform="translate(731.949 4863.597)" clip-path="url(#clip-path)">
      <path id="Path_1330" data-name="Path 1330" d="M49.909,48.086A6.216,6.216,0,0,0,48.578,46.1c.027.027.055.027.082.055a7.115,7.115,0,0,0-4.612-1.872,6.3,6.3,0,0,0-1.9.162v-.731a6.543,6.543,0,0,0-7.84-6.621c-.489.082-.652.027-.706-.487a6.534,6.534,0,0,0-7.733-5.752c-.3.08-.569.135-.624-.354a6.669,6.669,0,0,0-11.043-4.4,16.132,16.132,0,0,0-2.658,4.532v.053a4.807,4.807,0,0,1-.326.787c-.108.19-.217.379-.325.6a26.236,26.236,0,0,0-1.276,2.443,6.319,6.319,0,0,0,5.427,8.953c1.437.108,1.437.108,1.329,1.546a6.317,6.317,0,0,0,5.969,6.973,7.078,7.078,0,0,0,3.065-.652c1.139-.434,1.139-.434,1.71.57a6.267,6.267,0,0,0,7.542,3.039c.868-.272,1.3-.109,1.655.731a6.869,6.869,0,0,0,4.5,4.233,5.279,5.279,0,0,0,6.024-2.089,9.271,9.271,0,0,0,.569-.841,4.544,4.544,0,0,1,.489-.678c.842-1.356,1.737-3.148,1.872-3.365a7.293,7.293,0,0,0,.489-1.708,5.665,5.665,0,0,0-.244-2.877,1.889,1.889,0,0,0-.108-.27M15.75,40.814c-3.176,0-5.046-2.795-3.827-5.344,1.059-2.226,2.252-4.4,3.473-6.512a3.782,3.782,0,0,1,6.62,3.635c-1.058,2.144-2.2,4.26-3.364,6.348a3.5,3.5,0,0,1-2.9,1.872m10.255,6.457A3.755,3.755,0,0,1,21.718,49.2a3.694,3.694,0,0,1-2.848-3.827,3.963,3.963,0,0,1,.543-1.9c1.384-2.578,2.766-5.183,4.15-7.761a3.8,3.8,0,1,1,6.729,3.528c-1.384,2.686-2.822,5.373-4.286,8.031m9.767,3.745a3.467,3.467,0,0,1-3.092,1.6,3.715,3.715,0,0,1-3.446-5.263,63.02,63.02,0,0,1,3.2-5.969,3.714,3.714,0,0,1,4.937-1.194,3.653,3.653,0,0,1,1.71,4.694c-1.032,2.088-2.144,4.124-3.311,6.131m11.287.868a36.392,36.392,0,0,1-1.628,3.256c-.76,1.411-1.683,2.578-3.528,2.334a4.591,4.591,0,0,1-3.471-3.446c-.027-.109-.027-.191-.055-.3-.461-2.713,2.74-6.674,5.371-6.674,2.767.027,4.368,2.279,3.311,4.829" transform="translate(4.679 12.629)" fill="#131931"/>
      <path id="Path_1331" data-name="Path 1331" d="M91.741,33.964c-3.69-10.093-7.488-20.131-11.2-30.224A5,5,0,0,0,77.01.132a4.838,4.838,0,0,0-2.9.217C71.827,1.19,69.52,2,67.241,2.872c-2.74,1.03-3.69,2.6-3.391,5.508.135,1.22-.19,1.6-1.466,1.573a12.134,12.134,0,0,1-4.015-1,65.227,65.227,0,0,0-6.3-2.334A16.027,16.027,0,0,0,39.324,8.189a2.214,2.214,0,0,1-.922.326,14.6,14.6,0,0,0-3.094,1.953,1.607,1.607,0,0,1-.379.408c-3.336,2.93-6.43,6.131-9.5,9.333A16.18,16.18,0,0,0,23.4,22.867a1.778,1.778,0,0,0,.19,2.306c3.393,4.341,7.733,5.672,13.513,3.934,2.576-.786,5.1-1.763,7.677-2.631.137-.055.3-.082.434-.137a3.385,3.385,0,0,1,.706-.162c1.329-.326,4.233-1.085,6.567-1.845-.082-.055-.137-.082-.218-.135-2.17-1.356-4.558-1.3-6.972-.76-2.686.624-5.183,1.763-7.759,2.631-2.306.76-4.612,1.384-7.055.733a8.3,8.3,0,0,1-3.96-2.523c-.326-.352-.326-.6-.027-.922.922-1,1.79-2.035,2.74-3.012,2.631-2.6,5.128-5.316,7.976-7.677,5.156-4.341,10.8-5.4,17.093-2.632a27.152,27.152,0,0,0,6.782,2.361,7.144,7.144,0,0,0,3.119-.135c.435-.137.652-.109.815.379q4.354,11.8,8.736,23.549a1.865,1.865,0,0,0,.08.19.383.383,0,0,1-.053.435.406.406,0,0,1-.109.08c-.217.137-.352.055-.516-.135l-.135-.137A6.161,6.161,0,0,1,74.4,39.878a.46.46,0,0,1,.352-.489.533.533,0,0,1,.191-.027c.379,0,.434.489.6.76a4.883,4.883,0,0,0,3.663,2.605,5.315,5.315,0,0,0,2.578-.434c2.117-.815,4.259-1.6,6.376-2.361a5.318,5.318,0,0,0,3.418-2.957c.109-.244.162-.624.6-.6V34.56c-.352-.026-.352-.352-.434-.6M87.454,37.41c-2.224.841-4.423,1.655-6.647,2.469-1.628.6-2.578.164-3.174-1.464q-5.576-14.978-11.1-29.926C65.94,6.86,66.374,5.91,68,5.313c2.279-.868,4.558-1.71,6.837-2.551a1.951,1.951,0,0,1,.922-.244,2.216,2.216,0,0,1,2.224,1.628c1.52,4.151,3.094,8.3,4.612,12.426,2.144,5.807,4.286,11.584,6.43,17.391.733,1.9.326,2.74-1.573,3.446" transform="translate(11.928 -0.001)" fill="#131931"/>
      <path id="Path_1332" data-name="Path 1332" d="M70.007,32.1v-.162c0-.137-.027-.272-.027-.408A6.352,6.352,0,0,0,68.6,28.274c-3.581-3.772-8.193-5.888-12.7-8.14-.787-.407-1.6-.786-2.388-1.221-1.79-.948-3.635-1.818-5.4-2.875-2.332.76-5.236,1.519-6.565,1.845a8.144,8.144,0,0,1,6.1,1.085c2.062,1.221,4.206,2.306,6.35,3.365,1.628.813,3.282,1.6,4.884,2.469a33.526,33.526,0,0,1,6.864,4.476,4.971,4.971,0,0,1,1.708,4.829c-.461,2.578-2.279,3.555-4.612,2.334-4.042-2.117-8.031-4.314-12.073-6.485-1.573-.841-3.147-1.708-4.722-2.551-1.03-.569-1.843-.407-2.252.408-.407.786-.108,1.491.9,2.035,4.206,2.306,8.439,4.585,12.643,6.891a3.878,3.878,0,0,1,2.171,4.124,3.731,3.731,0,0,1-2.767,3.309,4.209,4.209,0,0,1-3.418-.407l-12.86-6.919c-.217-.108-.407-.217-.624-.325a1.361,1.361,0,0,0-1.927.514,1.338,1.338,0,0,0,.651,1.954c2.279,1.249,4.585,2.469,6.891,3.69.868.461,1.737.9,2.578,1.411a3.987,3.987,0,1,1-3.907,6.945c-1.139-.6-2.279-1.193-3.418-1.818-2.089-1.112-4.179-2.224-6.268-3.309a6.538,6.538,0,0,0-.9-.434,1.382,1.382,0,0,0-1.384,2.334,9.462,9.462,0,0,0,1.249.786c-.381,0-.733-.027-1.059-.027a7.112,7.112,0,0,1,4.612,1.872c.706.379,1.411.76,2.117,1.112.841.434,1.683.9,2.469,1.384a3.14,3.14,0,0,1,1.356,3.88,2.829,2.829,0,0,1-2.551,1.954,3.784,3.784,0,0,1-.542-.027,5.946,5.946,0,0,1-1.765-.733c-.379-.162-.244-.434-.135-.651l.082-.244c-.109.244-1.032,2.007-1.872,3.364.352-.352.651-.244,1.464.137a5.535,5.535,0,0,0,.922.352c3.663,1.139,6.946-1.221,7.028-5.291.027-1.3.027-1.384,1.329-1.573a6.557,6.557,0,0,0,5.807-6.538c.026-.95.217-1.059,1.112-.9,4.476.9,8.031-1.843,8.248-6.321.055-1.085.244-1.3,1.3-1,3.555.95,6.3-1.871,6.592-5.236a9.806,9.806,0,0,0,.082-2.007" transform="translate(16.378 8.295)" fill="#131931"/>
      <path id="Path_1333" data-name="Path 1333" d="M50.382,8.358a2.194,2.194,0,0,1-1.519-.379,17.771,17.771,0,0,0-12.4-1.9,36.192,36.192,0,0,1-7.6,1.086H28.84c-1.384-.027-1.356-.027-1.872-1.331a4.415,4.415,0,0,0-2.713-2.713c-2.686-.95-5.4-1.845-8.113-2.631a4.447,4.447,0,0,0-5.535,2.9c-1.627,4.911-3.2,9.849-4.8,14.787-.9,2.767-1.79,5.535-2.686,8.328-.841,2.578-1.628,5.183-2.5,7.733-.109.352-.082.841-.624.922v1.818c.434-.027.434.352.542.624a4.672,4.672,0,0,0,3.094,2.875c2.387.733,4.748,1.575,7.163,2.306a5.015,5.015,0,0,0,4.476-.489,1.23,1.23,0,0,1,.57-.27.449.449,0,0,1,.244.08.826.826,0,0,1,.135.9,16.1,16.1,0,0,1,2.658-4.531,1.5,1.5,0,0,0-.217.19.578.578,0,0,0-.162-.027,1.653,1.653,0,0,0-.027-.352,12.412,12.412,0,0,1,.678-4.206c2.523-7.84,5.074-15.681,7.57-23.549.244-.733.543-.922,1.276-.868.3.027.569.027.868.027a42.656,42.656,0,0,0,7.869-1.139A15.694,15.694,0,0,1,46.747,9.634c.461.217.651.379.516.624a18.985,18.985,0,0,1,3.119-1.9m-25.91.109q-4.843,15.1-9.741,30.169c-.6,1.819-1.491,2.28-3.309,1.683C9.088,39.558,6.728,38.8,4.4,38.04a2.2,2.2,0,0,1-1.6-2.252,4.335,4.335,0,0,1,.27-.922Q7.949,19.808,12.833,4.695c.542-1.681,1.491-2.17,3.174-1.627q3.418,1.1,6.837,2.2c1.71.569,2.171,1.491,1.628,3.2" transform="translate(0 0.157)" fill="#131931"/>
    </g>
  </g>
</svg>
