<svg xmlns="http://www.w3.org/2000/svg" width="83" height="83" viewBox="0 0 83 83">
  <g id="Group_1176" data-name="Group 1176" transform="translate(-1042 -1588)">
    <g id="Rectangle_51" data-name="Rectangle 51" transform="translate(1042 1588)" fill="none" stroke="#707070" stroke-width="0.5">
      <rect width="83" height="83" stroke="none"/>
      <rect x="0.25" y="0.25" width="82.5" height="82.5" fill="none"/>
    </g>
    <path id="Path_93" data-name="Path 93" d="M23.806,39.3V27.045H21.04a4.255,4.255,0,0,1-4.6-4.6c0-2.706.013-5.412-.018-8.118a1.531,1.531,0,0,0-.4-.958C14.365,11.667,12.674,10,10.965,8.3l1.574-1.411c.067.062.228.205.38.358,1.665,1.664,3.317,3.341,5,4.985a2,2,0,0,1,.641,1.576c-.025,2.9-.012,5.808-.01,8.712a2.156,2.156,0,0,0,2.39,2.415c.94,0,1.881,0,2.888,0,0-.865.018-1.674-.014-2.48a.951.951,0,0,0-.294-.546c-.475-.485-.977-.945-1.5-1.444l1.725-1.554a2.148,2.148,0,0,0,.315.522q2.037,2.069,4.1,4.111a1.188,1.188,0,1,0,1.66-1.673c-1.455-1.469-2.923-2.926-4.382-4.39-.73-.733-.746-1.158-.086-1.922a4.877,4.877,0,0,0-.2-6.8C22.9,6.467,20.619,4.21,18.349,1.938c-.169-.169-.33-.345-.52-.544L19.319,0l4.325,4.366.185-.105c0-.781-.006-1.561,0-2.342.009-.9.383-1.273,1.3-1.274,3.145,0,6.29,0,9.436-.007.557,0,1.071.048,1.333.627.245.542-.026.95-.348,1.377a5.041,5.041,0,0,0-.585,5.637,5.262,5.262,0,0,0,9.377.07,5.092,5.092,0,0,0-.307-5.383,4.108,4.108,0,0,0-.358-.473c-.332-.385-.513-.864-.188-1.257A1.639,1.639,0,0,1,44.561.668C46.847.617,49.135.643,51.423.643c.946,0,1.891-.007,2.837,0,.857.009,1.239.393,1.241,1.262.007,2.354,0,4.708,0,7.062v.757c3.908-1.353,7.166-.565,9.469,2.942a7.2,7.2,0,0,1-.468,8.344c-2.083,2.667-5.065,3.418-8.954,2.227V35.493h2.669c2.96,0,4.673,1.709,4.674,4.662,0,2.684-.013,5.368.018,8.052a1.531,1.531,0,0,0,.394.96c1.657,1.7,3.349,3.365,5.024,5.035L66.777,55.62a3.136,3.136,0,0,1-.264-.23c-1.728-1.725-3.447-3.459-5.186-5.173a1.74,1.74,0,0,1-.552-1.346c.017-2.948.01-5.9.007-8.844a2.168,2.168,0,0,0-2.449-2.421c-.919,0-1.838,0-2.827,0,0,.882-.016,1.712.013,2.539a.879.879,0,0,0,.286.483c.474.487.966.956,1.456,1.436L55.674,43.5l-2.725-2.729c-.264-.265-.521-.538-.8-.79A1.177,1.177,0,1,0,50.5,41.653c1.06,1.086,2.142,2.151,3.215,3.225.964.964.978,1.23.124,2.257a4.9,4.9,0,0,0,.344,6.651c2.254,2.288,4.535,4.548,6.811,6.814a4.841,4.841,0,0,0,.619.444L59.977,62.6l-4.3-4.417-.173.1c0,.738,0,1.476,0,2.214,0,1.043-.349,1.4-1.371,1.4-3.145,0-6.291,0-9.436.006-.543,0-1.02-.088-1.262-.634a1.209,1.209,0,0,1,.317-1.321,5.241,5.241,0,0,0,.507-5.932A5.268,5.268,0,0,0,34.6,55.169a5.1,5.1,0,0,0,.947,4.724c.344.443.613.872.324,1.434-.275.536-.771.574-1.3.572-3.057-.008-6.115,0-9.172,0-1.269,0-1.565-.291-1.565-1.537,0-2.507,0-5.013,0-7.6a7.491,7.491,0,0,1-6.062.091,7.227,7.227,0,0,1-3.359-2.864,7.375,7.375,0,0,1,.38-8.415c2.073-2.7,5.048-3.459,9.018-2.268m3.615-22.889a.6.6,0,0,0,.054.094c1.272,1.279,2.549,2.552,3.816,3.836a3.3,3.3,0,1,1-4.674,4.651c-.192-.188-.389-.371-.645-.615v5.833h.74c2.639,0,5.279.006,7.918,0,.542,0,1.021.084,1.264.63a1.186,1.186,0,0,1-.313,1.323,5.049,5.049,0,0,0-1.187,3.083,5.273,5.273,0,0,0,9.539,3.349,5.23,5.23,0,0,0-.142-6.376c-.345-.442-.616-.869-.328-1.433.274-.538.769-.576,1.3-.574,2.639.009,5.279,0,7.918,0h.712c0-2.965.005-5.825,0-8.684,0-.54.075-1.021.621-1.27a1.174,1.174,0,0,1,1.322.3,5.082,5.082,0,0,0,3.015,1.189,5.276,5.276,0,1,0-2.893-9.444c-.455.35-.883.681-1.483.381s-.583-.863-.581-1.426c.006-2.6,0-5.192,0-7.788v-.7H46.417c1.3,3.608.656,6.714-2.4,9.1a7.04,7.04,0,0,1-8.118.374c-3.543-2.3-4.34-5.566-3.01-9.443H25.941c0,1.171-.015,2.292.013,3.412a1.151,1.151,0,0,0,.29.614A17.039,17.039,0,0,1,27.6,8.444a7.027,7.027,0,0,1-.173,7.969M32.9,59.754c-1.129-4.241-.334-7.158,2.474-9.157a7.371,7.371,0,0,1,8.474-.069c2.884,1.981,3.689,4.831,2.591,9.2h6.952c0-1.022-.03-1.99.012-2.956a1.569,1.569,0,0,0-.54-1.321,6.946,6.946,0,0,1-2.242-5.819,7.3,7.3,0,0,1,1.311-3.525c-.139-.145-.242-.258-.35-.366-.9-.9-1.825-1.784-2.7-2.715a3.248,3.248,0,0,1-.2-4.286A3.293,3.293,0,0,1,52.9,37.9c.143.077.291.147.444.223V32.374H46.42c1.2,3.867.441,6.871-2.226,8.955a7.365,7.365,0,0,1-8.408.451A7.237,7.237,0,0,1,32.9,38.442a7.447,7.447,0,0,1,.049-6.075H25.94c0,.28,0,.519,0,.757,0,2.639,0,5.279,0,7.918a1.173,1.173,0,0,1-.593,1.221,1.143,1.143,0,0,1-1.325-.27,5.087,5.087,0,0,0-3.073-1.21A5.276,5.276,0,1,0,23.9,50.21c.436-.337.853-.646,1.427-.379.61.284.618.835.616,1.405-.008,2.6,0,5.191,0,7.786v.733Z" transform="translate(1043.841 1598.202)" fill="#e54727"/>
    <path id="Path_94" data-name="Path 94" d="M10.569,171.881h2.045a30.651,30.651,0,0,1-.036,3.934,2.931,2.931,0,0,1-2.61,2.519,9.52,9.52,0,0,0-6.6,14.056c.092.171.19.339.31.551l-1.741,1.147a11.126,11.126,0,0,1-1.847-7.575c.68-5.368,4.049-8.99,9.38-10.227.848-.2,1.1-.5,1.1-1.368,0-.988,0-1.976,0-3.037" transform="translate(1052.877 1456.561)" fill="#131931"/>
    <path id="Path_95" data-name="Path 95" d="M293.467,29.273c4.11.547,7.923,4.25,8.991,8.654a11.537,11.537,0,0,1-4.34,11.943c-.2-.266-.412-.536-.617-.809s-.391-.526-.61-.819c3.034-2.572,4.388-5.775,3.509-9.688-.873-3.884-3.425-6.214-7.309-7.3l.377-1.986" transform="translate(811.352 1574.079)" fill="#131931"/>
    <path id="Path_96" data-name="Path 96" d="M19.106,301.43l-1.552-1.389,1.562-1.442,1.257,1.143-1.267,1.688" transform="translate(1038.411 1352.138)" fill="#131931"/>
  </g>
</svg>
