<svg xmlns="http://www.w3.org/2000/svg" width="83" height="83" viewBox="0 0 83 83">
  <g id="Group_1175" data-name="Group 1175" transform="translate(-1042 -1964)">
    <g id="Rectangle_53" data-name="Rectangle 53" transform="translate(1042 1964)" fill="none" stroke="#707070" stroke-width="0.5">
      <rect width="83" height="83" stroke="none"/>
      <rect x="0.25" y="0.25" width="82.5" height="82.5" fill="none"/>
    </g>
    <path id="Path_91" data-name="Path 91" d="M22.341,50.268h-.652q-7.568,0-15.137-.007a.825.825,0,0,0-.886.491,2.953,2.953,0,0,1-3.414,1.436,3.044,3.044,0,0,1-.018-5.873,2.96,2.96,0,0,1,3.424,1.416.839.839,0,0,0,.874.51q7.6-.019,15.2-.008h.6c.091-.657.2-1.211-.594-1.57a2.535,2.535,0,0,1-.974-1.049.769.769,0,0,0-.789-.444c-2.82.015-5.639,0-8.459.016a1.664,1.664,0,0,1-1.293-.541c-1.05-1.078-2.123-2.135-3.19-3.2-.552-.549-.974-.494-1.366.17a3.043,3.043,0,1,1-3.415-4.47,2.944,2.944,0,0,1,3.411,1.441.755.755,0,0,0,.888.48,1.883,1.883,0,0,1,1.728.72c.96,1.017,1.957,2,2.971,2.965a1.409,1.409,0,0,0,.865.372c2.629.028,5.258.007,7.886.027a.747.747,0,0,0,.767-.474,2.95,2.95,0,0,1,4.263-1.065.685.685,0,0,0,.842.018c1.083-.624,2.19-1.2,3.264-1.841a.874.874,0,0,0,.359-.625,3.066,3.066,0,1,1,6.129.014,1.334,1.334,0,0,0,.317.6c.054.078.178.109.271.16l3.477,1.927a3.125,3.125,0,0,1,2.72-.671,3.082,3.082,0,0,1,2.342,2.558,2.975,2.975,0,0,1-1.544,3.036.774.774,0,0,0-.476.831c.024,1.144-.008,2.29.024,3.434a.8.8,0,0,0,.334.568,3.05,3.05,0,1,1-3.088,5.244.783.783,0,0,0-.652-.022c-1.124.591-2.238,1.2-3.33,1.854a.939.939,0,0,0-.39.668,3.067,3.067,0,1,1-6.133-.007.875.875,0,0,0-.342-.635c-1.111-.658-2.243-1.282-3.386-1.883a.782.782,0,0,0-.652.029A3.037,3.037,0,0,1,20.7,55.739a.849.849,0,0,0-.611-.364q-4.038-.037-8.077,0a1.137,1.137,0,0,0-.7.313c-1.007.971-2.015,1.945-2.966,2.969a2.043,2.043,0,0,1-1.9.777.634.634,0,0,0-.738.408,2.951,2.951,0,0,1-3.435,1.516,3.042,3.042,0,0,1,0-5.887,3.009,3.009,0,0,1,3.449,1.509.715.715,0,0,0,1.256.133c1.084-1.075,2.171-2.147,3.233-3.243a1.725,1.725,0,0,1,1.352-.554c2.777.019,5.554,0,8.332.015.409,0,.685-.042.895-.483a2.05,2.05,0,0,1,.882-.963c.745-.334.805-.862.668-1.614M31.549,44.2c0-.614.006-1.228,0-1.841a1.047,1.047,0,0,0-1.336-.814q-1.724.945-3.435,1.912a.866.866,0,0,0-.014,1.4q1.736.988,3.491,1.941a.574.574,0,0,0,.449.042c.538-.256,1.01-.549.863-1.306a7.116,7.116,0,0,1-.015-1.33m2.036-.074c0,.614-.007,1.228,0,1.842a1.048,1.048,0,0,0,1.342.8q1.7-.931,3.381-1.88a.848.848,0,0,0,0-1.464q-1.685-.95-3.384-1.874a.662.662,0,0,0-.5-.066c-.551.245-1,.557-.857,1.308a7.206,7.206,0,0,1,.015,1.331m-9.16,5.1c0,.635-.011,1.27,0,1.905a1.12,1.12,0,0,0,1.294.759q1.752-.96,3.489-1.945a.866.866,0,0,0-.013-1.4c-1.158-.657-2.322-1.305-3.494-1.936a.705.705,0,0,0-.5.006,1.077,1.077,0,0,0-.793,1.341,8.1,8.1,0,0,1,.013,1.268m15.264,2.815a3.666,3.666,0,0,1,.637-.383c.354-.123.392-.364.389-.686-.014-1.164,0-2.328-.007-3.492a1.028,1.028,0,0,0-1.365-.826q-1.7.931-3.382,1.878a.858.858,0,0,0-.011,1.432c1.233.7,2.474,1.376,3.74,2.078m-8.14,2.34c0-.614.006-1.228,0-1.842a1.047,1.047,0,0,0-1.337-.814q-1.724.946-3.435,1.912a.867.867,0,0,0-.013,1.4q1.736.988,3.492,1.941a.575.575,0,0,0,.449.041c.539-.256,1.008-.55.862-1.306a7.132,7.132,0,0,1-.015-1.331m2.036-.1c0,.614-.006,1.228,0,1.841a1.029,1.029,0,0,0,1.377.8q1.667-.916,3.326-1.847a.85.85,0,0,0-.014-1.494c-1.087-.61-2.184-1.2-3.266-1.823a.727.727,0,0,0-.789,0,1.012,1.012,0,0,0-.646,1.186,12.282,12.282,0,0,1,.01,1.332m-1.036-14.2a1.013,1.013,0,1,0-.995-1.031,1.026,1.026,0,0,0,.995,1.031m-28.486.031a1.013,1.013,0,1,0-1.039.987,1.025,1.025,0,0,0,1.039-.987m20.356,4.024a1.013,1.013,0,1,0-.991,1.035,1.024,1.024,0,0,0,.991-1.035m18.32.043a1.013,1.013,0,1,0-1.034.992,1.025,1.025,0,0,0,1.034-.992M3.061,48.237a1.013,1.013,0,1,0,1,1.022,1.024,1.024,0,0,0-1-1.022m29.5,2.026a1.013,1.013,0,1,0-1-1.023,1.025,1.025,0,0,0,1,1.023m-9.147,5.09a1.013,1.013,0,1,0-1.015-1.01,1.025,1.025,0,0,0,1.015,1.01m17.305-1.062a1.014,1.014,0,1,0,1.061-.964,1.029,1.029,0,0,0-1.061.964M3.033,57.4a1.013,1.013,0,1,0,1.031,1,1.024,1.024,0,0,0-1.031-1m30.546,2.038a1.012,1.012,0,1,0-1.02,1.006,1.023,1.023,0,0,0,1.02-1.006" transform="translate(1053 1945.09)" fill="#131931"/>
    <path id="Path_92" data-name="Path 92" d="M64.565,28.773l1.93-.521a13.956,13.956,0,0,0,.528,1.593c.7,1.493,1.356,3.015,2.181,4.437a47.441,47.441,0,0,1,6.052,16.081c.428,2.582.511,5.221.745,7.835.022.25,0,.5,0,.8H90.254v-.681q0-3.022,0-6.044c0-1.045.325-1.374,1.36-1.374q6.042,0,12.084,0h.751V44.79c-1.01,0-2.039.015-3.069,0a5.048,5.048,0,0,1-4.708-3.369A14.712,14.712,0,0,1,96.3,39.73h2.046c.055.255.1.52.17.778a3.018,3.018,0,0,0,2.775,2.237c.847.033,1.7.009,2.544.011h.669V41.175c0-.721,0-1.442,0-2.163,0-1,.335-1.343,1.326-1.345q2.83,0,5.661,0h.781c-.08-.264-.142-.477-.209-.689-1.481-4.726-2.991-9.444-4.419-14.186a18.023,18.023,0,0,1-.335-2.895A20.76,20.76,0,0,0,89.993,2.311C81.385,1.142,74.566,4.26,69.469,11.246c-.11.151-.225.3-.362.482-.484-.31-.945-.6-1.4-.9a3.024,3.024,0,0,1-.261-.217,22.86,22.86,0,0,1,41.739,8.025,8.777,8.777,0,0,1,.2,1.384c.077,2.832,1.263,5.383,2.041,8.032.966,3.289,2.033,6.549,3.057,9.822.421,1.348.078,1.826-1.313,1.827h-6.624v.714q0,5.535,0,11.069c0,1.157-.3,1.451-1.477,1.451H92.289v.735c0,2.057,0,4.114,0,6.171,0,.87-.369,1.235-1.243,1.236q-7.918.006-15.837,0c-.889,0-1.254-.374-1.234-1.305a43.914,43.914,0,0,0-1.654-13.193,47.527,47.527,0,0,0-4.9-11.269,24.356,24.356,0,0,1-2.857-6.537" transform="translate(999.385 1975)" fill="#e54727"/>
    <rect id="Rectangle_60" data-name="Rectangle 60" width="61.028" height="61.08" transform="translate(1053 1975)" fill="none"/>
  </g>
</svg>
