<svg xmlns="http://www.w3.org/2000/svg" width="83" height="83" viewBox="0 0 83 83">
  <g id="Group_1177" data-name="Group 1177" transform="translate(-1042 -1761)">
    <g id="Rectangle_52" data-name="Rectangle 52" transform="translate(1042 1761)" fill="none" stroke="#707070" stroke-width="0.5">
      <rect width="83" height="83" stroke="none"/>
      <rect x="0.25" y="0.25" width="82.5" height="82.5" fill="none"/>
    </g>
    <path id="Path_97" data-name="Path 97" d="M105.782,14.36a1.591,1.591,0,0,1-1.6.833c-1.467-.043-2.935-.013-4.255-.013A23.156,23.156,0,0,1,98.467,18.2a6.578,6.578,0,0,1-5.926,3.1c-4.409-.14-8.816-.344-13.223-.519-.784-.031-1.567-.061-2.351-.086a4.246,4.246,0,0,1-4.412-3.247c-.764.242-1.52.478-2.273.721-2.943.949-5.881,1.914-8.83,2.846a8.157,8.157,0,0,1-4.46.288,3.871,3.871,0,0,1-2.532-1.861,2.665,2.665,0,0,1,1.182-4c2.194-1.084,4.408-2.127,6.614-3.188,2.946-1.417,5.85-2.935,8.858-4.207a17.525,17.525,0,0,1,4.819-1.186q6.014-.678,12.062-1.046a16.616,16.616,0,0,0,5.652-1.378c3.342-1.443,6.725-2.79,10.09-4.179.177-.073.345-.17.517-.255h1.53Zm-2.38-1.534V2.97c-.181.067-.325.116-.466.173-2.754,1.13-5.5,2.284-8.264,3.383a15.333,15.333,0,0,1-4.61,1.485q-6.6.455-13.191,1.076A14.553,14.553,0,0,0,71.8,10.269q-4.971,2.407-9.955,4.789c-1.677.806-3.357,1.607-5.031,2.42-.557.27-.638.511-.189.92a2.224,2.224,0,0,0,1.258.644,8.839,8.839,0,0,0,2.779-.27c4.061-1.248,8.1-2.585,12.136-3.9a1.392,1.392,0,0,0,.573-.367,3.91,3.91,0,0,1,2.674-1.325c2.993-.214,5.988-.4,8.983-.576a1.151,1.151,0,0,1,1.354,1.132c.016.719-.462,1.168-1.289,1.217-2.114.126-4.229.25-6.343.385-.9.057-1.8.1-2.7.221A1.251,1.251,0,0,0,74.9,16.642a1.378,1.378,0,0,0,.884,1.447,3.572,3.572,0,0,0,1.142.236c5.115.217,10.232.382,15.345.635a4.93,4.93,0,0,0,5.18-4.732c.017-1.02.458-1.4,1.478-1.4,1.47,0,2.939,0,4.472,0" transform="translate(1008.218 1771.734)" fill="#e54727"/>
    <path id="Path_98" data-name="Path 98" d="M0,254.032a1.585,1.585,0,0,1,1.6-.833c1.467.043,2.936.013,4.44.013a7.676,7.676,0,0,1,1.64-3.554,6.818,6.818,0,0,1,5.445-2.569c.941.008,1.882.059,2.821.115a1.134,1.134,0,0,1,1.123,1.189,1.146,1.146,0,0,1-1.175,1.145c-.823,0-1.645-.075-2.469-.092a4.838,4.838,0,0,0-5.089,4.677c-.066,1.063-.456,1.441-1.505,1.443-1.468,0-2.935,0-4.441,0v9.866c.437-.174.862-.338,1.283-.511,3.368-1.386,6.708-2.845,10.117-4.12a14.344,14.344,0,0,1,3.638-.523c4.331-.41,8.667-.767,13-1.194a12.078,12.078,0,0,0,4.143-1.232c4.713-2.308,9.454-4.561,14.183-6.836.831-.4.861-.832.067-1.352a3.343,3.343,0,0,0-2.79-.265c-1.776.474-3.526,1.047-5.279,1.6q-3.807,1.208-7.6,2.461a2.294,2.294,0,0,0-.857.554,4.558,4.558,0,0,1-3.083,1.264q-4.227.268-8.456.506a1.178,1.178,0,1,1-.2-2.341c2.662-.166,5.324-.316,7.985-.485a7.674,7.674,0,0,0,1.391-.2,1.141,1.141,0,0,0,.941-1.006,1.213,1.213,0,0,0-.622-1.3,4.009,4.009,0,0,0-1.39-.389c-.759-.081-1.529-.047-2.291-.1a1.193,1.193,0,0,1-1.254-1.259c.053-.694.587-1.108,1.415-1.078.9.032,1.805.041,2.7.125a3.969,3.969,0,0,1,3.7,2.94c.023.073.058.142.1.249,2.245-.724,4.471-1.459,6.709-2.159,1.942-.608,3.881-1.229,5.849-1.741a5.8,5.8,0,0,1,3.366.154,3.848,3.848,0,0,1,2.309,2.048,2.6,2.6,0,0,1-.971,3.487,11.714,11.714,0,0,1-1.251.647c-4.535,2.183-9.089,4.327-13.6,6.56a16.344,16.344,0,0,1-5.738,1.6c-4.643.449-9.3.794-13.941,1.21a6.62,6.62,0,0,0-1.867.434c-4.03,1.628-8.045,3.292-12.064,4.947-.177.073-.344.17-.516.255H0Z" transform="translate(1053.734 1563.608)" fill="#e54727"/>
    <path id="Path_99" data-name="Path 99" d="M139.626,141.8a5.15,5.15,0,0,1,3.449,1.331c.279.255.471.3.791.035a5.119,5.119,0,0,1,6.3-.507,5.04,5.04,0,0,1,2.048,5.984,13.728,13.728,0,0,1-1.786,3.472,15.776,15.776,0,0,1-5.944,5.135,2.014,2.014,0,0,1-1.959.013,15.725,15.725,0,0,1-7.555-7.906,5.206,5.206,0,0,1,1.747-6.636,5.27,5.27,0,0,1,2.907-.92m-2.817,5.426a9.734,9.734,0,0,0,.506,1.641,14.2,14.2,0,0,0,5.8,6.06.932.932,0,0,0,.791-.029,14.73,14.73,0,0,0,5.411-5.349,7.243,7.243,0,0,0,.689-1.676,2.787,2.787,0,0,0-1.185-3.281,2.844,2.844,0,0,0-3.47.37,3.742,3.742,0,0,1-1.263.7,2.6,2.6,0,0,1-2.572-.766,2.637,2.637,0,0,0-3.058-.464,2.861,2.861,0,0,0-1.651,2.794" transform="translate(940.381 1652.188)" fill="#131931"/>
    <path id="Path_100" data-name="Path 100" d="M128.784,250.379a1.146,1.146,0,0,1,1.143,1.169,1.181,1.181,0,0,1-1.162,1.166,1.2,1.2,0,0,1-1.181-1.216,1.164,1.164,0,0,1,1.2-1.12" transform="translate(946.175 1560.65)" fill="#e54727"/>
  </g>
</svg>
