<svg xmlns="http://www.w3.org/2000/svg" width="239.405" height="52.295" viewBox="0 0 239.405 52.295">
  <g id="Group_59" data-name="Group 59" transform="translate(-15.266 -12.7)">
    <path id="Path_19" data-name="Path 19" d="M67.467,28.34A25.62,25.62,0,0,0,62.441,26.3c-7.264-1.921-14.426-1.768-21.3,1.455-7.093,3.324-11.327,9.035-12.924,16.635a30.442,30.442,0,0,0,1.34,17.81,21.75,21.75,0,0,0,1.082,2.282c.248.463.107.517-.334.516q-7.259-.015-14.516,0c-.377,0-.561-.094-.5-.493a1.985,1.985,0,0,0,0-.273q0-25.264-.018-50.528c0-.708.191-.85.865-.849q25.232.029,50.464.015c.871,0,.871,0,.871.887q0,6.88,0,13.761Z" transform="translate(0 -0.067)" fill="#e54727"/>
    <path id="Path_20" data-name="Path 20" d="M184.4,33.06c2.5-6.628,4.95-13.088,7.369-19.559a.858.858,0,0,1,.98-.659c3.058.029,6.116.024,9.174,0,.471,0,.616.114.616.6q-.021,15.026,0,30.053c0,.515-.136.645-.648.639q-3.731-.043-7.462,0c-.531.007-.632-.151-.631-.649.019-5.157.011-10.314.011-15.471v-.667l-.1-.029c-.413,1.189-.83,2.378-1.237,3.569-1.441,4.215-2.888,8.428-4.3,12.651a.75.75,0,0,1-.877.593c-1.985-.024-3.971-.037-5.956.007-.574.013-.768-.195-.939-.7q-2.666-7.914-5.38-15.812a.59.59,0,0,0-.242-.328v.722c0,5.134-.009,10.268.013,15.4,0,.565-.14.723-.711.715-2.487-.032-4.974-.028-7.462,0-.49.005-.6-.138-.6-.608q.021-15.026,0-30.052c0-.523.134-.639.64-.635,3.081.025,6.162.029,9.242,0a.828.828,0,0,1,.924.641q3.618,9.417,7.266,18.822C184.17,32.508,184.258,32.709,184.4,33.06Z" transform="translate(-64.714 -0.06)" fill="#131931"/>
    <path id="Path_21" data-name="Path 21" d="M336.455,22.813c0-3.1.011-6.207-.011-9.31,0-.494.1-.665.629-.659q3.731.045,7.462,0c.576-.008.654.2.653.7-.015,5.864-.009,11.728-.012,17.593a7.773,7.773,0,0,0,.162,1.7,4.038,4.038,0,0,0,3.985,3.38,6.857,6.857,0,0,0,1.773-.075,4.316,4.316,0,0,0,3.543-4.341c.065-1.274.031-2.555.031-3.832,0-4.815.01-9.629-.012-14.444,0-.54.139-.685.677-.679,2.51.028,5.02.018,7.531.005.376,0,.563.033.561.5-.025,6.183.049,12.368-.054,18.55-.112,6.76-4.822,11.715-11.561,12.405a15.561,15.561,0,0,1-8.786-1.337,11.534,11.534,0,0,1-6.323-8.948,42.9,42.9,0,0,1-.245-6.828C336.442,25.733,336.455,24.273,336.455,22.813Z" transform="translate(-137.874 -0.061)" fill="#131931"/>
    <path id="Path_22" data-name="Path 22" d="M258.16,22.46c0-2.989.012-5.978-.011-8.967,0-.494.091-.657.625-.65,2.509.032,5.02.026,7.53,0,.471,0,.614.116.612.6-.017,5.932.025,11.865-.024,17.8a12.689,12.689,0,0,1-4.192,9.945,13.568,13.568,0,0,1-8.254,3.2,15.057,15.057,0,0,1-7.6-1.249,11.53,11.53,0,0,1-6.62-8.876,18.631,18.631,0,0,1-.28-3.47q.012-8.625-.011-17.249c0-.576.144-.713.711-.7q3.627.051,7.256,0c.587-.009.764.115.76.74-.027,5.841-.017,11.682-.016,17.522a6.964,6.964,0,0,0,.337,2.287A3.928,3.928,0,0,0,252.63,36.2a7.156,7.156,0,0,0,1.91-.058c2.314-.473,3.6-2.21,3.617-4.925C258.174,28.3,258.16,25.38,258.16,22.46Z" transform="translate(-96.443 -0.061)" fill="#131931"/>
    <path id="Path_23" data-name="Path 23" d="M411.2,22.518c-1.392,0-2.784-.011-4.175.007-.389.006-.551-.091-.611-.512a2.8,2.8,0,0,0-3.819-2.158,2.153,2.153,0,0,0-.5,3.619,9.339,9.339,0,0,0,2.993,1.593c1.995.762,4.042,1.393,5.963,2.335,2.277,1.117,4.209,2.627,4.948,5.172A8.973,8.973,0,0,1,411,43.5a15.262,15.262,0,0,1-14.888-.98,8.928,8.928,0,0,1-4.15-7.323c-.025-.3.037-.4.346-.4,2.852.008,5.7.013,8.556,0,.53,0,.418.4.465.662a2.766,2.766,0,0,0,2.193,2.415,3.608,3.608,0,0,0,1.7,0,2.191,2.191,0,0,0,1.859-1.766,2.308,2.308,0,0,0-1.166-2.428,18.665,18.665,0,0,0-3.893-1.627,42.312,42.312,0,0,1-4.706-1.8c-3.567-1.678-5.495-4.391-5.272-8.436a8.4,8.4,0,0,1,5.665-7.883,15.979,15.979,0,0,1,13.009.328,8.828,8.828,0,0,1,5.207,7.706c.044.49-.108.575-.546.568C413.986,22.5,412.594,22.518,411.2,22.518Z" transform="translate(-161.706)" fill="#131931"/>
    <path id="Path_24" data-name="Path 24" d="M121.914,28.451c0-4.976.009-9.951-.013-14.926,0-.542.142-.679.679-.677q9.347.029,18.693,0c.5,0,.66.1.65.632q-.053,2.875,0,5.751c.011.551-.184.623-.662.62-3.332-.019-6.665,0-10-.022-.507,0-.66.112-.643.635.042,1.277.045,2.557,0,3.834-.019.541.164.628.653.624,2.9-.022,5.8,0,8.7-.023.539,0,.688.139.677.68-.035,1.78-.032,3.56,0,5.34.009.5-.1.653-.628.648-2.922-.029-5.843,0-8.765-.027-.517-.005-.644.127-.631.636.038,1.459.034,2.922,0,4.381-.011.486.135.6.61.6,3.332-.021,6.665.006,10-.027.592-.006.7.169.692.719-.035,1.894-.029,3.788,0,5.682.007.471-.112.612-.6.611q-9.381-.026-18.762,0c-.579,0-.658-.2-.656-.7C121.92,38.447,121.914,33.448,121.914,28.451Z" transform="translate(-45.776 -0.063)" fill="#131931"/>
    <path id="Path_25" data-name="Path 25" d="M297.06,28.445c0-4.976.009-9.951-.013-14.926,0-.529.123-.684.667-.677,2.464.031,4.93.035,7.394,0,.58-.009.658.2.657.7-.014,7.713,0,15.427-.024,23.141,0,.625.159.779.778.771,2.784-.035,5.569,0,8.353-.03.535-.006.628.154.62.643q-.045,2.738,0,5.477c.008.494-.151.6-.617.594q-8.592-.024-17.186,0c-.505,0-.644-.111-.642-.631C297.069,38.487,297.06,33.466,297.06,28.445Z" transform="translate(-120.962 -0.06)" fill="#131931"/>
    <path id="Path_26" data-name="Path 26" d="M78.942,86.165c3.491,0,6.981.01,10.47-.011.494,0,.68.093.656.63-.046,1.024-.046,2.054,0,3.078.025.542-.182.639-.667.635-2.281-.022-4.562-.006-6.843-.013a.786.786,0,0,0-.834.412c-1.65,3-4.32,3.86-7.53,3.466a6.919,6.919,0,0,1-5.88-5.454c-.181-.7-.26-1.433-.4-2.147-.1-.482.072-.61.56-.607C71.962,86.175,75.452,86.165,78.942,86.165Z" transform="translate(-22.588 -31.532)" fill="#e54727"/>
    <path id="Path_27" data-name="Path 27" d="M76.013,65.9c-2.439,0-4.877-.011-7.316.009-.507,0-.61-.124-.494-.627,1.123-4.9,4.762-6.78,9.152-6.359a7.5,7.5,0,0,1,5.28,2.664,6.683,6.683,0,0,1,1.38,3.786c.051.53-.24.531-.618.53C80.936,65.9,78.474,65.9,76.013,65.9Z" transform="translate(-22.706 -19.819)" fill="#e54727"/>
    <path id="Path_28" data-name="Path 28" d="M387.72,93.2V88.626q0-2.634,0-5.269c0-.292-.074-.573.417-.572s.4.3.4.584q0,5.44-.007,10.88c0,.209.18.551-.21.613a.744.744,0,0,1-.863-.342c-1.636-2.547-3.309-5.07-4.969-7.6-.568-.866-1.137-1.731-1.824-2.777v2.084q0,4.037,0,8.075c0,.263.135.592-.385.589-.493,0-.413-.293-.413-.582,0-3.6,0-7.208.013-10.812,0-.223-.223-.587.2-.684a.766.766,0,0,1,.891.421c1.933,2.978,3.895,5.938,5.849,8.9.245.372.5.74.746,1.111Z" transform="translate(-156.494 -30.086)" fill="#131931"/>
    <path id="Path_29" data-name="Path 29" d="M425.5,86.253c-.408-.026-.78.22-1.067-.324a4.7,4.7,0,0,0-5.248-2.55,4.913,4.913,0,0,0-4.011,3.884,5.7,5.7,0,0,0,1.976,6,4.923,4.923,0,0,0,5.123.418,4.787,4.787,0,0,0,2.757-4.037c.054-.413-.067-.5-.454-.5-1.46.018-2.921.01-4.381,0-.225,0-.516.1-.517-.327,0-.407.255-.354.5-.354,1.734,0,3.469.009,5.2-.007.368,0,.511.075.523.482a5.8,5.8,0,0,1-5.133,5.928,5.73,5.73,0,0,1-6.465-4.841c-.377-2.518.16-4.736,2.259-6.347a5.908,5.908,0,0,1,8.781,2.137C425.409,85.945,425.443,86.078,425.5,86.253Z" transform="translate(-171.254 -29.981)" fill="#131931"/>
    <path id="Path_30" data-name="Path 30" d="M207.7,93.483c0-3.5,0-6.788.009-10.073,0-.218-.2-.584.294-.606.337-.015.532,0,.53.45-.019,3.718-.009,7.437-.017,11.155,0,.17.132.449-.216.467-.315.017-.6.036-.82-.313-1.015-1.593-2.064-3.165-3.1-4.745-1.194-1.821-2.388-3.642-3.708-5.45v.637q0,4.654,0,9.307c0,.288.084.611-.412.579-.281-.018-.395-.068-.394-.378.01-3.787.006-7.574.009-11.361,0-.139-.073-.352.2-.342s.568-.08.776.26c.449.739.944,1.449,1.419,2.172l5.141,7.818C207.467,93.148,207.527,93.231,207.7,93.483Z" transform="translate(-79.246 -30.093)" fill="#131931"/>
    <path id="Path_31" data-name="Path 31" d="M171.926,88.637c-.047,2.47-.877,4.417-3.018,5.561a5.734,5.734,0,0,1-6.046-.191c-2.17-1.371-2.848-3.5-2.641-5.969a5.8,5.8,0,0,1,8.357-4.928A5.728,5.728,0,0,1,171.926,88.637Zm-.873.111c0-.251.017-.5,0-.752a4.942,4.942,0,0,0-5.8-4.647c-2.61.385-4.315,2.589-4.255,5.5.066,3.185,2.21,5.4,5.171,5.342C169.056,94.135,171.067,91.907,171.053,88.748Z" transform="translate(-62.211 -29.972)" fill="#131931"/>
    <path id="Path_32" data-name="Path 32" d="M133.185,86.188a.9.9,0,0,1-1.2-.552,4.439,4.439,0,0,0-4.3-2.377,4.607,4.607,0,0,0-4.33,2.6,6.2,6.2,0,0,0,1.055,7.077A5.058,5.058,0,0,0,132,91.816c.363-.655.363-.655,1.206-.588a5.273,5.273,0,0,1-3.632,3.405,5.764,5.764,0,0,1-7.284-3.511,6.4,6.4,0,0,1,3.011-8.1A5.809,5.809,0,0,1,133.185,86.188Z" transform="translate(-45.758 -29.958)" fill="#131931"/>
    <path id="Path_33" data-name="Path 33" d="M238.148,94.884c-2.042-.009-3.463-.944-3.882-2.507-.057-.212-.26-.513.1-.606.279-.071.559-.1.719.354a3.291,3.291,0,0,0,5.006,1.49,2.3,2.3,0,0,0,.934-2.283,2.1,2.1,0,0,0-1.511-1.772c-1.089-.394-2.22-.676-3.3-1.081a2.9,2.9,0,0,1-1.56-4.16A3.416,3.416,0,0,1,237.3,82.6a3.789,3.789,0,0,1,4.294,2.019c.085.206.393.518.012.665a.568.568,0,0,1-.809-.333,3.224,3.224,0,0,0-4.989-.9,2.276,2.276,0,0,0,.658,3.708,18.371,18.371,0,0,0,2.459.8c.28.092.564.176.84.279a2.778,2.778,0,0,1,2.1,3.042,3.18,3.18,0,0,1-2.449,2.858A4.182,4.182,0,0,1,238.148,94.884Z" transform="translate(-93.965 -29.976)" fill="#131931"/>
    <path id="Path_34" data-name="Path 34" d="M267.4,87.321a32.8,32.8,0,0,0,.126,4.309,3.087,3.087,0,0,0,3.425,2.653,3.016,3.016,0,0,0,3.167-2.776,50.314,50.314,0,0,0,.106-5.536c.021-.935.016-1.872,0-2.807-.007-.319.124-.381.4-.369.247.01.438,0,.43.349-.064,2.759.144,5.524-.112,8.277a3.707,3.707,0,0,1-3.779,3.568c-2.548.056-4.084-1.1-4.463-3.369a27.916,27.916,0,0,1-.115-4.167c-.024-1.392,0-2.785-.009-4.177,0-.305.008-.49.42-.494.435,0,.409.218.408.506C267.4,84.543,267.4,85.8,267.4,87.321Z" transform="translate(-107.878 -30.084)" fill="#131931"/>
    <path id="Path_35" data-name="Path 35" d="M331.064,89.2c0,1.688.005,3.375-.005,5.063,0,.272.176.654-.4.635s-.384-.4-.385-.67c-.01-3.33-.027-6.66.011-9.989.007-.652-.2-.794-.79-.755-.749.05-1.5.008-2.257.014-.243,0-.429.014-.429-.34s.163-.352.418-.351c2.281.006,4.562,0,6.842,0,.219,0,.444-.062.454.314.011.392-.2.376-.467.373-.8-.007-1.6.026-2.394-.013-.465-.023-.619.086-.609.584C331.085,85.78,331.064,87.49,331.064,89.2Z" transform="translate(-133.737 -30.096)" fill="#131931"/>
    <path id="Path_36" data-name="Path 36" d="M301.182,88.829q0-2.738,0-5.476c0-.3-.06-.567.423-.569.51,0,.4.308.4.582,0,3.4.014,6.8-.011,10.2,0,.517.128.658.641.64,1.139-.041,2.281-.006,3.422-.017.289,0,.465.025.458.393-.008.4-.271.291-.471.292-1.46.006-2.92-.01-4.38.013-.405.006-.49-.137-.486-.511C301.191,92.524,301.181,90.676,301.182,88.829Z" transform="translate(-122.734 -30.085)" fill="#131931"/>
    <path id="Path_37" data-name="Path 37" d="M358.5,88.832c0-1.846,0-3.692,0-5.538,0-.288-.029-.512.4-.51.4,0,.429.167.428.485q-.011,5.571,0,11.143c0,.333-.059.471-.439.477-.443.007-.392-.243-.391-.52Q358.5,91.6,358.5,88.832Z" transform="translate(-147.342 -30.086)" fill="#131931"/>
  </g>
</svg>
