<svg id="Group_1182" data-name="Group 1182" xmlns="http://www.w3.org/2000/svg" xmlns:xlink="http://www.w3.org/1999/xlink" width="40.679" height="40.573" viewBox="0 0 40.679 40.573">
  <defs>
    <clipPath id="clip-path">
      <rect id="Rectangle_47" data-name="Rectangle 47" width="40.679" height="40.573" fill="#e54727"/>
    </clipPath>
  </defs>
  <g id="Group_1135" data-name="Group 1135" clip-path="url(#clip-path)">
    <path id="Path_79" data-name="Path 79" d="M40.679,39.441a1.562,1.562,0,0,1-1.42,1.13A1.641,1.641,0,0,1,38,39.993q-4.079-4.067-8.164-8.128a2.518,2.518,0,0,1-.251-.349A18.028,18.028,0,0,1,3.741,28.825a17.913,17.913,0,1,1,27.879.641c.093.1.186.2.285.3q4,3.98,7.989,7.966a8.542,8.542,0,0,1,.785,1.071Zm-22.737-6.6A14.946,14.946,0,1,0,2.936,17.907,15.024,15.024,0,0,0,17.942,32.84" transform="translate(0 0)" fill="#e54727"/>
  </g>
</svg>
